<svg width="105" height="30" viewBox="0 0 105 30" fill="none" xmlns="http://www.w3.org/2000/svg">
<g clip-path="url(#clip0_60_216)">
<path d="M25.0086 15.0184C25.0086 21.1522 21.9974 26.5425 17.3506 29.8882C24.6368 28.8473 30.2502 22.5648 30.2502 15.0184C30.2502 7.43469 24.6368 1.18933 17.3506 0.148438C21.9602 3.45699 25.0086 8.88448 25.0086 15.0184Z" fill="#1D3960"/>
<path d="M10.7334 29.2935C11.7743 29.6281 12.8152 29.8512 13.9304 29.9256C17.9825 26.208 20.5104 20.892 20.5104 14.9813C20.5104 9.07053 17.9453 3.75451 13.9304 0.0742188C12.8152 0.185743 11.7371 0.408791 10.7334 0.706189C14.1535 4.46083 16.2352 9.47943 16.2352 15.0185C16.2352 20.5575 14.1535 25.5389 10.7334 29.2935Z" fill="#1D3960"/>
<path d="M0.25 15.0189C0.25 20.1862 2.85223 24.7586 6.8671 27.4352C10.1757 24.3125 12.2575 19.8888 12.2575 15.0189C12.2575 10.1118 10.1757 5.68804 6.8671 2.60254C2.85223 5.27912 0.25 9.81444 0.25 15.0189Z" fill="#1D3960"/>
<mask id="mask0_60_216" style="mask-type:luminance" maskUnits="userSpaceOnUse" x="39" y="0" width="66" height="30">
<path d="M104.05 0H39.25V30H104.05V0Z" fill="white"/>
</mask>
<g mask="url(#mask0_60_216)">
<path d="M46.7088 9.89171C44.0118 9.89171 42.468 11.8447 42.468 14.7835C42.468 17.8153 44.2164 19.4707 46.7274 19.4707C49.0896 19.4707 50.5218 18.1687 50.5218 15.9925V15.9367H46.4112V13.8349H52.7352V21.4795H50.7264L50.5776 19.9171C49.8336 20.9587 48.2898 21.6841 46.4484 21.6841C42.6354 21.6841 39.9756 18.9127 39.9756 14.7277C39.9756 10.5985 42.6726 7.65971 46.7646 7.65971C49.8708 7.65971 52.2702 9.46391 52.6608 12.2353H50.1498C49.722 10.6357 48.3456 9.89171 46.7088 9.89171ZM60.7374 12.2539V14.3557H59.9004C58.2636 14.3557 57.2406 15.2299 57.2406 17.0155V21.4795H54.9714V12.3097H57.1104L57.2406 13.6489C57.6312 12.7375 58.5054 12.1237 59.733 12.1237C60.0492 12.1237 60.3654 12.1609 60.7374 12.2539ZM64.6443 21.7213C62.6913 21.7213 61.5009 20.5867 61.5009 18.8569C61.5009 17.1643 62.7285 16.1041 64.9047 15.9367L67.6575 15.7321V15.5275C67.6575 14.2813 66.9135 13.7791 65.7603 13.7791C64.4211 13.7791 63.6771 14.3371 63.6771 15.3043H61.7427C61.7427 13.3141 63.3795 12.0121 65.8719 12.0121C68.3457 12.0121 69.8709 13.3513 69.8709 15.8995V21.4795H67.8807L67.7133 20.1217C67.3227 21.0703 66.0765 21.7213 64.6443 21.7213ZM65.3883 20.0101C66.7833 20.0101 67.6761 19.1731 67.6761 17.7595V17.2759L65.7603 17.4247C64.3467 17.5549 63.8073 18.0199 63.8073 18.7639C63.8073 19.6009 64.3653 20.0101 65.3883 20.0101ZM72.1001 25.7389V12.2911H74.2019L74.3507 13.6861C74.9087 12.6259 76.1179 12.0121 77.5129 12.0121C80.0982 12.0121 81.8097 13.8907 81.8097 16.7737C81.8097 19.6381 80.2467 21.7213 77.5129 21.7213C76.1367 21.7213 74.9459 21.1819 74.3693 20.2519V25.7389H72.1001ZM74.3879 16.8853C74.3879 18.5407 75.4107 19.6753 76.9737 19.6753C78.5727 19.6753 79.5214 18.5221 79.5214 16.8853C79.5214 15.2485 78.5727 14.0767 76.9737 14.0767C75.4107 14.0767 74.3879 15.2299 74.3879 16.8853ZM85.8852 21.4795H83.6164V7.64111H85.9039V13.4815C86.4807 12.5887 87.5592 12.0121 88.8799 12.0121C91.1494 12.0121 92.3397 13.4443 92.3397 15.8251V21.4795H90.0702V16.3645C90.0702 14.8207 89.3074 14.0767 88.1547 14.0767C86.7222 14.0767 85.8852 15.0811 85.8852 16.4575V21.4795ZM94.0294 16.8667C94.0294 14.0023 96.0942 12.0307 98.9397 12.0307C101.786 12.0307 103.851 14.0023 103.851 16.8667C103.851 19.7311 101.786 21.7027 98.9397 21.7027C96.0942 21.7027 94.0294 19.7311 94.0294 16.8667ZM96.2989 16.8667C96.2989 18.5407 97.3774 19.6753 98.9397 19.6753C100.503 19.6753 101.581 18.5407 101.581 16.8667C101.581 15.1927 100.503 14.0581 98.9397 14.0581C97.3774 14.0581 96.2989 15.1927 96.2989 16.8667Z" fill="#1D3960"/>
</g>
</g>
<defs>
<clipPath id="clip0_60_216">
<rect width="104.25" height="30" fill="white" transform="translate(0.25)"/>
</clipPath>
</defs>
</svg>
