<svg width="116" height="30" viewBox="0 0 116 30" fill="none" xmlns="http://www.w3.org/2000/svg">
<g clip-path="url(#clip0_60_195)">
<path d="M5.90716 21.3858C5.90716 22.79 4.75823 23.939 3.35398 23.939C1.94972 23.939 0.800782 22.79 0.800781 21.3858V2.74753C0.800781 1.34327 1.94971 0.194336 3.35397 0.194336C4.75823 0.194336 5.90716 1.34327 5.90716 2.74753V21.3858Z" fill="#1D3960"/>
<path d="M14.204 27.4468C14.204 28.8511 13.0551 30 11.6508 30C10.2466 30 9.09766 28.8511 9.09766 27.4468V8.80857C9.09766 7.4043 10.2466 6.25537 11.6508 6.25537C13.0551 6.25537 14.204 7.4043 14.204 8.80857V27.4468Z" fill="#1D3960"/>
<path d="M22.502 21.3858C22.502 22.79 21.353 23.939 19.9487 23.939C18.5445 23.939 17.3955 22.79 17.3955 21.3858V2.74753C17.3955 1.34327 18.5445 0.194336 19.9487 0.194336C21.353 0.194336 22.502 1.34327 22.502 2.74753V21.3858Z" fill="#1D3960"/>
<path d="M30.8007 27.4469C30.8007 28.8512 29.6518 30.0001 28.2476 30.0001C26.8433 30.0001 25.6943 28.8512 25.6943 27.4469V9.40867C25.6943 8.00437 26.8433 6.85547 28.2476 6.85547C29.6518 6.85547 30.8007 8.00437 30.8007 9.40867V27.4469Z" fill="#1D3960"/>
<mask id="mask0_60_195" style="mask-type:luminance" maskUnits="userSpaceOnUse" x="39" y="0" width="77" height="30">
<path d="M116 0H39.7998V30H116V0Z" fill="white"/>
</mask>
<g mask="url(#mask0_60_195)">
<path d="M48.9754 18.6864V21.3H39.9268V7.43995H48.9754V10.0536H42.9958V13.1226H48.1834V15.6174H42.9958V18.6864H48.9754ZM54.2474 21.3H51.2576V10.9842H53.7722L54.0098 12.39C54.98 11.3406 56.1284 10.806 57.5342 10.806C58.8014 10.806 59.6528 11.1822 60.1874 11.895C60.3458 12.093 60.4646 12.291 60.5636 12.5286C61.5734 11.3604 62.7218 10.806 64.1474 10.806C65.4542 10.806 66.3254 11.1822 66.86 11.895C67.4144 12.6276 67.5728 13.479 67.5728 15.5778V21.3H64.6028V16.251C64.6028 15.063 64.5236 14.5482 64.2068 14.1324C63.8702 13.7364 63.4148 13.578 62.702 13.578C62.0486 13.578 61.4744 13.776 60.8804 14.271C60.92 14.6472 60.92 15.063 60.92 15.5778V21.3H57.9302V16.251C57.9302 15.063 57.8708 14.5482 57.5342 14.1324C57.2174 13.7364 56.762 13.578 56.0888 13.578C55.3562 13.578 54.683 13.8354 54.2474 14.2908V21.3ZM74.899 21.4584C74.1268 21.4584 73.2952 21.3198 72.5032 21.0228L70.2262 21.3V6.25195H73.216V12.3306C73.9486 11.3208 74.9386 10.7862 76.2848 10.7862C78.5821 10.7862 80.1263 12.5088 80.1263 15.7362C80.1263 19.419 78.0271 21.4584 74.899 21.4584ZM73.216 14.7858V18.7854C73.6714 18.9834 74.107 19.0626 74.5624 19.0626C76.0081 19.0626 77.0176 18.1122 77.0176 16.0332C77.0176 14.2908 76.2653 13.4394 75.1762 13.4394C74.305 13.4394 73.6714 13.9146 73.216 14.7858ZM85.0111 21.3H82.0208V6.25195H85.0111V21.3ZM92.5576 21.4584C88.7956 21.4584 86.9146 19.716 86.9146 16.1124C86.9146 12.6672 89.2508 10.7862 91.9238 10.7862C94.7558 10.7862 96.1216 12.489 96.1216 15.459C96.1216 16.0134 96.0818 16.5084 96.0428 17.0034H89.9641C90.2611 18.5478 91.3103 19.0824 93.2311 19.0824C94.0231 19.0824 94.8346 19.0032 95.5276 18.9042L95.3888 21.2604C94.6763 21.3792 93.7058 21.4584 92.5576 21.4584ZM91.8451 13.0038C90.8153 13.0038 90.0631 13.7364 89.9048 15.3798L93.2903 15.2016C93.2903 13.6968 92.8351 13.0038 91.8451 13.0038ZM101.118 21.3H98.1278V10.9842H100.643L100.88 12.39C101.85 11.3406 102.999 10.806 104.405 10.806C105.672 10.806 106.523 11.1822 107.058 11.895C107.216 12.093 107.335 12.291 107.434 12.5286C108.444 11.3604 109.592 10.806 111.018 10.806C112.325 10.806 113.196 11.1822 113.73 11.895C114.285 12.6276 114.443 13.479 114.443 15.5778V21.3H111.473V16.251C111.473 15.063 111.394 14.5482 111.077 14.1324C110.741 13.7364 110.285 13.578 109.572 13.578C108.919 13.578 108.345 13.776 107.751 14.271C107.79 14.6472 107.79 15.063 107.79 15.5778V21.3H104.801V16.251C104.801 15.063 104.741 14.5482 104.405 14.1324C104.088 13.7364 103.632 13.578 102.959 13.578C102.227 13.578 101.553 13.8354 101.118 14.2908V21.3Z" fill="#1D3960"/>
</g>
</g>
<defs>
<clipPath id="clip0_60_195">
<rect width="115.5" height="30" fill="white" transform="translate(0.5)"/>
</clipPath>
</defs>
</svg>
