<svg width="179" height="50" viewBox="0 0 179 50" fill="none" xmlns="http://www.w3.org/2000/svg">
<g clip-path="url(#clip0_156_851)">
<path fill-rule="evenodd" clip-rule="evenodd" d="M0.185185 28.2612C0 28.2612 0 28.2612 0 28.2612C3.92481 56.171 45.682 55.8965 50 28.2612C49.8148 28.2612 49.8148 28.2612 49.8148 28.2612C47.963 28.2612 46.2963 28.4464 44.4444 28.8168C39.9178 48.9808 9.84407 49.1483 5.74074 28.6316C3.88889 28.4464 2.03704 28.2612 0.185185 28.2612Z" fill="#1D3960"/>
<path fill-rule="evenodd" clip-rule="evenodd" d="M0 21.0389H0.185185C2.03704 21.0389 3.7037 20.8537 5.55556 20.4833C10.0437 0.490862 39.9069 0.0640202 44.0741 20.4833C45.7407 20.8537 47.5926 21.0389 49.4444 21.0389H49.6296C46.1194 -7.04303 3.90498 -6.72986 0 21.0389Z" fill="#1D3960"/>
<path fill-rule="evenodd" clip-rule="evenodd" d="M45.5564 24.5575C37.4083 23.4464 30.0009 19.1872 25.0009 12.5205C20.0009 19.1872 12.5935 23.4464 4.44531 24.5575C12.5935 25.6687 20.1861 30.1131 25.0009 36.7798C30.0009 30.1131 37.4083 25.6687 45.5564 24.5575Z" fill="#1D3960"/>
<mask id="mask0_156_851" style="mask-type:luminance" maskUnits="userSpaceOnUse" x="65" y="0" width="114" height="50">
<path d="M179 0H65V50H179V0Z" fill="white"/>
</mask>
<g mask="url(#mask0_156_851)">
<path d="M70.2609 36.5V15.56H75.2109V36.5H70.2609ZM65.4609 15.56H80.0109V19.61H65.4609V15.56ZM65.4609 32.45H80.0109V36.5H65.4609V32.45ZM92.5026 36.86C90.7426 36.86 89.2226 36.51 87.9426 35.81C86.6826 35.11 85.7126 34.11 85.0326 32.81C84.3726 31.51 84.0426 29.96 84.0426 28.16C84.0426 26.32 84.3926 24.75 85.0926 23.45C85.8126 22.15 86.8126 21.16 88.0926 20.48C89.3726 19.8 90.8826 19.46 92.6226 19.46C94.1426 19.46 95.4826 19.73 96.6426 20.27C97.8226 20.81 98.7526 21.57 99.4326 22.55C100.133 23.51 100.513 24.66 100.573 26H95.8926C95.7326 25.08 95.3726 24.4 94.8126 23.96C94.2726 23.5 93.5426 23.27 92.6226 23.27C91.8626 23.27 91.1826 23.46 90.5826 23.84C90.0026 24.22 89.5426 24.77 89.2026 25.49C88.8826 26.21 88.7226 27.1 88.7226 28.16C88.7226 29.74 89.0826 30.96 89.8026 31.82C90.5426 32.68 91.4426 33.11 92.5026 33.11C93.1226 33.11 93.6626 33 94.1226 32.78C94.6026 32.56 95.0026 32.25 95.3226 31.85C95.6426 31.43 95.8626 30.96 95.9826 30.44H100.663C100.543 31.74 100.123 32.87 99.4026 33.83C98.6826 34.79 97.7326 35.54 96.5526 36.08C95.3726 36.6 94.0226 36.86 92.5026 36.86ZM111.774 36.86C109.994 36.86 108.464 36.51 107.184 35.81C105.904 35.11 104.914 34.11 104.214 32.81C103.534 31.51 103.194 29.96 103.194 28.16C103.194 26.34 103.534 24.79 104.214 23.51C104.914 22.21 105.904 21.21 107.184 20.51C108.464 19.81 109.994 19.46 111.774 19.46C114.454 19.46 116.544 20.23 118.044 21.77C119.564 23.31 120.324 25.44 120.324 28.16C120.324 29.96 119.984 31.51 119.304 32.81C118.624 34.11 117.644 35.11 116.364 35.81C115.084 36.51 113.554 36.86 111.774 36.86ZM111.774 33.08C112.974 33.08 113.914 32.64 114.594 31.76C115.294 30.88 115.644 29.68 115.644 28.16C115.644 26.62 115.294 25.42 114.594 24.56C113.914 23.68 112.974 23.24 111.774 23.24C110.554 23.24 109.594 23.68 108.894 24.56C108.214 25.42 107.874 26.62 107.874 28.16C107.874 29.68 108.214 30.88 108.894 31.76C109.594 32.64 110.554 33.08 111.774 33.08ZM134.556 36.5V26.21C134.556 25.35 134.336 24.66 133.896 24.14C133.456 23.62 132.876 23.36 132.156 23.36C131.336 23.36 130.576 23.64 129.876 24.2C129.196 24.74 128.476 25.68 127.716 27.02L127.056 23.06C127.816 21.76 128.736 20.84 129.816 20.3C130.896 19.74 131.996 19.46 133.116 19.46C134.396 19.46 135.486 19.73 136.386 20.27C137.306 20.81 138.006 21.56 138.486 22.52C138.986 23.48 139.236 24.61 139.236 25.91V36.5H134.556ZM123.426 36.5V19.82H127.956L128.106 22.79V36.5H123.426ZM148.458 36.5V19.82H153.138V36.5H148.458ZM143.058 36.5V32.72H158.598V36.5H143.058ZM145.158 23.6V19.82H150.798V23.6H145.158ZM148.278 17.6V13.22H153.258V17.6H148.278ZM170.55 36.86C168.79 36.86 167.27 36.51 165.99 35.81C164.73 35.11 163.76 34.11 163.08 32.81C162.42 31.51 162.09 29.96 162.09 28.16C162.09 26.32 162.44 24.75 163.14 23.45C163.86 22.15 164.86 21.16 166.14 20.48C167.42 19.8 168.93 19.46 170.67 19.46C172.19 19.46 173.53 19.73 174.69 20.27C175.87 20.81 176.8 21.57 177.48 22.55C178.18 23.51 178.56 24.66 178.62 26H173.94C173.78 25.08 173.42 24.4 172.86 23.96C172.32 23.5 171.59 23.27 170.67 23.27C169.91 23.27 169.23 23.46 168.63 23.84C168.05 24.22 167.59 24.77 167.25 25.49C166.93 26.21 166.77 27.1 166.77 28.16C166.77 29.74 167.13 30.96 167.85 31.82C168.59 32.68 169.49 33.11 170.55 33.11C171.17 33.11 171.71 33 172.17 32.78C172.65 32.56 173.05 32.25 173.37 31.85C173.69 31.43 173.91 30.96 174.03 30.44H178.71C178.59 31.74 178.17 32.87 177.45 33.83C176.73 34.79 175.78 35.54 174.6 36.08C173.42 36.6 172.07 36.86 170.55 36.86Z" fill="#1D3960"/>
</g>
</g>
<defs>
<clipPath id="clip0_156_851">
<rect width="179" height="50" fill="white"/>
</clipPath>
</defs>
</svg>
