<svg width="143" height="30" viewBox="0 0 143 30" fill="none" xmlns="http://www.w3.org/2000/svg">
<g clip-path="url(#clip0_60_340)">
<path fill-rule="evenodd" clip-rule="evenodd" d="M9.74734 18.75V11.25V3.75L3.25977 7.5V15V22.5L9.74734 26.25L16.2246 30L22.7121 26.25L16.2246 22.5L9.74734 18.75Z" fill="#1D3960"/>
<path fill-rule="evenodd" clip-rule="evenodd" d="M16.2236 7.5V15L22.7112 18.75L29.1885 22.5V15L22.7112 11.25V3.75L16.2236 0V7.5Z" fill="#1D3960"/>
<mask id="mask0_60_340" style="mask-type:luminance" maskUnits="userSpaceOnUse" x="39" y="0" width="104" height="30">
<path d="M142.459 0H39.8594V30H142.459V0Z" fill="white"/>
</mask>
<g mask="url(#mask0_60_340)">
<path d="M43.3327 20.3394H56.7427V22.2294H41.1367V9.95335H43.3327V20.3394ZM58.0209 17.7114C58.0209 14.4354 60.4689 12.9774 65.7069 12.9774C70.9629 12.9774 73.3929 14.4354 73.3929 17.7114C73.3929 20.9874 70.9629 22.4454 65.7069 22.4454C60.4689 22.4454 58.0209 20.9874 58.0209 17.7114ZM60.0729 17.7114C60.0729 19.8354 61.5129 20.6814 65.7069 20.6814C69.9009 20.6814 71.3409 19.8354 71.3409 17.7114C71.3409 15.6054 69.9009 14.7414 65.7069 14.7414C61.5129 14.7414 60.0729 15.6054 60.0729 17.7114ZM89.3062 13.6614V20.8254C89.3062 24.3894 87.0922 25.7034 81.9442 25.7034C80.0182 25.7034 77.4802 25.4154 75.6258 24.8754L76.0942 23.2734C77.8582 23.7414 79.8922 24.0654 82.0522 24.0654C86.1202 24.0654 87.3982 23.1294 87.3262 20.8434L87.2902 20.4114C85.4182 21.1854 83.1502 21.7794 80.7922 21.7794C77.1202 21.7794 75.2298 20.5014 75.2298 17.4594C75.2298 14.1294 77.9302 13.0314 82.0702 13.0314C84.8602 13.0314 87.4162 13.3554 89.3062 13.6614ZM77.2822 17.4414C77.2822 19.3674 78.3982 20.1594 80.9542 20.1594C83.0242 20.1594 85.1662 19.7274 87.2362 19.0254V15.1014C85.6342 14.8854 83.5635 14.7234 81.8002 14.7234C78.9742 14.7234 77.2822 15.4254 77.2822 17.4414ZM93.7432 9.48535V11.9154H91.6912V9.48535H93.7432ZM91.6912 22.2294V13.2114H93.7432V22.2294H91.6912ZM109.941 13.6614V25.4694H107.889V20.7534C105.981 21.6354 103.677 22.4094 101.283 22.4094C97.863 22.4094 95.937 21.0414 95.937 17.8014C95.937 14.2014 98.619 13.0314 102.651 13.0314C105.441 13.0314 108.051 13.3374 109.941 13.6614ZM97.989 17.7114C97.989 19.8354 99.105 20.6814 101.661 20.6814C103.731 20.6814 105.819 20.0874 107.889 19.3134V15.1014C106.287 14.8854 104.199 14.7234 102.435 14.7234C99.609 14.7234 97.989 15.5154 97.989 17.7114ZM112.166 18.1254V13.2114H114.218V17.8554C114.218 19.6734 115.334 20.6994 118.07 20.6994C119.582 20.6994 121.652 20.2674 123.866 19.5294V13.2114H125.918V22.2294H124.136L123.956 20.9334C122.03 21.7434 119.708 22.4454 117.422 22.4454C114.11 22.4454 112.166 21.2214 112.166 18.1254ZM135.541 20.7894C138.169 20.7894 140.383 20.3934 141.301 20.1954L141.733 21.7434C140.203 22.1394 137.683 22.4454 135.379 22.4454C130.447 22.4454 128.035 21.2034 128.035 17.7114C128.035 14.2914 130.645 12.9954 135.091 12.9954C139.177 12.9954 142.057 14.0394 142.057 17.2434C142.057 17.5494 142.021 18.0534 141.985 18.2514H130.051C130.303 20.3034 131.977 20.7894 135.541 20.7894ZM135.019 14.4534C131.815 14.4534 130.267 15.1014 130.051 17.0814H140.041C139.879 15.2994 138.709 14.4534 135.019 14.4534Z" fill="#1D3960"/>
</g>
</g>
<defs>
<clipPath id="clip0_60_340">
<rect width="141.75" height="30" fill="white" transform="translate(0.859375)"/>
</clipPath>
</defs>
</svg>
