<svg width="171" height="50" viewBox="0 0 171 50" fill="none" xmlns="http://www.w3.org/2000/svg">
<g clip-path="url(#clip0_156_928)">
<path opacity="0.5" d="M24 41.9314C21.6974 45.578 17.6315 48 13 48C5.8203 48 0 42.1797 0 35C0 27.8203 5.8203 22 13 22C17.7611 22 21.752 24.6222 24 28.3066C21.4353 32.5327 21.2482 37.8809 24 41.9314Z" fill="#1D3960"/>
<path opacity="0.8" d="M36.9841 22C41.2968 22.0203 45.5054 24.1849 47.9597 28.1126C51.7644 34.2014 49.9128 42.2216 43.8241 46.0262C37.7353 49.8309 29.7151 47.9793 25.9105 41.8905C23.3875 37.8529 23.4964 33.0789 25.4297 29.22C30.3727 29.1555 35.0073 26.4801 36.9841 22Z" fill="#1D3960"/>
<path d="M13.3879 19.8398C11.4299 15.9971 11.4255 11.2646 13.7922 7.28334C17.4608 1.11172 25.438 -0.9173 31.6096 2.75139C37.7812 6.42008 39.8102 14.3972 36.1416 20.5688C33.7087 24.6614 29.4154 26.7521 25.0997 26.8018C22.7774 22.4377 18.2758 19.5441 13.3879 19.8398Z" fill="#1D3960"/>
<mask id="mask0_156_928" style="mask-type:luminance" maskUnits="userSpaceOnUse" x="65" y="0" width="106" height="50">
<path d="M171 0H65V50H171V0Z" fill="white"/>
</mask>
<g mask="url(#mask0_156_928)">
<path d="M78.7841 16.799V13.4H88.7501V16.799L86.5391 17.03L79.3781 36.5H73.7681L66.4751 17.03L64.3301 16.799V13.4H74.5931V16.799L72.1181 17.063L76.7381 31.121L81.3251 17.096L78.7841 16.799ZM102.968 35.51C101.483 36.236 98.9422 36.896 96.5662 36.896C91.1542 36.896 87.6232 33.365 87.6232 27.92C87.6232 22.211 91.3522 18.911 96.2692 18.911C102.308 18.911 104.255 23.729 103.265 28.646C101.351 29.24 96.1042 29.306 92.9692 29.174C93.4312 32.045 95.3122 32.903 97.5232 32.903C99.0742 32.903 100.955 32.54 102.308 32.111L102.968 35.51ZM96.1702 22.541C94.8172 22.541 93.2992 23.399 92.9032 26.138L98.5462 26.072C98.8102 24.29 98.1502 22.541 96.1702 22.541ZM120.475 36.038C118.957 36.533 116.878 36.896 115.096 36.896C109.321 36.896 106.186 33.332 106.186 28.052C106.186 22.64 109.42 18.911 115.096 18.911C116.746 18.911 118.528 19.175 120.244 19.868L120.046 25.874H116.812L116.614 22.871C116.317 22.805 115.987 22.772 115.756 22.772C112.951 22.772 111.796 24.752 111.796 27.854C111.796 30.956 113.116 33.002 116.317 33.002C117.373 33.002 118.627 32.771 119.914 32.441L120.475 36.038ZM135.08 36.071C134.024 36.401 132.506 36.896 130.724 36.896C127.325 36.896 124.949 35.246 124.949 30.098V23.069H122.606V19.736L125.081 19.637L125.675 15.215L130.295 14.291V19.439L134.816 19.274V23.069H130.295V29.801C130.295 31.616 130.757 32.606 132.77 32.606C133.298 32.606 133.991 32.54 134.684 32.441L135.08 36.071ZM148.599 33.167V36.5H137.148V33.167L139.689 32.903V23.63H137.148V20.297L144.771 18.911V21.749C146.322 19.835 148.632 18.878 150.777 18.911L150.612 23.762C148.335 23.762 146.487 24.026 145.002 24.554V32.87L148.599 33.167ZM169.816 33.167V36.5H163.084L162.688 35.18C161.104 36.236 159.454 36.896 157.573 36.896C154.537 36.896 152.392 35.081 152.392 32.177C152.392 28.844 155.098 27.161 160.411 26.963L162.061 26.897C162.028 26.501 162.028 26.138 161.962 25.808C161.731 23.993 160.939 23.102 158.959 23.102C158.86 23.102 158.761 23.135 158.629 23.135C158.167 23.168 157.672 23.234 157.078 23.333L156.88 25.412H153.877L153.613 20.165C156.253 19.34 158.2 18.911 160.51 18.911C165.262 18.911 167.044 20.759 167.242 25.247C167.242 25.577 167.275 25.907 167.275 26.303V32.903L169.816 33.167ZM159.586 33.53C160.411 33.53 161.335 33.266 162.061 32.936V29.768H160.213C158.167 29.834 157.375 30.56 157.375 31.748C157.375 32.903 158.167 33.53 159.586 33.53Z" fill="#1D3960"/>
</g>
</g>
<defs>
<clipPath id="clip0_156_928">
<rect width="171" height="50" fill="white"/>
</clipPath>
</defs>
</svg>
