<svg width="186" height="50" viewBox="0 0 186 50" fill="none" xmlns="http://www.w3.org/2000/svg">
<g clip-path="url(#clip0_156_802)">
<path d="M25.0004 50C38.8075 50 50.0004 38.8071 50.0004 25C50.0004 18.7876 47.7344 13.1045 43.984 8.73206L8.73242 43.9836C13.1049 47.7341 18.788 50 25.0004 50Z" fill="#1D3960"/>
<path d="M41.2636 6.01271C36.8917 2.26445 31.2103 0 25 0C11.1929 0 0 11.1929 0 25C0 31.2103 2.26445 36.8917 6.0127 41.2636L41.2636 6.01271Z" fill="#1D3960"/>
<mask id="mask0_156_802" style="mask-type:luminance" maskUnits="userSpaceOnUse" x="65" y="0" width="121" height="50">
<path d="M186 0H65V50H186V0Z" fill="white"/>
</mask>
<g mask="url(#mask0_156_802)">
<path d="M71.0325 36.75H65.1445L74.1045 14.35H79.3205L88.4405 36.75H82.2005L80.9205 33.454H72.3125L71.0325 36.75ZM74.0405 28.814H79.2245L76.6325 21.294L74.0405 28.814ZM95.6635 20.59L96.0795 23.918C97.4555 22.286 99.4395 21.102 101.2 20.59L101.68 26.03C99.6635 26.062 97.8395 26.542 96.3355 27.598V36.75H91.1195V26.862L90.4475 21.07L95.6635 20.59ZM105.44 30.734V25.23H103.264V20.75H105.568L105.92 16.846L110.656 16.398V20.75H115.328L114.848 25.23H110.656V30.254C110.656 31.63 111.232 32.27 112.224 32.27C112.8 32.27 113.632 32.11 114.496 31.598L116.288 35.726C114.912 36.622 113.216 37.07 111.392 37.07C107.84 37.07 105.44 35.15 105.44 30.734ZM121.398 19.118C119.734 19.118 118.39 17.742 118.39 16.078C118.39 14.414 119.734 13.07 121.398 13.07C123.094 13.07 124.438 14.414 124.438 16.078C124.438 17.742 123.094 19.118 121.398 19.118ZM124.022 20.59V36.75H118.806V21.07L124.022 20.59ZM133.876 26.094L136.02 26.606C139.06 27.342 140.628 28.91 140.628 31.662C140.628 34.894 138.26 37.07 133.94 37.07C131.444 37.07 129.012 36.462 126.996 35.278L128.692 31.502C130.484 32.398 132.212 32.91 133.78 32.91C134.836 32.91 135.348 32.654 135.348 32.078C135.348 31.566 135.124 31.406 134.228 31.182L132.084 30.67C129.012 29.934 127.476 28.398 127.476 25.838C127.476 22.606 129.812 20.43 134.004 20.43C136.436 20.43 138.58 21.102 140.468 22.222L138.772 25.998C137.108 25.038 135.668 24.59 134.132 24.59C133.204 24.59 132.756 24.814 132.756 25.262C132.756 25.71 133.012 25.902 133.876 26.094ZM144.065 30.734V25.23H141.889V20.75H144.193L144.545 16.846L149.281 16.398V20.75H153.953L153.473 25.23H149.281V30.254C149.281 31.63 149.857 32.27 150.849 32.27C151.425 32.27 152.257 32.11 153.121 31.598L154.913 35.726C153.537 36.622 151.841 37.07 150.017 37.07C146.465 37.07 144.065 35.15 144.065 30.734ZM162.007 20.59L162.423 23.918C163.799 22.286 165.783 21.102 167.543 20.59L168.023 26.03C166.007 26.062 164.183 26.542 162.679 27.598V36.75H157.463V26.862L156.791 21.07L162.007 20.59ZM169.91 39.31C172.47 39.31 173.782 38.702 174.358 37.294L174.486 36.942L168.438 20.75H174.038L177.014 30.318L180.118 20.75H185.526L181.334 31.982L179.35 37.294C177.718 41.71 175.318 43.726 171.19 44.11L169.91 39.31Z" fill="#1D3960"/>
</g>
</g>
<defs>
<clipPath id="clip0_156_802">
<rect width="186" height="50" fill="white"/>
</clipPath>
</defs>
</svg>
