<svg width="123" height="30" viewBox="0 0 123 30" fill="none" xmlns="http://www.w3.org/2000/svg">
<g clip-path="url(#clip0_60_359)">
<path opacity="0.4" d="M4.14976 14.6396V30.0002H0V17.9567L4.14976 14.6396Z" fill="#1D3960"/>
<path d="M4.15039 14.6396V30.0002H8.30014V17.2097L4.15039 14.6396Z" fill="#1D3960"/>
<path opacity="0.5" d="M12.326 8.36523V29.9996H6.79297V12.9444L12.326 8.36523Z" fill="#1D3960"/>
<path d="M12.3262 8.36523V29.9996H17.8592V11.7919L12.3262 8.36523Z" fill="#1D3960"/>
<path opacity="0.6" d="M22.5462 0V30H15.0928V6.85118L22.5462 0Z" fill="#1D3960"/>
<path d="M22.5469 0V30H30.0002V6.85118L22.5469 0Z" fill="#1D3960"/>
<mask id="mask0_60_359" style="mask-type:luminance" maskUnits="userSpaceOnUse" x="39" y="0" width="84" height="30">
<path d="M123 0H39V30H123V0Z" fill="white"/>
</mask>
<g mask="url(#mask0_60_359)">
<path d="M39.249 21.69V8.38435H41.2458V21.69H39.249ZM46.2815 21.69H44.3615V11.3796H46.0895V12.4548L47.1647 11.3796H50.9855L51.8111 12.2244L52.6367 11.3796H57.0143L58.3583 12.7044V21.69H56.4383V13.1844H52.3679V21.69H50.4479V13.1844H47.2031L46.2815 14.01V21.69ZM63.119 25.5876H61.199V11.3796H62.927V12.4548L64.0022 11.3796H67.9382L69.2822 12.7044V20.346L67.9382 21.69H63.119V25.5876ZM67.3622 13.1844H64.0406L63.119 14.01V19.9236H67.3622V13.1844ZM74.0315 21.69H72.1115V11.3796H73.8395V12.6852L75.1643 11.3796H77.5448V13.2228H75.1261L74.0315 14.2596V21.69ZM81.0833 9.51715H79.0861V7.71235H81.0833V9.51715ZM81.0451 21.69H79.1251V11.3796H81.0451V21.69ZM85.8436 21.69H83.9236V11.3796H85.6516V12.4548L86.7271 11.3796H90.8356L92.1796 12.7044V21.69H90.2408V13.1844H86.7654L85.8436 14.01V21.69ZM100.151 21.69H96.7133L95.3694 20.346V12.9732H93.9488V11.3796H95.3694V9.28675H97.2893V11.3796H99.9391V12.9732H97.2893V19.8852H100.151V21.69ZM104.052 9.51715H102.055V7.71235H104.052V9.51715ZM104.014 21.69H102.094V11.3796H104.014V21.69ZM109.676 21.69H107.756V12.9732H106.086V11.3796H107.756V8.86435L109.1 7.53955H112.288V9.13315H109.676V11.3796H112.096V12.9732H109.676V21.69ZM113.89 22.3428H115.752V23.9172H120.072V21.1332H115.08L113.755 19.8084V11.3796H115.675V19.4436H120.072V11.3796H121.992V24.2628L120.629 25.5876H115.253L113.89 24.2628V22.3428Z" fill="#1D3960"/>
</g>
</g>
<defs>
<clipPath id="clip0_60_359">
<rect width="123" height="30" fill="white"/>
</clipPath>
</defs>
</svg>
