<svg width="189" height="50" viewBox="0 0 189 50" fill="none" xmlns="http://www.w3.org/2000/svg">
<g clip-path="url(#clip0_156_860)">
<path d="M17.5 12C17.5 10.8954 18.3954 10 19.5 10H30.5C31.6046 10 32.5 10.8954 32.5 12V38C32.5 39.1046 31.6046 40 30.5 40H19.5C18.3954 40 17.5 39.1046 17.5 38V12Z" fill="#1D3960"/>
<path fill-rule="evenodd" clip-rule="evenodd" d="M5 0H45C47.7614 0 50 2.23858 50 5V45C50 47.7614 47.7614 50 45 50H5C2.23858 50 0 47.7614 0 45V5C0 2.23858 2.23858 0 5 0ZM25 47C37.1503 47 47 37.1503 47 25C47 12.8497 37.1503 3 25 3C12.8497 3 3 12.8497 3 25C3 37.1503 12.8497 47 25 47Z" fill="#1D3960"/>
<mask id="mask0_156_860" style="mask-type:luminance" maskUnits="userSpaceOnUse" x="65" y="0" width="124" height="50">
<path d="M189 0H65V50H189V0Z" fill="white"/>
</mask>
<g mask="url(#mask0_156_860)">
<path d="M79.0205 36.3H64.9805V32.43H69.6005V17.67H64.9805V13.8H79.0205V17.67H74.4005V32.43H79.0205V36.3ZM89.9888 32.55C92.1188 32.55 94.4588 32.04 96.0488 31.38L97.0088 35.4C94.5488 36.33 92.5688 36.75 89.9888 36.75C85.4288 36.75 82.9688 34.53 82.9688 30.45V19.65C82.9688 15.57 85.4288 13.35 89.9888 13.35C92.5688 13.35 94.5488 13.77 97.0088 14.7L96.0488 18.72C94.4588 18.06 92.1188 17.55 89.9888 17.55C88.3088 17.55 87.7688 18.21 87.7688 20.22V29.88C87.7688 31.89 88.3088 32.55 89.9888 32.55ZM107.977 36.75C103.417 36.75 100.957 34.53 100.957 30.45V19.65C100.957 15.57 103.417 13.35 107.977 13.35C112.537 13.35 114.997 15.57 114.997 19.65V30.45C114.997 34.53 112.537 36.75 107.977 36.75ZM107.977 17.55C106.297 17.55 105.757 18.21 105.757 20.22V29.88C105.757 31.89 106.297 32.55 107.977 32.55C109.657 32.55 110.197 31.89 110.197 29.88V20.22C110.197 18.21 109.657 17.55 107.977 17.55ZM128.635 36.3L123.385 23.13L123.595 36.3H119.395V13.8H123.295L128.545 26.97L128.335 13.8H132.535V36.3H128.635ZM150.973 36.3H136.933V32.43H141.553V17.67H136.933V13.8H150.973V17.67H146.353V32.43H150.973V36.3ZM168.361 32.13V36.3H155.521V32.55L163.261 17.97H155.521V13.8H168.361V17.55L160.621 32.13H168.361ZM173.81 36.3V13.8H186.05V17.67H178.61V22.5H185.75V26.37H178.61V32.43H186.05V36.3H173.81Z" fill="#1D3960"/>
</g>
</g>
<defs>
<clipPath id="clip0_156_860">
<rect width="189" height="50" fill="white"/>
</clipPath>
</defs>
</svg>
