<svg width="95" height="30" viewBox="0 0 95 30" fill="none" xmlns="http://www.w3.org/2000/svg">
<g clip-path="url(#clip0_60_348)">
<path d="M19.8249 8.32C24.9597 8.35542 29.1882 12.6509 29.1173 17.7621C29.0503 22.8536 24.8376 27.0191 19.75 27.0309C14.6427 27.0427 10.3788 22.7433 10.4143 17.6242C10.4498 12.4539 14.6664 8.28847 19.8249 8.32ZM26.8789 17.6833C26.8868 13.711 23.6711 10.4874 19.7185 10.5032C15.8408 10.5189 12.6487 13.7228 12.6093 17.64C12.5659 21.5059 15.8053 24.7807 19.6751 24.7925C23.6908 24.8083 26.871 21.6714 26.8789 17.6833Z" fill="#1D3960"/>
<path d="M11.6791 29.3719C6.79254 28.7059 1.97294 22.7592 1.25178 16.5091C0.506966 10.0344 4.62904 3.44147 10.9186 1.05335C17.0307 -1.26777 24.4827 0.801142 27.9388 5.89265C24.3882 2.62179 20.2622 1.02577 15.4544 1.70359C10.6309 2.3814 7.01322 4.94686 4.69604 9.21869C2.68623 12.923 2.44584 16.8323 3.80542 20.8125C4.95613 24.1583 6.37481 25.6636 11.6791 29.3719Z" fill="#1D3960"/>
<path d="M13.8511 28.536C8.53111 27.3892 4.42872 21.9903 4.26321 16.2959C4.08982 10.3965 8.10942 4.9464 13.8197 3.33067C19.0491 1.85287 25.4253 3.98878 27.6636 8.04777C24.7081 5.29713 21.252 3.91784 17.2245 4.37892C13.1576 4.84393 10.0247 6.89315 7.8651 10.3611C4.57453 15.6457 5.40604 24.3272 13.8511 28.536Z" fill="#1D3960"/>
<path d="M27.4468 10.1167C21.5041 4.84395 14.3042 7.05868 11.2343 11.3344C9.24027 14.1166 8.66098 17.1787 9.52403 20.4613C10.3752 23.6888 12.4875 25.9351 15.7386 27.5508C11.325 26.7784 7.77035 22.4041 7.35657 17.6161C6.9349 12.694 10.1349 7.85078 14.9111 6.18776C19.51 4.58386 24.901 6.25082 27.4468 10.1167Z" fill="#1D3960"/>
<path d="M19.7656 21.2417C21.7353 21.2417 23.3321 19.645 23.3321 17.6753C23.3321 15.7056 21.7353 14.1089 19.7656 14.1089C17.796 14.1089 16.1992 15.7056 16.1992 17.6753C16.1992 19.645 17.796 21.2417 19.7656 21.2417Z" fill="#1D3960"/>
<mask id="mask0_60_348" style="mask-type:luminance" maskUnits="userSpaceOnUse" x="39" y="0" width="56" height="30">
<path d="M95.0004 0H39.3906V29.2683H95.0004V0Z" fill="white"/>
</mask>
<g mask="url(#mask0_60_348)">
<path d="M45.0794 21.0672C41.2382 21.0672 39.5664 19.2958 39.5664 16.7284V16.3901H41.6761V16.609C41.6761 18.2609 42.3727 19.0968 45.159 19.0968C47.1293 19.0968 47.8458 18.5594 47.8458 17.3255C47.8458 16.1114 47.4478 15.6736 45.3978 15.2556L43.1289 14.7979C40.8402 14.36 39.6062 13.2455 39.6062 11.1358C39.6062 9.1655 41.1387 7.33447 44.5818 7.33447C48.2638 7.33447 49.7366 9.40433 49.7366 11.7727V12.0115H47.6269V11.7926C47.6269 10.1606 46.9104 9.30481 44.5221 9.30481C42.5518 9.30481 41.7557 9.86208 41.7557 11.0363C41.7557 12.2504 42.293 12.5887 44.1241 12.9868L46.3929 13.4644C48.9007 13.9819 49.9953 15.2357 49.9953 17.2459C49.9953 19.3356 48.4827 21.0672 45.0794 21.0672ZM53.6477 9.72277H51.5181L51.4982 7.5335H53.6477V9.72277ZM53.6676 20.8681H51.5181V10.9169H53.6676V20.8681ZM59.3854 19.9327C56.6587 19.9327 55.1461 18.1415 55.1461 15.3552C55.1461 12.5688 56.6786 10.7776 59.465 10.7776C61.0572 10.7776 62.2911 11.4543 62.7688 12.6086H62.8484V10.9766H64.8187V20.1516C64.8187 23.0773 63.1071 24.4506 60.2213 24.4506C57.415 24.4506 55.6636 23.1171 55.6636 20.7288H57.7932C57.7932 22.0822 58.2907 22.5399 60.281 22.5399C62.2115 22.5399 62.6892 21.9827 62.6892 20.1516V18.1813H62.6096C62.1518 19.1366 60.9975 19.9327 59.3854 19.9327ZM57.2956 15.3552C57.2956 17.3852 58.1315 18.1017 60.0023 18.1017C61.6144 18.1017 62.6892 17.3255 62.6892 15.6537V15.0367C62.6892 13.3848 61.6144 12.6086 59.9625 12.6086C58.1116 12.6086 57.2956 13.3251 57.2956 15.3552ZM69.0831 20.8681H66.9337V10.9766H68.904V12.8275H68.9836C69.4414 11.7727 70.4962 10.7776 72.4267 10.7776C74.9943 10.7776 76.1482 12.4096 76.1482 14.6586V20.8681H73.9992V15.1362C73.9992 13.3649 73.4417 12.6285 71.6306 12.6285C69.8792 12.6285 69.0831 13.3052 69.0831 15.1561V20.8681ZM82.566 21.0672C79.3018 21.0672 77.7696 18.9973 77.7696 15.9124C77.7696 12.8474 79.6004 10.7776 82.5462 10.7776C85.2133 10.7776 87.0843 12.3698 87.0843 15.0765C87.0843 15.594 87.0243 16.1314 86.9643 16.4299H79.7797C79.8594 18.241 80.5165 19.1565 82.5857 19.1565C84.2379 19.1565 84.8745 18.5993 84.8745 17.7036V17.5444H87.0045V17.7235C87.0045 19.7536 85.2331 21.0672 82.566 21.0672ZM82.5067 12.5887C80.6358 12.5887 79.9194 13.4644 79.7994 14.9969H85.034C85.1138 13.3052 84.1984 12.5887 82.5067 12.5887ZM92.8414 20.8681C90.6323 20.8681 89.4784 20.0521 89.4784 17.8231V12.7678H87.8262V10.9766H89.5179L89.976 8.52862H91.6275V10.9766H94.6128V12.7678H91.6275V17.7235C91.6275 18.7585 92.0657 18.9376 93.3989 18.9376H94.6128V20.689C94.195 20.7885 93.5182 20.8681 92.8414 20.8681Z" fill="#1D3960"/>
</g>
</g>
<defs>
<clipPath id="clip0_60_348">
<rect width="94.3902" height="30" fill="white" transform="translate(0.609375)"/>
</clipPath>
</defs>
</svg>
