<svg width="226" height="50" viewBox="0 0 226 50" fill="none" xmlns="http://www.w3.org/2000/svg">
<g clip-path="url(#clip0_156_784)">
<path d="M49.8668 12.0624C50.4931 9.60555 49.0091 7.10612 46.5522 6.47984C44.0952 5.85357 41.5958 7.3376 40.9695 9.79453C40.3433 12.2514 41.8273 14.7509 44.2842 15.3771C46.7411 16.0034 49.2406 14.5194 49.8668 12.0624Z" fill="#1D3960"/>
<path d="M34.4477 7.94628C38.6903 2.65222 31.2517 -2.66888 27.3643 2.18078C27.1462 2.39939 1.93819 33.466 1.76759 33.7248C-2.71173 39.3138 4.4143 45.0253 8.85096 39.4903C9.06888 39.2715 34.2771 8.20482 34.4477 7.94628Z" fill="#1D3960"/>
<path d="M40.0007 24.8616C44.0722 19.7814 36.9464 14.0701 32.9194 19.0942C32.6994 19.3142 15.5752 40.4938 15.4032 40.7547C11.3049 46.0625 18.4307 51.7737 22.4845 46.522C22.7045 46.302 39.829 25.1224 40.0007 24.8616Z" fill="#1D3960"/>
<path d="M8.55664 15.214C10.9263 14.3124 12.1164 11.6605 11.2148 9.29074C10.3132 6.92104 7.66124 5.73093 5.29154 6.63257C2.92183 7.5342 1.73173 10.1862 2.63336 12.5559C3.53499 14.9256 6.18694 16.1157 8.55664 15.214Z" fill="#1D3960"/>
<mask id="mask0_156_784" style="mask-type:luminance" maskUnits="userSpaceOnUse" x="65" y="0" width="161" height="50">
<path d="M226 0H65V50H226V0Z" fill="white"/>
</mask>
<g mask="url(#mask0_156_784)">
<path d="M71.8961 36.85L65.0801 13.938H67.4801L72.1201 29.682C72.4401 30.802 72.7281 31.954 73.0161 33.458C73.4001 31.794 73.7201 30.802 74.0721 29.682L79.0641 13.938H81.4641L86.4561 29.682C86.8081 30.834 87.1281 31.986 87.4801 33.458C87.8321 31.698 88.1201 30.578 88.3761 29.714L93.1121 13.938H95.4481L88.5681 36.85H86.3921L80.2481 17.394L74.1041 36.85H71.8961ZM96.4779 36.85H94.1419L102.557 13.938H105.405L113.917 36.85H111.517L109.277 30.77H98.7179L96.4779 36.85ZM103.677 17.17L99.4219 28.754H108.541L104.253 17.17C104.157 16.85 103.997 16.466 103.965 16.242C103.933 16.434 103.805 16.85 103.677 17.17ZM120.227 27.282L112.451 13.938H115.043L120.707 23.826C120.963 24.306 121.155 24.69 121.379 25.202C121.667 24.626 121.667 24.626 122.083 23.826L127.683 13.938H130.211L122.531 27.282V36.85H120.227V27.282ZM137.225 13.458V33.074H147.017V36.85H133.129V13.458H137.225ZM154.444 13.458V36.85H150.348V13.458H154.444ZM163.661 36.85H159.629V13.458H163.693L174.669 30.034V13.458H178.701V36.85H174.669L163.661 20.274V36.85ZM198.407 36.85H183.879V13.458H198.407V17.234H187.975V23.25H197.319V26.866H187.975V33.074H198.407V36.85Z" fill="#1D3960"/>
</g>
</g>
<defs>
<clipPath id="clip0_156_784">
<rect width="226" height="50" fill="white"/>
</clipPath>
</defs>
</svg>
