<svg width="192" height="50" viewBox="0 0 192 50" fill="none" xmlns="http://www.w3.org/2000/svg">
<g clip-path="url(#clip0_156_888)">
<path fill-rule="evenodd" clip-rule="evenodd" d="M36.6795 50L50 0L0 13.3205L11.1973 24.5177L39.3826 10.6179L25.2899 38.6102L36.6795 50Z" fill="#1D3960"/>
<path opacity="0.5" fill-rule="evenodd" clip-rule="evenodd" d="M39.3826 10.6179L25.2899 38.6102H11.1973V24.5175L39.3826 10.6179Z" fill="#1D3960"/>
<mask id="mask0_156_888" style="mask-type:luminance" maskUnits="userSpaceOnUse" x="65" y="0" width="127" height="50">
<path d="M192 0H65V50H192V0Z" fill="white"/>
</mask>
<g mask="url(#mask0_156_888)">
<path d="M76.3193 36.684C74.762 36.684 73.3113 36.4067 71.9673 35.852C70.6446 35.276 69.482 34.4867 68.4793 33.484C67.4766 32.4813 66.6873 31.308 66.1113 29.964C65.5566 28.5987 65.2793 27.1267 65.2793 25.548C65.2793 23.9907 65.5566 22.5507 66.1113 21.228C66.6873 19.884 67.4766 18.7107 68.4793 17.708C69.482 16.7053 70.6446 15.9267 71.9673 15.372C73.3113 14.796 74.762 14.508 76.3193 14.508C77.8766 14.508 79.3166 14.796 80.6393 15.372C81.962 15.9267 83.1246 16.7053 84.1273 17.708C85.13 18.7107 85.9086 19.884 86.4633 21.228C87.018 22.5507 87.2953 23.9907 87.2953 25.548C87.2953 27.1267 87.018 28.5987 86.4633 29.964C85.9086 31.308 85.13 32.4813 84.1273 33.484C83.1246 34.4867 81.962 35.276 80.6393 35.852C79.3166 36.4067 77.8766 36.684 76.3193 36.684ZM76.3193 33.58C77.3646 33.58 78.346 33.3773 79.2633 32.972C80.202 32.5453 81.0233 31.9693 81.7273 31.244C82.4313 30.5187 82.9753 29.676 83.3593 28.716C83.7433 27.7347 83.9353 26.6787 83.9353 25.548C83.9353 24.4387 83.7433 23.404 83.3593 22.444C82.9753 21.484 82.4313 20.6413 81.7273 19.916C81.0233 19.1907 80.2126 18.6253 79.2953 18.22C78.378 17.8147 77.386 17.612 76.3193 17.612C75.2526 17.612 74.25 17.8147 73.3113 18.22C72.3726 18.6253 71.5513 19.1907 70.8473 19.916C70.1646 20.6413 69.6206 21.484 69.2153 22.444C68.8313 23.404 68.6393 24.4387 68.6393 25.548C68.6393 26.6787 68.8313 27.7347 69.2153 28.716C69.6206 29.676 70.1646 30.5187 70.8473 31.244C71.5513 31.9693 72.3726 32.5453 73.3113 32.972C74.25 33.3773 75.2526 33.58 76.3193 33.58ZM94.0331 43.5H90.8651V28.428C90.8651 26.8707 91.2277 25.4733 91.9531 24.236C92.6997 22.9987 93.7024 22.028 94.9611 21.324C96.2197 20.5987 97.6384 20.236 99.2171 20.236C100.795 20.236 102.214 20.6093 103.473 21.356C104.731 22.0813 105.723 23.0733 106.449 24.332C107.174 25.5693 107.537 26.9347 107.537 28.428C107.537 30.0067 107.185 31.4253 106.481 32.684C105.777 33.9213 104.806 34.9027 103.569 35.628C102.353 36.332 100.945 36.684 99.3451 36.684C98.0864 36.684 96.9237 36.3853 95.8571 35.788C94.8117 35.1907 93.9691 34.412 93.3291 33.452C92.7104 32.4707 92.4011 31.404 92.4011 30.252L94.0331 31.084V43.5ZM99.2171 33.708C100.198 33.708 101.073 33.4733 101.841 33.004C102.63 32.5133 103.249 31.8733 103.697 31.084C104.145 30.2733 104.369 29.3987 104.369 28.46C104.369 27.5 104.145 26.6253 103.697 25.836C103.249 25.0467 102.63 24.4173 101.841 23.948C101.073 23.4787 100.198 23.244 99.2171 23.244C98.2357 23.244 97.3504 23.4787 96.5611 23.948C95.7931 24.4173 95.1744 25.0467 94.7051 25.836C94.2571 26.6253 94.0331 27.5 94.0331 28.46C94.0331 29.3987 94.2571 30.2733 94.7051 31.084C95.1744 31.8733 95.7931 32.5133 96.5611 33.004C97.3504 33.4733 98.2357 33.708 99.2171 33.708ZM118.251 36.716C116.971 36.716 115.883 36.46 114.987 35.948C114.091 35.436 113.408 34.732 112.939 33.836C112.491 32.9187 112.267 31.8627 112.267 30.668V16.556H115.435V30.572C115.435 31.596 115.712 32.396 116.267 32.972C116.843 33.548 117.6 33.836 118.539 33.836C119.051 33.836 119.563 33.7507 120.075 33.58C120.608 33.4093 121.067 33.1853 121.451 32.908V35.82C121.045 36.076 120.555 36.2893 119.979 36.46C119.403 36.6307 118.827 36.716 118.251 36.716ZM121.451 23.372H109.163V20.62H121.451V23.372ZM126.161 20.62H129.329V36.3H126.161V20.62ZM127.729 17.516C127.366 17.516 127.025 17.4307 126.705 17.26C126.385 17.068 126.129 16.812 125.937 16.492C125.745 16.172 125.649 15.82 125.649 15.436C125.649 15.052 125.745 14.7 125.937 14.38C126.129 14.06 126.385 13.804 126.705 13.612C127.025 13.42 127.366 13.324 127.729 13.324C128.113 13.324 128.454 13.42 128.753 13.612C129.073 13.804 129.318 14.06 129.489 14.38C129.681 14.7 129.777 15.052 129.777 15.436C129.777 15.82 129.681 16.172 129.489 16.492C129.318 16.812 129.073 17.068 128.753 17.26C128.454 17.4307 128.113 17.516 127.729 17.516ZM153.946 20.172C155.524 20.172 156.847 20.524 157.914 21.228C159.002 21.932 159.823 22.8813 160.378 24.076C160.954 25.2707 161.242 26.5933 161.242 28.044V36.3H158.074V28.556C158.074 27.596 157.914 26.7107 157.594 25.9C157.295 25.0893 156.815 24.4387 156.154 23.948C155.514 23.4573 154.703 23.212 153.722 23.212C152.783 23.212 151.994 23.4573 151.354 23.948C150.714 24.4173 150.234 25.0573 149.914 25.868C149.594 26.6573 149.434 27.532 149.434 28.492V36.3H146.266V28.492C146.266 27.532 146.106 26.6573 145.786 25.868C145.487 25.0573 145.007 24.4173 144.346 23.948C143.706 23.4573 142.895 23.212 141.914 23.212C140.932 23.212 140.122 23.4573 139.482 23.948C138.863 24.4387 138.404 25.0893 138.106 25.9C137.807 26.7107 137.658 27.596 137.658 28.556V36.3H134.49V28.076C134.49 26.604 134.756 25.2707 135.29 24.076C135.844 22.8813 136.655 21.932 137.722 21.228C138.81 20.524 140.132 20.172 141.69 20.172C143.012 20.172 144.154 20.428 145.114 20.94C146.095 21.452 146.852 22.156 147.386 23.052C147.94 23.948 148.228 24.9827 148.25 26.156H147.546C147.588 24.9827 147.876 23.948 148.41 23.052C148.964 22.156 149.711 21.452 150.65 20.94C151.61 20.428 152.708 20.172 153.946 20.172ZM172.651 36.684C171.136 36.684 169.782 36.3107 168.587 35.564C167.414 34.8173 166.486 33.8253 165.803 32.588C165.12 31.3293 164.779 29.9427 164.779 28.428C164.779 26.9347 165.142 25.5693 165.867 24.332C166.614 23.0733 167.616 22.0813 168.875 21.356C170.134 20.6093 171.552 20.236 173.131 20.236C174.71 20.236 176.128 20.5987 177.387 21.324C178.646 22.028 179.638 22.9987 180.363 24.236C181.11 25.4733 181.483 26.8707 181.483 28.428V36.3H178.475V30.444L179.563 29.612C179.563 30.9347 179.264 32.1293 178.667 33.196C178.091 34.2627 177.28 35.116 176.235 35.756C175.211 36.3747 174.016 36.684 172.651 36.684ZM173.131 33.676C174.112 33.676 174.998 33.4413 175.787 32.972C176.576 32.5027 177.195 31.8733 177.643 31.084C178.091 30.2733 178.315 29.3987 178.315 28.46C178.315 27.5 178.091 26.6253 177.643 25.836C177.195 25.0467 176.576 24.4173 175.787 23.948C174.998 23.4573 174.112 23.212 173.131 23.212C172.15 23.212 171.264 23.4573 170.475 23.948C169.707 24.4173 169.088 25.0467 168.619 25.836C168.171 26.6253 167.947 27.5 167.947 28.46C167.947 29.3987 168.171 30.2733 168.619 31.084C169.088 31.8733 169.707 32.5027 170.475 32.972C171.264 33.4413 172.15 33.676 173.131 33.676ZM186.661 13.42H189.829V36.3H186.661V13.42Z" fill="#1D3960"/>
</g>
</g>
<defs>
<clipPath id="clip0_156_888">
<rect width="192" height="50" fill="white"/>
</clipPath>
</defs>
</svg>
