<svg width="206" height="51" viewBox="0 0 206 51" fill="none" xmlns="http://www.w3.org/2000/svg">
<g clip-path="url(#clip0_156_831)">
<path fill-rule="evenodd" clip-rule="evenodd" d="M40.0762 28.053V44.7912L48.9934 39.6603V22.9221L40.0762 28.053Z" fill="#1D3960"/>
<path opacity="0.5" fill-rule="evenodd" clip-rule="evenodd" d="M22.3378 10.4132L9.58126 17.7734L0.664062 12.6425L22.3378 0.151367L37.589 8.96241L28.7072 14.0933L22.3378 10.4132Z" fill="#1D3960"/>
<path opacity="0.5" fill-rule="evenodd" clip-rule="evenodd" d="M25.6055 36.3956L40.0764 28.0531L48.9759 22.9045L40.0764 17.7736L25.6055 26.1515V36.3956Z" fill="#1D3960"/>
<path fill-rule="evenodd" clip-rule="evenodd" d="M0.664062 12.6426V37.6603L22.3378 50.1514V39.8896L9.58126 32.5293V17.7735L0.664062 12.6426Z" fill="#1D3960"/>
<mask id="mask0_156_831" style="mask-type:luminance" maskUnits="userSpaceOnUse" x="65" y="0" width="141" height="50">
<path d="M206 0H65V50H206V0Z" fill="white"/>
</mask>
<g mask="url(#mask0_156_831)">
<path d="M83.2895 35.966C81.7085 36.586 79.7865 36.772 77.7405 36.772C77.4305 36.772 77.1205 36.772 76.8105 36.741C70.0835 36.431 65.1855 32.401 65.1855 25.271C65.1855 18.079 70.4245 13.677 77.4305 13.677C79.5695 13.677 81.6465 14.08 83.1965 14.824L82.9175 20.125C81.6465 19.536 79.8795 19.102 77.9575 19.102C73.2145 19.102 70.3315 21.675 70.3315 25.581C70.3315 29.301 72.5635 31.657 76.3765 32.091C77.0585 32.153 77.8025 32.153 78.4845 32.122V26.108H83.2895V35.966ZM86.4844 36.4V19.567H91.1964V21.799H91.3204C92.1884 20.001 94.2344 19.164 96.9624 19.164L96.6524 24.651C92.6844 24.496 91.2894 26.077 91.2894 29.983V36.4H86.4844ZM116.243 42.29V19.567H120.955V21.582H121.079C122.04 20.094 123.931 19.164 126.225 19.164C130.782 19.164 134.192 22.419 134.192 27.999C134.192 33.579 130.503 36.803 126.194 36.803C124.024 36.803 122.102 35.842 121.141 34.075H121.048V42.29H116.243ZM125.171 32.37C127.403 32.37 129.139 30.634 129.139 28.216C129.139 25.798 127.403 24.093 125.171 24.093C122.908 24.093 121.141 25.705 121.141 28.216C121.141 30.696 122.908 32.37 125.171 32.37ZM170.368 36.059C168.88 36.586 167.206 36.803 165.377 36.803C159.301 36.803 155.426 33.703 155.426 27.906C155.426 22.884 158.712 19.164 163.765 19.164C168.911 19.164 171.484 23.194 171.484 27.751C171.484 28.433 171.453 29.177 171.329 29.735H160.789C161.409 31.874 163.331 32.835 166.245 32.835C167.671 32.835 168.849 32.649 169.965 32.246L170.368 36.059ZM163.827 23.628C162.277 23.628 160.882 24.527 160.541 26.79H166.958C166.865 25.023 165.625 23.628 163.827 23.628ZM174.126 36.4V19.567H178.838V21.799H178.962C179.83 20.001 181.876 19.164 184.604 19.164L184.294 24.651C180.326 24.496 178.931 26.077 178.931 29.983V36.4H174.126Z" fill="#1D3960"/>
<path d="M108.067 25.705C108.067 24.713 107.075 24.093 104.998 24.093C102.983 24.093 101.092 24.682 99.6037 25.364L99.2627 20.559C100.72 19.784 102.921 19.164 105.494 19.164C110.764 19.164 113.027 21.613 113.027 26.139V36.4H108.129V34.354C106.889 35.842 105.463 36.803 102.983 36.803C100.193 36.803 98.1777 35.346 98.1777 32.525C98.1777 28.929 101.061 27.875 104.657 27.286C106.021 27.038 106.765 26.852 107.416 26.604C107.943 26.387 108.067 26.139 108.067 25.705ZM108.129 29.084C107.633 29.332 106.827 29.642 105.804 29.859C104.192 30.231 103.2 30.634 103.2 32.029C103.2 33.145 104.13 33.672 105.308 33.672C106.672 33.672 107.664 32.835 108.129 31.812V29.084ZM148.144 27.844C148.144 25.55 147.183 24 144.92 24C142.688 24 141.665 25.519 141.665 27.875V36.4H136.86V12.84H141.572V21.52H141.696C142.688 20.063 144.207 19.164 146.594 19.164C150.779 19.164 152.918 21.954 152.918 26.046V36.4H148.144V27.844ZM185.94 36.4V32.773L193.473 24.155H186.281V19.567H199.332V23.876L191.799 32.215H199.487V36.4H185.94Z" fill="#1D3960"/>
</g>
</g>
<defs>
<clipPath id="clip0_156_831">
<rect width="206" height="51" fill="white"/>
</clipPath>
</defs>
</svg>
