<svg width="118" height="30" viewBox="0 0 118 30" fill="none" xmlns="http://www.w3.org/2000/svg">
<path fill-rule="evenodd" clip-rule="evenodd" d="M15.9942 29.135C22.2296 29.135 27.759 25.0174 29.5237 19.0174C28.8178 19.135 27.9942 19.135 27.2884 19.135C22.8178 19.135 18.8178 17.2526 15.9942 14.1938C13.1707 17.2526 9.17073 19.135 4.70014 19.135C3.99426 19.135 3.17073 19.135 2.46484 19.0174C4.3472 25.135 9.75895 29.135 15.9942 29.135Z" fill="#1D3960"/>
<path opacity="0.5" fill-rule="evenodd" clip-rule="evenodd" d="M4.6995 16.4294C8.46422 16.4294 11.876 14.7824 14.2289 12.0765C12.6995 9.7236 11.7583 6.7824 11.7583 3.72357C11.7583 3.01769 11.7583 2.19416 11.876 1.48828C5.99362 3.25299 1.87598 8.78242 1.87598 15.0177C1.87598 15.3706 1.87598 15.7236 1.87598 16.0765C2.81715 16.3118 3.75833 16.4294 4.6995 16.4294Z" fill="#1D3960"/>
<path fill-rule="evenodd" clip-rule="evenodd" d="M15.9938 9.60624C16.9349 7.84157 17.4056 5.84156 17.4056 3.72392C17.4056 2.78274 17.2879 1.84157 17.0526 0.900391C16.6997 0.900391 16.3467 0.900391 15.9938 0.900391C15.6408 0.900391 15.2879 0.900391 14.935 0.900391C14.6996 1.84157 14.582 2.78274 14.582 3.72392C14.582 5.84156 15.1703 7.84157 15.9938 9.60624Z" fill="#1D3960"/>
<path opacity="0.5" fill-rule="evenodd" clip-rule="evenodd" d="M27.2877 16.4294C28.2288 16.4294 29.1701 16.3118 30.1112 16.0765C30.1112 15.7236 30.1112 15.3706 30.1112 15.0177C30.1112 8.78242 25.9936 3.25299 19.9936 1.48828C20.1112 2.19416 20.1112 3.01769 20.1112 3.72357C20.1112 6.7824 19.17 9.7236 17.6406 12.1942C20.1112 14.7824 23.523 16.4294 27.2877 16.4294Z" fill="#1D3960"/>
<mask id="mask0_60_225" style="mask-type:luminance" maskUnits="userSpaceOnUse" x="39" y="0" width="79" height="30">
<path d="M117.1 0H39.7002V30H117.1V0Z" fill="white"/>
</mask>
<g mask="url(#mask0_60_225)">
<path d="M47.8234 18.3976C47.8234 17.7244 47.0314 17.5066 45.8632 17.2096L44.1802 16.7938C41.8834 16.2196 39.8242 15.388 39.8242 12.616C39.8242 9.82418 42.2596 8.27978 45.19 8.27978C47.7838 8.27978 49.4272 9.01238 50.3182 9.52718V13.111C48.9916 12.2794 46.8136 11.5072 45.0712 11.5072C44.0416 11.5072 43.4278 11.7646 43.4278 12.3586C43.4278 13.0516 44.2396 13.2694 45.586 13.6258L47.0512 14.0218C49.1104 14.5762 51.2884 15.3286 51.2884 18.1798C51.2884 20.8726 48.9322 22.3378 45.784 22.3378C43.309 22.3378 41.3092 21.5458 40.3984 20.8924V17.4274C41.7448 18.4174 44.2 19.2292 46.0018 19.2292C47.3878 19.2292 47.8234 18.9322 47.8234 18.3976ZM54.4725 10.6756C53.1657 10.6756 52.3737 10.0816 52.3737 9.07178C52.3737 8.06198 53.1657 7.48779 54.4725 7.48779C55.7991 7.48779 56.5515 8.06198 56.5515 9.07178C56.5515 10.0816 55.7991 10.6756 54.4725 10.6756ZM52.8687 11.6458H56.0367V22.1398H52.8687V11.6458ZM67.9857 19.8628C67.9857 24.001 65.4315 25.4662 62.4813 25.4662C60.8181 25.4662 59.3925 24.991 58.5213 24.4564V21.2686C59.4915 22.0012 60.7785 22.4962 62.1249 22.4962C64.2237 22.4962 64.8177 21.5854 64.8177 20.3578V20.239C64.1445 20.6746 63.2733 21.0112 62.1249 21.0112C59.6499 21.0112 57.7491 19.348 57.7491 16.6948C57.7491 13.0318 60.6993 11.4478 63.5505 11.4478C65.5305 11.4478 66.9363 11.9626 67.9857 12.3784V19.8628ZM61.0359 16.2592C61.0359 17.7046 62.0061 18.16 63.0555 18.16C63.6693 18.16 64.3029 18.0016 64.8177 17.8036V14.4574C64.4415 14.3584 64.0059 14.2792 63.5307 14.2792C62.1843 14.2792 61.0359 14.8732 61.0359 16.2592ZM75.2469 14.5168C74.4351 14.5168 73.6629 14.695 73.0887 14.9326V22.1398H69.9207V11.6458H72.8907V12.8932C73.7223 12.1408 75.0687 11.4478 76.6923 11.4478C79.2858 11.4478 80.2165 13.111 80.2165 15.4078V22.1398H77.0485V16.2592C77.0485 15.2494 76.5933 14.5168 75.2469 14.5168ZM87.0513 19.2688C87.8635 19.2688 88.6353 19.0906 89.2098 18.853V11.6458H92.3778V22.1398H89.4078V20.8924C88.576 21.6448 87.2298 22.3378 85.606 22.3378C83.0125 22.3378 82.0818 20.6746 82.0818 18.3778V11.6458H85.2498V17.5264C85.2498 18.5362 85.705 19.2688 87.0513 19.2688ZM99.4893 14.5168C98.7573 14.5168 98.0643 14.7148 97.5295 14.9326V22.1398H94.3615V11.6458H97.3315V12.8932C98.143 12.1408 99.3903 11.4478 100.935 11.4478C102.459 11.4478 103.371 12.0814 103.845 13.111C104.618 12.2794 105.984 11.4478 107.667 11.4478C110.122 11.4478 110.994 13.111 110.994 15.4078V22.1398H107.826V16.2592C107.826 15.2296 107.43 14.5168 106.221 14.5168C105.489 14.5168 104.776 14.7148 104.241 14.9326C104.262 15.091 104.262 15.2494 104.262 15.4078V22.1398H101.094V16.2592C101.094 15.2296 100.698 14.5168 99.4893 14.5168ZM114.568 22.4368C113.479 22.4368 112.608 21.5656 112.608 20.4766C112.608 19.3876 113.479 18.4966 114.568 18.4966C115.657 18.4966 116.548 19.3876 116.548 20.4766C116.548 21.5656 115.657 22.4368 114.568 22.4368Z" fill="#1D3960"/>
</g>
</svg>
