<svg width="184" height="50" viewBox="0 0 184 50" fill="none" xmlns="http://www.w3.org/2000/svg">
<g clip-path="url(#clip0_156_937)">
<path opacity="0.5" fill-rule="evenodd" clip-rule="evenodd" d="M21.128 0C16.467 0 12.2297 1.69492 8.83984 4.23729L31.9331 31.9915L50.789 17.7966C49.9416 7.83898 41.467 0 31.0856 0" fill="#1D3960"/>
<path fill-rule="evenodd" clip-rule="evenodd" d="M31.0834 50C42.7761 50 50.9986 40.2625 50.9986 29.0254L33.8376 41.7373C31.9309 43.2203 29.1766 42.7966 27.6936 41.1017L3.11731 11.4407C0.248257 17.1788 0.998673 23.6568 0.998673 29.8729C0.998673 40.8898 9.89697 49.7881 20.9139 49.7881" fill="#1D3960"/>
<mask id="mask0_156_937" style="mask-type:luminance" maskUnits="userSpaceOnUse" x="66" y="0" width="118" height="50">
<path d="M184 0H66V50H184V0Z" fill="white"/>
</mask>
<g mask="url(#mask0_156_937)">
<path d="M75.4392 14.924L75.8732 15.296C76.0592 17.404 76.1212 19.605 76.1212 21.713C76.1212 25.991 75.5632 30.362 75.1602 33.245L75.9352 33.276C78.9732 30.238 81.7942 25.371 81.7942 21.806C81.7942 18.954 80.6162 17.063 79.4692 15.854L79.5312 15.451C81.4222 15.079 83.4992 14.955 85.0182 14.924C85.6692 15.42 86.0722 16.102 86.0722 17.373C86.0722 18.241 85.8552 19.295 85.4212 20.69C84.1502 24.813 76.5862 34.702 72.9282 36.996C71.3472 36.872 69.8282 36.376 68.6812 35.725C69.0222 31.788 69.2702 27.696 69.2702 23.883C69.2702 21.682 69.1462 19.667 68.9912 17.993L66.2012 15.792L66.2632 15.389C68.4332 15.172 73.2692 14.924 75.4392 14.924ZM91.7045 17.528C90.4955 17.528 89.5965 16.753 89.5965 15.668C89.5965 14.025 91.2085 13.033 92.5415 13.033C93.7505 13.033 94.6185 13.808 94.6185 14.862C94.6185 16.536 93.0375 17.528 91.7045 17.528ZM96.5405 32.997C95.0525 34.671 92.0145 36.996 89.4105 36.996C87.2095 36.996 85.5045 35.849 85.5045 33.524C85.5045 32.408 85.9385 30.92 86.4965 29.153C87.0545 27.417 87.6435 25.464 88.0465 23.201L86.8685 21.434L86.9615 20.969C89.7515 20.659 92.1075 20.535 94.4015 20.504L94.8355 20.814C94.8355 22.054 94.4635 24.689 93.7195 27.324C92.9135 30.176 91.5805 33.307 91.5805 34.888C91.5805 35.167 91.6115 35.508 91.7045 35.632C93.1305 35.012 95.3005 33.462 96.4475 32.191L96.5405 32.284V32.997ZM109.426 32.067C109.426 35.601 105.799 36.996 102.792 36.996C99.5059 36.996 96.0959 35.973 94.9489 34.392C95.5379 32.966 96.5299 31.695 97.5529 30.641H97.8629C98.5759 32.47 100.343 36.252 102.358 36.252C103.288 36.252 104.125 35.694 104.125 34.547C104.125 32.935 102.978 32.408 101.49 31.478C99.0409 29.959 97.4599 28.874 97.4599 26.642C97.4599 22.147 102.854 20.504 106.419 20.504C109.736 20.504 111.937 21.713 111.937 23.666C111.937 24.875 111.224 25.619 110.201 26.146C108.651 26.332 107.132 26.363 105.582 26.363L105.489 26.053C106.233 25.216 106.977 24.41 106.977 23.604C106.977 22.705 106.047 21.496 104.807 21.496C103.846 21.496 102.885 22.147 102.885 23.759C102.885 25.371 103.908 26.301 105.396 27.231C107.845 28.75 109.426 29.835 109.426 32.067ZM134.524 32.997C133.036 34.671 129.378 36.996 126.774 36.996C124.573 36.996 123.364 35.849 123.364 33.834C123.364 32.16 124.263 29.37 125.565 26.797L125.069 26.642C124.976 26.828 124.48 27.944 124.356 28.192C122.372 32.501 120.295 36.996 115.986 36.996C113.537 36.996 112.266 35.539 112.266 33.524C112.266 32.439 113.041 30.424 113.785 28.347C114.56 26.27 115.335 24.162 115.335 22.86C115.335 22.395 115.149 22.271 114.87 22.271C114.374 22.271 113.63 22.55 113.01 22.922L112.917 22.86L113.041 22.054C114.436 21.31 116.358 20.504 118.063 20.504C120.419 20.504 121.473 21.713 121.473 23.728C121.473 24.844 120.822 26.952 120.171 28.936C119.52 30.951 118.869 32.842 118.869 33.555C118.869 34.113 119.179 34.299 119.52 34.299C120.202 34.299 121.194 32.997 122.341 30.765C123.612 28.316 125.131 24.751 126.774 20.504C128.975 20.659 131.486 21.744 132.385 22.612C132.385 24.782 128.975 32.036 128.975 35.167C128.975 35.353 129.006 35.539 129.068 35.632C131.641 34.578 133.346 33.276 134.431 32.129L134.524 32.222V32.997ZM155.101 32.687C153.613 34.361 149.645 36.996 147.041 36.996C144.84 36.996 143.631 35.849 143.631 33.834C143.631 32.687 144.065 31.633 145.646 28.843L144.592 28.936C143.352 31.912 141.182 36.996 137.741 36.996C135.261 36.996 133.494 34.516 133.494 31.044C133.494 24.813 136.904 20.504 141.833 20.504C143.476 20.504 144.747 21.186 145.553 22.581L145.243 23.356C144.561 22.457 143.786 21.496 142.794 21.496C141.399 21.496 140.19 25.774 140.19 30.61C140.19 32.563 140.5 33.648 141.089 33.648C141.585 33.648 142.143 32.625 143.29 29.897C144.158 27.882 145.336 24.968 146.762 20.845C149.025 21.155 151.505 22.395 152.559 23.573C152.559 24.658 151.722 27.107 150.885 29.494C150.079 31.881 149.242 34.237 149.242 35.167C149.242 35.353 149.273 35.539 149.335 35.632C151.908 34.578 153.923 32.966 155.008 31.819L155.101 31.912V32.687ZM157.584 36.996C155.166 36.996 153.678 35.663 153.678 33.524C153.678 32.315 153.957 31.044 154.608 29.06L157.305 20.845C158.018 18.675 158.328 17.404 158.483 16.195L157.367 14.18L157.46 13.715C159.909 13.436 162.327 13.281 164.9 13.25L165.303 13.529C165.303 14.676 164.714 18.427 163.071 23.604C162.172 26.425 159.785 32.625 159.785 34.888C159.785 35.167 159.847 35.508 159.878 35.632C161.521 34.95 164.125 33.245 165.179 32.067L165.272 32.16V32.873C163.319 35.074 159.692 36.996 157.584 36.996ZM179.551 36.128C177.567 40.964 172.948 44.25 167.988 44.25C165.105 44.25 161.943 43.32 161.602 40.53C162.532 38.701 164.764 36.655 166.593 35.849C165.105 35.384 164.361 34.144 164.361 32.594C164.361 31.478 165.167 29.68 166.004 27.851C166.81 25.991 167.616 24.1 167.616 22.829C167.616 22.364 167.43 22.24 167.151 22.24C166.841 22.24 166.159 22.426 165.88 22.612L165.787 22.55L165.911 21.837C166.872 21.186 168.639 20.504 170.344 20.504C172.7 20.504 173.754 21.682 173.754 23.697C173.754 24.813 173.041 26.704 172.359 28.502C171.646 30.269 170.964 31.912 170.964 32.625C170.964 33.183 171.274 33.369 171.615 33.369C172.111 33.369 172.855 32.563 173.785 31.013C175.025 28.874 176.575 25.402 178.125 20.814C180.016 21.124 182.837 22.178 183.922 23.573C183.55 24.503 180.853 32.997 179.551 36.128ZM166.965 37.833C166.965 40.406 168.391 43.103 170.778 43.103C171.615 43.103 172.545 40.623 173.506 37.585C174.436 34.578 175.397 31.044 176.327 28.812L175.707 28.936C175.273 29.804 174.808 30.641 174.312 31.447C172.731 33.989 170.747 36.066 168.081 36.066C167.771 36.066 167.492 36.035 167.213 36.004C167.058 36.593 166.965 37.213 166.965 37.833Z" fill="#1D3960"/>
</g>
</g>
<defs>
<clipPath id="clip0_156_937">
<rect width="184" height="50" fill="white"/>
</clipPath>
</defs>
</svg>
