<svg width="100" height="30" viewBox="0 0 100 30" fill="none" xmlns="http://www.w3.org/2000/svg">
<g clip-path="url(#clip0_60_205)">
<path fill-rule="evenodd" clip-rule="evenodd" d="M10.5671 0.959961C6.55582 2.48539 3.33549 5.70573 1.86656 9.71706C1.24509 11.4119 0.906106 13.2199 0.849609 14.9713C0.849609 16.7792 1.18859 18.5871 1.81006 20.282L15.8213 6.2707L10.5671 0.959961Z" fill="#1D3960"/>
<path opacity="0.5" fill-rule="evenodd" clip-rule="evenodd" d="M15.8214 0C14.0135 0 12.2057 0.338983 10.5107 0.96045L15.8214 6.27118L24.5785 14.9717L29.8328 9.66105C28.3073 5.70622 25.1435 2.48587 21.1322 0.96045C19.4372 0.338983 17.6294 0 15.8214 0Z" fill="#1D3960"/>
<path opacity="0.5" fill-rule="evenodd" clip-rule="evenodd" d="M7.12128 14.9717L1.81055 20.2824C3.33597 24.2937 6.49981 27.4575 10.5676 28.983C12.2625 29.6045 14.0704 29.9434 15.8783 29.9434C17.6863 29.9434 19.4941 29.6045 21.1891 28.983L15.8218 23.7288L7.12128 14.9717Z" fill="#1D3960"/>
<path fill-rule="evenodd" clip-rule="evenodd" d="M29.8335 9.71729L24.5793 14.9716L15.8223 23.7286L21.133 29.0394C25.1443 27.4574 28.3081 24.2936 29.8335 20.2823C30.4551 18.5874 30.794 16.7794 30.794 14.9716C30.8505 13.1636 30.5115 11.4122 29.8335 9.71729Z" fill="#1D3960"/>
<mask id="mask0_60_205" style="mask-type:luminance" maskUnits="userSpaceOnUse" x="39" y="0" width="61" height="30">
<path d="M99.2496 0H39.8496V30H99.2496V0Z" fill="white"/>
</mask>
<g mask="url(#mask0_60_205)">
<path d="M42.5193 19.0506H44.7885C45.3713 19.0506 45.9107 18.9514 46.4067 18.753C46.9151 18.5422 47.3553 18.2508 47.7273 17.8788C48.1116 17.5068 48.4031 17.0728 48.6015 16.5768C48.8123 16.0808 48.9177 15.5414 48.9177 14.9586C48.9177 14.3758 48.8123 13.8364 48.6015 13.3404C48.3906 12.832 48.0993 12.3918 47.7273 12.0198C47.3553 11.6478 46.9151 11.3564 46.4067 11.1456C45.9107 10.9348 45.3713 10.8294 44.7885 10.8294H42.5193V19.0506ZM39.8223 21.45V8.42999H44.8257C45.8052 8.42999 46.7105 8.59739 47.5413 8.93219C48.372 9.25462 49.0974 9.71339 49.7175 10.3086C50.3375 10.9038 50.8211 11.5982 51.1683 12.3918C51.5279 13.1854 51.7077 14.041 51.7077 14.9586C51.7077 15.8886 51.534 16.7442 51.1869 17.5254C50.8397 18.3066 50.3499 18.9948 49.7175 19.59C49.0974 20.1728 48.372 20.6316 47.5413 20.9664C46.7105 21.2888 45.8052 21.45 44.8257 21.45H39.8223ZM58.1299 21.636C57.1627 21.636 56.2823 21.4128 55.4887 20.9664C54.7075 20.52 54.0875 19.9186 53.6287 19.1622C53.1699 18.4058 52.9405 17.5564 52.9405 16.614C52.9405 15.6716 53.1575 14.8222 53.5915 14.0658C54.0379 13.3094 54.6393 12.708 55.3957 12.2616C56.1521 11.8152 56.9953 11.592 57.9253 11.592C58.8553 11.592 59.6799 11.8214 60.3991 12.2802C61.1183 12.739 61.6825 13.359 62.0917 14.1402C62.5133 14.9214 62.7241 15.808 62.7241 16.8V17.4696H55.5445C55.6561 17.854 55.8359 18.2012 56.0839 18.5112C56.3443 18.8212 56.6605 19.063 57.0325 19.2366C57.4169 19.4102 57.8261 19.497 58.2601 19.497C58.6941 19.497 59.0909 19.4288 59.4505 19.2924C59.8225 19.156 60.1387 18.9638 60.3991 18.7158L62.0731 20.241C61.4779 20.7246 60.8641 21.078 60.2317 21.3012C59.6117 21.5244 58.9111 21.636 58.1299 21.636ZM55.5073 15.6468H60.2131C60.1263 15.2624 59.9651 14.9276 59.7295 14.6424C59.5063 14.3448 59.2335 14.1154 58.9111 13.9542C58.6011 13.7806 58.2539 13.6938 57.8695 13.6938C57.4727 13.6938 57.1131 13.7744 56.7907 13.9356C56.4683 14.0968 56.1955 14.3262 55.9723 14.6238C55.7615 14.909 55.6065 15.25 55.5073 15.6468ZM62.5172 21.45L66.2372 16.521L62.6102 11.7594H65.5676L67.7066 14.6424L69.827 11.7594H72.6914L69.1202 16.4838L72.9146 21.45H69.9386L67.6508 18.3624L65.363 21.45H62.5172ZM73.8759 21.45V11.7594H76.4241V21.45H73.8759ZM75.1407 10.6062C74.744 10.6062 74.403 10.4636 74.1177 10.1784C73.8326 9.89316 73.6899 9.55222 73.6899 9.15539C73.6899 8.74619 73.8326 8.40517 74.1177 8.13239C74.403 7.84717 74.744 7.70459 75.1407 7.70459C75.5503 7.70459 75.8908 7.84717 76.1638 8.13239C76.4488 8.40517 76.5913 8.74619 76.5913 9.15539C76.5913 9.55222 76.4488 9.89316 76.1638 10.1784C75.8908 10.4636 75.5503 10.6062 75.1407 10.6062ZM83.2903 25.4304C82.5463 25.4304 81.8271 25.3498 81.1326 25.1886C80.4381 25.0398 79.8118 24.8228 79.2538 24.5376L80.1471 22.566C80.6803 22.8264 81.2008 23.0186 81.7093 23.1426C82.2178 23.2666 82.7263 23.3286 83.2341 23.3286C83.9908 23.3286 84.5608 23.1674 84.9456 22.845C85.3423 22.5226 85.5411 22.039 85.5411 21.3942V20.6316C84.7468 21.2144 83.8603 21.5058 82.8808 21.5058C81.9636 21.5058 81.1326 21.2888 80.3886 20.8548C79.6573 20.4084 79.0678 19.807 78.6216 19.0506C78.1873 18.2942 77.9706 17.4572 77.9706 16.5396C77.9706 15.622 78.1873 14.7912 78.6216 14.0472C79.0678 13.3032 79.6693 12.7142 80.4261 12.2802C81.1821 11.8338 82.0251 11.6106 82.9551 11.6106C83.4268 11.6106 83.8851 11.6788 84.3321 11.8152C84.7783 11.9516 85.1938 12.1438 85.5778 12.3918V11.7594H88.0888V21.4314C88.0888 22.7086 87.6733 23.6944 86.8431 24.3888C86.0241 25.0832 84.8398 25.4304 83.2903 25.4304ZM83.2716 19.3482C83.7426 19.3482 84.1708 19.2738 84.5548 19.125C84.9396 18.9638 85.2681 18.7406 85.5411 18.4554V14.661C85.2681 14.3882 84.9328 14.1774 84.5361 14.0286C84.1521 13.8674 83.7366 13.7868 83.2903 13.7868C82.7571 13.7868 82.2793 13.9108 81.8578 14.1588C81.4363 14.3944 81.1018 14.723 80.8536 15.1446C80.6053 15.5538 80.4816 16.0188 80.4816 16.5396C80.4816 17.0728 80.5993 17.5502 80.8348 17.9718C81.0831 18.3934 81.4176 18.7282 81.8391 18.9762C82.2733 19.2242 82.7511 19.3482 83.2716 19.3482ZM90.0786 21.45V11.7594H92.6263V12.5592C93.3583 11.902 94.2636 11.5734 95.3421 11.5734C96.0988 11.5734 96.7618 11.7408 97.3326 12.0756C97.9153 12.398 98.3676 12.8506 98.6901 13.4334C99.0126 14.0038 99.1738 14.6734 99.1738 15.4422V21.45H96.6253V15.8142C96.6253 15.1818 96.4461 14.6858 96.0861 14.3262C95.7268 13.9542 95.2371 13.7682 94.6168 13.7682C94.1826 13.7682 93.7986 13.855 93.4633 14.0286C93.1288 14.1898 92.8498 14.4254 92.6263 14.7354V21.45H90.0786Z" fill="#1D3960"/>
<path d="M81.2718 10.7685C81.2718 10.7152 81.2635 10.6673 81.247 10.625C81.232 10.5812 81.2035 10.5416 81.1608 10.506C81.1188 10.4691 81.0588 10.4329 80.9823 10.3973C80.9058 10.3618 80.8068 10.3249 80.6853 10.2866C80.5495 10.2428 80.4213 10.1936 80.2998 10.139C80.179 10.0842 80.0725 10.0207 79.9795 9.94825C79.888 9.87437 79.8153 9.78895 79.762 9.6919C79.7103 9.59477 79.684 9.48197 79.684 9.3535C79.684 9.22907 79.7118 9.11627 79.7665 9.0151C79.8213 8.91257 79.8978 8.82505 79.996 8.7526C80.0943 8.6788 80.2105 8.62202 80.3448 8.58242C80.4798 8.54275 80.6283 8.52295 80.7895 8.52295C81.01 8.52295 81.202 8.56255 81.3663 8.6419C81.5298 8.72117 81.6573 8.82985 81.7473 8.96792C81.8388 9.106 81.8845 9.26395 81.8845 9.4417H81.2733C81.2733 9.35417 81.2553 9.2776 81.2185 9.21197C81.1825 9.145 81.1278 9.09235 81.0543 9.0541C80.9815 9.01577 80.89 8.99665 80.779 8.99665C80.6725 8.99665 80.584 9.01307 80.5128 9.04585C80.4415 9.07735 80.3883 9.1204 80.353 9.17507C80.317 9.2284 80.2998 9.28855 80.2998 9.35552C80.2998 9.40615 80.3118 9.4519 80.3365 9.49292C80.362 9.53395 80.401 9.57227 80.4513 9.60775C80.5015 9.6433 80.5638 9.67682 80.638 9.70825C80.7115 9.73975 80.797 9.7705 80.8945 9.80057C81.0573 9.84977 81.1998 9.90512 81.3228 9.9667C81.4473 10.0282 81.5515 10.0973 81.6348 10.1738C81.718 10.2503 81.781 10.3372 81.823 10.4342C81.8658 10.5313 81.8868 10.6414 81.8868 10.7644C81.8868 10.8943 81.8613 11.0105 81.811 11.1131C81.76 11.2156 81.6873 11.3024 81.5913 11.3735C81.496 11.4446 81.3813 11.4986 81.2493 11.5355C81.1165 11.5724 80.968 11.5909 80.8038 11.5909C80.656 11.5909 80.5105 11.5718 80.3673 11.5334C80.2233 11.4938 80.0928 11.4344 79.9758 11.355C79.8595 11.2757 79.7665 11.1746 79.6968 11.0515C79.627 10.9285 79.5918 10.7828 79.5918 10.6147H80.209C80.209 10.7077 80.2233 10.7863 80.2525 10.8506C80.281 10.9148 80.3215 10.9667 80.3733 11.0064C80.4265 11.0461 80.4895 11.0747 80.5623 11.0925C80.6358 11.1103 80.7168 11.1192 80.8038 11.1192C80.9103 11.1192 80.998 11.1041 81.0663 11.0741C81.136 11.044 81.1878 11.0023 81.22 10.949C81.2545 10.8956 81.2718 10.8355 81.2718 10.7685ZM84.5223 8.56397V11.5499H83.9088V8.56397H84.5223ZM85.441 8.56397V9.04585H83.0043V8.56397H85.441ZM88.3225 8.56397H88.936V10.5368C88.936 10.7665 88.8865 10.9599 88.7883 11.1171C88.6908 11.2744 88.5565 11.3927 88.384 11.4719C88.213 11.5512 88.0165 11.5909 87.793 11.5909C87.5703 11.5909 87.3723 11.5512 87.199 11.4719C87.0265 11.3927 86.8908 11.2744 86.7925 11.1171C86.6958 10.9599 86.647 10.7665 86.647 10.5368V8.56397H87.262V10.5368C87.262 10.6708 87.2838 10.7801 87.3258 10.8649C87.3685 10.9496 87.4293 11.0119 87.508 11.0515C87.589 11.0912 87.6843 11.111 87.793 11.111C87.9055 11.111 88.0008 11.0912 88.0788 11.0515C88.1575 11.0119 88.2175 10.9496 88.2588 10.8649C88.3015 10.7801 88.3225 10.6708 88.3225 10.5368V8.56397ZM91.2408 11.5499H90.5905L90.595 11.07H91.2408C91.402 11.07 91.5385 11.0338 91.6488 10.9613C91.7598 10.8875 91.843 10.7801 91.8993 10.6393C91.9563 10.4985 91.9855 10.3283 91.9855 10.1287V9.98305C91.9855 9.82997 91.969 9.69527 91.936 9.5791C91.9045 9.46285 91.8573 9.36512 91.7943 9.28585C91.732 9.2065 91.6548 9.14702 91.5625 9.10742C91.471 9.0664 91.366 9.04585 91.2468 9.04585H90.5785V8.56397H91.2468C91.447 8.56397 91.6293 8.5981 91.7943 8.6665C91.9615 8.73347 92.1055 8.82985 92.227 8.95562C92.3493 9.0814 92.443 9.23177 92.5083 9.40682C92.575 9.58045 92.6088 9.77387 92.6088 9.98717V10.1287C92.6088 10.3406 92.575 10.5341 92.5083 10.709C92.443 10.884 92.3493 11.0345 92.227 11.1602C92.107 11.2847 91.963 11.381 91.7943 11.4494C91.6278 11.5163 91.4433 11.5499 91.2408 11.5499ZM90.9393 8.56397V11.5499H90.3243V8.56397H90.9393ZM94.5918 8.56397V11.5499H93.979V8.56397H94.5918ZM98.503 9.98717V10.1287C98.503 10.3556 98.4723 10.5593 98.4108 10.7398C98.3493 10.9202 98.2623 11.0741 98.1505 11.2013C98.038 11.327 97.9045 11.4234 97.7485 11.4904C97.594 11.5574 97.4223 11.5909 97.2333 11.5909C97.0465 11.5909 96.8748 11.5574 96.7188 11.4904C96.5643 11.4234 96.4308 11.327 96.3168 11.2013C96.2035 11.0741 96.115 10.9202 96.052 10.7398C95.9905 10.5593 95.9598 10.3556 95.9598 10.1287V9.98717C95.9598 9.75887 95.9905 9.55517 96.052 9.37607C96.1143 9.19555 96.2005 9.0418 96.313 8.9146C96.4263 8.78747 96.5605 8.69042 96.715 8.62337C96.8703 8.5564 97.042 8.52295 97.2295 8.52295C97.4185 8.52295 97.5895 8.5564 97.744 8.62337C97.9 8.69042 98.0343 8.78747 98.146 8.9146C98.26 9.0418 98.347 9.19555 98.4085 9.37607C98.4715 9.55517 98.503 9.75887 98.503 9.98717ZM97.882 10.1287V9.98305C97.882 9.8245 97.867 9.685 97.8385 9.5647C97.81 9.4444 97.7673 9.34322 97.7118 9.26117C97.6555 9.1792 97.5873 9.11762 97.5063 9.0766C97.426 9.03422 97.3338 9.01307 97.2295 9.01307C97.1253 9.01307 97.033 9.03422 96.9528 9.0766C96.8733 9.11762 96.8058 9.1792 96.7495 9.26117C96.6948 9.34322 96.6535 9.4444 96.6243 9.5647C96.5958 9.685 96.5815 9.8245 96.5815 9.98305V10.1287C96.5815 10.2859 96.5958 10.4254 96.6243 10.547C96.6535 10.6673 96.6955 10.7692 96.7518 10.8526C96.808 10.9346 96.8763 10.9968 96.9565 11.0392C97.0375 11.0816 97.1298 11.1028 97.2333 11.1028C97.3375 11.1028 97.4298 11.0816 97.5108 11.0392C97.591 10.9968 97.6585 10.9346 97.7133 10.8526C97.768 10.7692 97.81 10.6673 97.8385 10.547C97.867 10.4254 97.882 10.2859 97.882 10.1287Z" fill="#1D3960"/>
</g>
</g>
<defs>
<clipPath id="clip0_60_205">
<rect width="99" height="30" fill="white" transform="translate(0.25)"/>
</clipPath>
</defs>
</svg>
