<svg width="204" height="51" viewBox="0 0 204 51" fill="none" xmlns="http://www.w3.org/2000/svg">
<g clip-path="url(#clip0_156_794)">
<path d="M14.6087 33.6425C9.19966 33.6425 0.751953 34.4193 0.751953 26.6177C0.751953 22.6494 3.63848 19.2073 7.77675 19.2073C21.2754 19.2073 32.212 30.1439 32.212 43.6425V43.7527C32.212 47.637 29.0715 50.7775 25.1872 50.7775C17.5045 50.7775 18.1624 42.5854 18.1624 37.2238C18.1624 35.2403 16.5646 33.6425 14.6087 33.6425Z" fill="#1D3960"/>
<path d="M33.6442 14.6067C33.6442 9.19769 34.421 0.749988 26.6195 0.749988C25.9465 0.749988 19.209 0.0252614 19.209 7.77478C19.209 21.2734 30.1456 32.21 43.6442 32.21C47.5166 32.21 50.7792 29.104 50.7792 25.1852C50.7792 17.5025 42.5871 18.1605 37.2255 18.1605C35.242 18.1605 33.6442 16.5627 33.6442 14.6067Z" fill="#1D3960"/>
<mask id="mask0_156_794" style="mask-type:luminance" maskUnits="userSpaceOnUse" x="66" y="1" width="138" height="50">
<path d="M204 1H66V51H204V1Z" fill="white"/>
</mask>
<g mask="url(#mask0_156_794)">
<path d="M74.2091 29.746H70.7061V37H65.9941V14.742H74.2091C79.6341 14.742 83.0131 17.315 83.0131 22.151C83.0131 26.987 79.6341 29.746 74.2091 29.746ZM74.1781 18.71H70.7061V25.778H74.1781C76.8441 25.778 78.3321 24.383 78.3321 22.182C78.3321 19.981 76.8441 18.71 74.1781 18.71ZM90.9288 37H86.2168V14.742H94.9278C100.539 14.742 103.794 17.346 103.794 21.965C103.794 24.972 101.934 27.359 98.7718 28.413L104.507 37H98.8958L93.8738 29.126H90.9288V37ZM90.9288 18.648V25.251H94.7108C97.5628 25.251 99.0818 24.135 99.0818 21.965C99.0818 19.764 97.5628 18.648 94.7108 18.648H90.9288ZM122.412 32.908V37H107.439V14.742H122.195V18.834H112.151V23.515H121.265V27.576H112.151V32.908H122.412ZM140.441 37H126.057V14.742H130.769V32.753H140.441V37ZM161.178 14.742V28.537C161.178 33.807 157.83 37.465 152.033 37.465C146.143 37.465 142.857 33.807 142.857 28.537V14.742H147.569V28.63C147.569 31.389 148.902 33.249 152.033 33.249C155.133 33.249 156.466 31.389 156.466 28.63V14.742H161.178ZM173.59 37H165.685V14.742H173.59C180.658 14.742 184.936 19.268 184.936 25.747C184.936 32.226 180.503 37 173.59 37ZM170.397 18.803V32.939H173.342C177.775 32.939 180.1 30.366 180.1 25.747C180.1 21.314 177.775 18.803 173.342 18.803H170.397ZM203.181 32.908V37H188.208V14.742H202.964V18.834H192.92V23.515H202.034V27.576H192.92V32.908H203.181Z" fill="#1D3960"/>
</g>
</g>
<defs>
<clipPath id="clip0_156_794">
<rect width="204" height="51" fill="white"/>
</clipPath>
</defs>
</svg>
