<svg width="30" height="30" viewBox="0 0 30 30" fill="none" xmlns="http://www.w3.org/2000/svg">
<path d="M3.75 15C3.75 12.0879 3.75 10.6318 4.22575 9.48323C4.86009 7.9518 6.0768 6.73509 7.60823 6.10075C8.7568 5.625 10.2129 5.625 13.125 5.625H16.875C19.7871 5.625 21.2432 5.625 22.3918 6.10075C23.9232 6.73509 25.1399 7.9518 25.7742 9.48323C26.25 10.6318 26.25 12.0879 26.25 15V15C26.25 17.9121 26.25 19.3682 25.7742 20.5168C25.1399 22.0482 23.9232 23.2649 22.3918 23.8992C21.2432 24.375 19.7871 24.375 16.875 24.375H13.125C10.2129 24.375 8.7568 24.375 7.60823 23.8992C6.0768 23.2649 4.86009 22.0482 4.22575 20.5168C3.75 19.3682 3.75 17.9121 3.75 15V15Z" stroke="#1D3960" stroke-width="1.875" stroke-linejoin="round"/>
<path d="M3.75 10L8.09357 13.3782C11.0306 15.6624 12.4991 16.8046 14.1766 17.0276C14.7234 17.1003 15.2775 17.1003 15.8244 17.0276C17.5018 16.8044 18.9703 15.6622 21.9072 13.3779L26.25 10" stroke="#1D3960" stroke-width="1.875" stroke-linejoin="round"/>
</svg>
