<svg width="30" height="30" viewBox="0 0 30 30" fill="none" xmlns="http://www.w3.org/2000/svg">
<rect width="30" height="30" rx="5" fill="#3B5998"/>
<path d="M13.932 15.4838C13.8817 15.4838 12.8267 15.4841 12.3402 15.4837C12.0897 15.4835 12.0003 15.3935 12.0003 15.1414C12 14.4939 11.9998 13.8464 12.0003 13.1988C12.0005 12.95 12.095 12.855 12.3422 12.8548C12.8288 12.8545 13.878 12.8547 13.932 12.8547C13.932 12.8103 13.9318 11.8755 13.932 11.4449C13.9323 10.8085 14.0459 10.1992 14.3692 9.6414C14.7003 9.07043 15.182 8.67932 15.7994 8.45318C16.1949 8.30824 16.6053 8.25042 17.025 8.2501C17.55 8.24978 18.075 8.25026 18.6001 8.25122C18.8258 8.25154 18.9259 8.35132 18.9264 8.57858C18.9273 9.18767 18.9273 9.79675 18.9264 10.4057C18.926 10.6353 18.8301 10.7276 18.5993 10.7302C18.169 10.7348 17.7383 10.7319 17.3084 10.7492C16.8743 10.7492 16.6459 10.9613 16.6459 11.4107C16.6355 11.886 16.6415 12.3619 16.6415 12.8545C16.6822 12.8545 17.9178 12.8543 18.4954 12.8545C18.7577 12.8545 18.8474 12.9447 18.8474 13.2085C18.8474 13.8525 18.8472 14.4966 18.8468 15.1406C18.8466 15.4005 18.7624 15.4835 18.4984 15.4837C17.9209 15.484 16.6901 15.4838 16.6363 15.4838V20.6962C16.6363 20.9741 16.5488 21.0626 16.2746 21.0626C15.6061 21.0626 14.9375 21.0628 14.269 21.0626C14.0266 21.0626 13.9321 20.9685 13.9321 20.7261C13.932 19.0286 13.932 15.5434 13.932 15.4838Z" fill="white"/>
</svg>
