<svg width="20" height="21" viewBox="0 0 20 21" fill="none" xmlns="http://www.w3.org/2000/svg">
<path d="M9.83301 18.625H10.1663C10.7913 18.625 11.1038 18.625 11.3228 18.4658C11.3936 18.4144 11.4558 18.3522 11.5072 18.2815C11.6663 18.0624 11.6663 17.75 11.6663 17.125V11.8542H12.6663C13.2913 11.8542 13.6038 11.8542 13.8228 11.695C13.8936 11.6436 13.9558 11.5814 14.0072 11.5107C14.1663 11.2916 14.1663 10.9791 14.1663 10.3542V10.1944C14.1663 9.56949 14.1663 9.25701 14.0072 9.03796C13.9558 8.96721 13.8936 8.905 13.8228 8.8536C13.6038 8.69444 13.2913 8.69444 12.6663 8.69444H11.6663V6.78472C11.6663 6.39644 11.6663 6.2023 11.7298 6.04915C11.8144 5.84496 11.9766 5.68273 12.1808 5.59816C12.3339 5.53472 12.5281 5.53472 12.9163 5.53472C13.3046 5.53472 13.4988 5.53472 13.6519 5.47129C13.8561 5.38671 14.0183 5.22448 14.1029 5.02029C14.1663 4.86715 14.1663 4.67301 14.1663 4.28472V3.6713C14.1663 3.23949 14.1663 3.02359 14.0883 2.85615C14.0055 2.67859 13.8628 2.53588 13.6852 2.45308C13.5178 2.375 13.3019 2.375 12.87 2.375C11.3587 2.375 10.6031 2.375 10.017 2.64827C9.39557 2.93806 8.89607 3.43756 8.60628 4.05903C8.33301 4.64506 8.33301 5.40072 8.33301 6.91204V8.69444H7.33301C6.70805 8.69444 6.39557 8.69444 6.17652 8.8536C6.10577 8.905 6.04356 8.96721 5.99216 9.03796C5.83301 9.25701 5.83301 9.56949 5.83301 10.1944V10.3542C5.83301 10.9791 5.83301 11.2916 5.99216 11.5107C6.04356 11.5814 6.10577 11.6436 6.17652 11.695C6.39557 11.8542 6.70805 11.8542 7.33301 11.8542H8.33301V17.125C8.33301 17.75 8.33301 18.0624 8.49216 18.2815C8.54356 18.3522 8.60577 18.4144 8.67652 18.4658C8.89557 18.625 9.20805 18.625 9.83301 18.625Z" fill="white"/>
</svg>
