<svg width="20" height="20" viewBox="0 0 20 20" fill="none" xmlns="http://www.w3.org/2000/svg">
<path d="M9.83301 18.125H10.1663C10.7913 18.125 11.1038 18.125 11.3228 17.9658C11.3936 17.9144 11.4558 17.8522 11.5072 17.7815C11.6663 17.5624 11.6663 17.25 11.6663 16.625V11.3542H12.6663C13.2913 11.3542 13.6038 11.3542 13.8228 11.195C13.8936 11.1436 13.9558 11.0814 14.0072 11.0107C14.1663 10.7916 14.1663 10.4791 14.1663 9.85417V9.69444C14.1663 9.06949 14.1663 8.75701 14.0072 8.53796C13.9558 8.46721 13.8936 8.405 13.8228 8.3536C13.6038 8.19444 13.2913 8.19444 12.6663 8.19444H11.6663V6.28472C11.6663 5.89644 11.6663 5.7023 11.7298 5.54915C11.8144 5.34496 11.9766 5.18273 12.1808 5.09816C12.3339 5.03472 12.5281 5.03472 12.9163 5.03472C13.3046 5.03472 13.4988 5.03472 13.6519 4.97129C13.8561 4.88671 14.0183 4.72448 14.1029 4.52029C14.1663 4.36715 14.1663 4.17301 14.1663 3.78472V3.1713C14.1663 2.73949 14.1663 2.52359 14.0883 2.35615C14.0055 2.17859 13.8628 2.03588 13.6852 1.95308C13.5178 1.875 13.3019 1.875 12.87 1.875C11.3587 1.875 10.6031 1.875 10.017 2.14827C9.39557 2.43806 8.89607 2.93756 8.60628 3.55903C8.33301 4.14506 8.33301 4.90072 8.33301 6.41204V8.19444H7.33301C6.70805 8.19444 6.39557 8.19444 6.17652 8.3536C6.10577 8.405 6.04356 8.46721 5.99216 8.53796C5.83301 8.75701 5.83301 9.06949 5.83301 9.69444V9.85417C5.83301 10.4791 5.83301 10.7916 5.99216 11.0107C6.04356 11.0814 6.10577 11.1436 6.17652 11.195C6.39557 11.3542 6.70805 11.3542 7.33301 11.3542H8.33301V16.625C8.33301 17.25 8.33301 17.5624 8.49216 17.7815C8.54356 17.8522 8.60577 17.9144 8.67652 17.9658C8.89557 18.125 9.20805 18.125 9.83301 18.125Z" fill="#1D3960"/>
</svg>
