<svg width="30" height="30" viewBox="0 0 30 30" fill="none" xmlns="http://www.w3.org/2000/svg">
<path d="M6.54753 16.3929C5.50584 16.2309 4.985 16.1498 4.84091 15.8607C4.79636 15.7713 4.77388 15.6726 4.77534 15.5728C4.78007 15.2498 5.21449 14.9512 6.08333 14.3542L19.5862 5.07473C20.8981 4.17317 21.5541 3.72239 21.8831 3.88559C21.9828 3.93507 22.0675 4.01029 22.1285 4.10348C22.3294 4.41088 21.9594 5.11555 21.2194 6.52489L18.2897 12.1045C18.0154 12.627 17.8782 12.8882 17.9364 13.1198C17.955 13.1937 17.987 13.2636 18.0308 13.326C18.1678 13.5216 18.4551 13.5887 19.0297 13.723L23.5846 14.7876C24.5816 15.0206 25.0802 15.1371 25.2035 15.4317C25.2417 15.5229 25.2577 15.6218 25.2502 15.7204C25.226 16.0388 24.7896 16.3065 23.9169 16.842L10.2595 25.2211C8.95212 26.0232 8.29843 26.4242 7.97981 26.2484C7.88307 26.195 7.80222 26.117 7.74548 26.0222C7.5586 25.7099 7.93647 25.0426 8.69222 23.7078L11.5234 18.7077C11.8445 18.1407 12.005 17.8572 11.9403 17.6114C11.9197 17.5333 11.8842 17.46 11.8358 17.3954C11.6832 17.192 11.3613 17.1419 10.7174 17.0418L6.54753 16.3929Z" stroke="white" stroke-width="1.875" stroke-linejoin="round"/>
</svg>
