<svg width="30" height="30" viewBox="0 0 30 30" fill="none" xmlns="http://www.w3.org/2000/svg">
<path d="M15 15L7.5 15M15 15L15 10M15 15H22.5M7.5 15L7.5 20M7.5 15H3.75M22.5 15L22.5 20M22.5 15L26.25 15" stroke="white" stroke-width="1.875" stroke-linecap="round" stroke-linejoin="round"/>
<path d="M9.5625 25C10.2656 25 10.6171 25 10.8635 24.821C10.9431 24.7631 11.0131 24.6931 11.071 24.6135C11.25 24.3671 11.25 24.0156 11.25 23.3125V21.6875C11.25 20.9844 11.25 20.6329 11.071 20.3865C11.0131 20.3069 10.9431 20.2369 10.8635 20.179C10.6171 20 10.2656 20 9.5625 20H5.4375C4.73443 20 4.38289 20 4.13645 20.179C4.05686 20.2369 3.98687 20.3069 3.92905 20.3865C3.75 20.6329 3.75 20.9844 3.75 21.6875V23.3125C3.75 24.0156 3.75 24.3671 3.92905 24.6135C3.98687 24.6931 4.05686 24.7631 4.13645 24.821C4.38289 25 4.73443 25 5.4375 25H9.5625Z" stroke="white" stroke-width="1.875" stroke-linejoin="round"/>
<path d="M17.0625 10C17.7656 10 18.1171 10 18.3635 9.82095C18.4431 9.76313 18.5131 9.69314 18.571 9.61355C18.75 9.36711 18.75 9.01557 18.75 8.3125V6.6875C18.75 5.98443 18.75 5.63289 18.571 5.38645C18.5131 5.30686 18.4431 5.23687 18.3635 5.17905C18.1171 5 17.7656 5 17.0625 5H12.9375C12.2344 5 11.8829 5 11.6365 5.17905C11.5569 5.23687 11.4869 5.30686 11.429 5.38645C11.25 5.63289 11.25 5.98443 11.25 6.6875V8.3125C11.25 9.01557 11.25 9.36711 11.429 9.61355C11.4869 9.69314 11.5569 9.76313 11.6365 9.82095C11.8829 10 12.2344 10 12.9375 10H17.0625Z" stroke="white" stroke-width="1.875" stroke-linejoin="round"/>
<path d="M24.5625 25C25.2656 25 25.6171 25 25.8635 24.821C25.9431 24.7631 26.0131 24.6931 26.071 24.6135C26.25 24.3671 26.25 24.0156 26.25 23.3125V21.6875C26.25 20.9844 26.25 20.6329 26.071 20.3865C26.0131 20.3069 25.9431 20.2369 25.8635 20.179C25.6171 20 25.2656 20 24.5625 20H20.4375C19.7344 20 19.3829 20 19.1365 20.179C19.0569 20.2369 18.9869 20.3069 18.929 20.3865C18.75 20.6329 18.75 20.9844 18.75 21.6875V23.3125C18.75 24.0156 18.75 24.3671 18.929 24.6135C18.9869 24.6931 19.0569 24.7631 19.1365 24.821C19.3829 25 19.7344 25 20.4375 25H24.5625Z" stroke="white" stroke-width="1.875" stroke-linejoin="round"/>
</svg>
