<svg width="215" height="54" viewBox="0 0 215 54" fill="none" xmlns="http://www.w3.org/2000/svg">
<g clip-path="url(#clip0_285_784)">
<path fill-rule="evenodd" clip-rule="evenodd" d="M25.0082 17.3431C29.9658 17.3431 33.9851 21.4433 33.9851 26.5008C33.9851 31.5582 29.9658 35.6584 25.0082 35.6584C20.0505 35.6584 16.0312 31.5582 16.0312 26.5008C16.0312 21.4431 20.0505 17.3431 25.0082 17.3431Z" fill="#1D3960"/>
<path fill-rule="evenodd" clip-rule="evenodd" d="M19.7764 0L8.94336 6.32089C10.7002 10.3298 14.2845 13.4984 18.1332 14.5714C20.1469 13.3632 22.4927 12.669 24.9978 12.669C27.503 12.669 29.8487 13.3632 31.8624 14.5714C35.7111 13.4984 39.2957 10.33 41.0523 6.32089L30.2195 0C28.816 1.90425 26.9175 2.89613 24.9978 2.97638C23.0784 2.89613 21.1799 1.90425 19.7764 0Z" fill="#3576F0"/>
<path fill-rule="evenodd" clip-rule="evenodd" d="M50.9821 21.1739L44.7858 10.1229C40.8559 11.9149 37.7499 15.5715 36.6982 19.4975C37.8826 21.5516 38.5628 23.9446 38.5628 26.5001C38.5628 29.0556 37.8826 31.4489 36.6982 33.5028C37.7499 37.4292 40.8559 41.0853 44.7858 42.8775L50.9821 31.8265C49.1154 30.3951 48.1431 28.4582 48.0646 26.4999C48.1431 24.5419 49.1154 22.6052 50.9821 21.1739Z" fill="#3576F0"/>
<path fill-rule="evenodd" clip-rule="evenodd" d="M30.2195 53L41.0523 46.6793C39.2955 42.6702 35.7109 39.5017 31.8624 38.429C29.849 39.637 27.503 40.331 24.9978 40.331C22.4927 40.331 20.1469 39.637 18.1332 38.429C14.2845 39.5017 10.7002 42.67 8.94336 46.6793L19.7764 53C21.1799 51.0959 23.0784 50.1042 24.998 50.0239C26.9175 50.1044 28.816 51.0959 30.2195 53Z" fill="#1D3960"/>
<path fill-rule="evenodd" clip-rule="evenodd" d="M-0.979492 31.8267L5.21673 42.8776C9.14666 41.0854 12.2527 37.429 13.3044 33.5028C12.12 31.4489 11.4398 29.0556 11.4398 26.5001C11.4398 23.9446 12.12 21.5519 13.3044 19.4975C12.2527 15.5713 9.14666 11.9149 5.21673 10.1229L-0.979492 21.1739C0.887204 22.6052 1.85948 24.5421 1.93797 26.5004C1.85948 28.4584 0.887204 30.3951 -0.979492 31.8267Z" fill="#3576F0"/>
<path d="M60.4805 29V0.199951H65.6805V29H60.4805ZM70.8368 29V8.59995H75.7568V13.4H75.8768V29H70.8368ZM85.1568 29V16.12C85.1568 14.8667 84.8368 13.92 84.1968 13.28C83.5568 12.64 82.6234 12.32 81.3968 12.32C80.3301 12.32 79.3701 12.56 78.5168 13.04C77.6901 13.52 77.0368 14.1867 76.5568 15.04C76.1034 15.8933 75.8768 16.88 75.8768 18L75.3568 13.12C76.0501 11.6267 77.0634 10.44 78.3968 9.55995C79.7301 8.65325 81.3301 8.19995 83.1968 8.19995C85.4101 8.19995 87.1301 8.82665 88.3567 10.08C89.6101 11.3333 90.2368 13 90.2368 15.08V29H85.1568ZM109.888 29V24.4L110.288 24.4799C109.942 25.9732 109.102 27.1733 107.768 28.08C106.435 28.96 104.848 29.4 103.008 29.4C101.142 29.4 99.5156 28.9732 98.1289 28.1199C96.7689 27.2399 95.7156 26.0132 94.9689 24.4399C94.2223 22.8666 93.8489 21.0133 93.8489 18.88C93.8489 16.72 94.2356 14.84 95.0089 13.24C95.7823 11.64 96.8623 10.4 98.2489 9.51995C99.6623 8.63995 101.302 8.19995 103.168 8.19995C105.088 8.19995 106.675 8.66665 107.928 9.59995C109.182 10.5067 109.955 11.7733 110.248 13.4L109.728 13.44V0.199951H114.808V29H109.888ZM104.488 25.2799C106.115 25.2799 107.408 24.7199 108.368 23.5999C109.355 22.4532 109.848 20.8532 109.848 18.7999C109.848 16.7466 109.355 15.16 108.368 14.04C107.382 12.92 106.075 12.36 104.448 12.36C102.848 12.36 101.555 12.9333 100.568 14.08C99.5823 15.2 99.0889 16.7867 99.0889 18.84C99.0889 20.8933 99.5823 22.4799 100.568 23.5999C101.555 24.7199 102.862 25.2799 104.488 25.2799ZM126.772 29.4C125.359 29.4 124.132 29.1067 123.092 28.52C122.079 27.9067 121.292 27.08 120.732 26.04C120.199 25 119.932 23.8267 119.932 22.52V8.59995H124.972V21.4799C124.972 22.7332 125.279 23.68 125.892 24.32C126.532 24.96 127.426 25.2799 128.572 25.2799C129.612 25.2799 130.519 25.04 131.292 24.56C132.092 24.08 132.719 23.4133 133.172 22.56C133.652 21.68 133.892 20.6933 133.892 19.6L134.412 24.4799C133.746 25.9732 132.746 27.1733 131.412 28.08C130.106 28.96 128.559 29.4 126.772 29.4ZM134.052 29V24.2H133.892V8.59995H138.972V29H134.052ZM151.918 29.4C149.091 29.4 146.838 28.8132 145.158 27.6399C143.478 26.4399 142.558 24.7867 142.398 22.68H146.998C147.131 23.72 147.624 24.5067 148.478 25.04C149.331 25.5733 150.478 25.84 151.918 25.84C153.224 25.84 154.198 25.64 154.838 25.24C155.504 24.8133 155.838 24.2132 155.838 23.4399C155.838 22.8799 155.651 22.4267 155.278 22.08C154.904 21.7067 154.198 21.4 153.158 21.16L149.878 20.4C147.638 19.92 145.971 19.1733 144.878 18.16C143.811 17.12 143.278 15.8267 143.278 14.28C143.278 12.3867 143.998 10.9067 145.438 9.83995C146.904 8.74665 148.918 8.19995 151.478 8.19995C154.011 8.19995 156.038 8.74665 157.558 9.83995C159.104 10.9067 159.958 12.3867 160.118 14.28H155.518C155.384 13.4533 154.958 12.8267 154.238 12.4C153.544 11.9733 152.584 11.76 151.358 11.76C150.211 11.76 149.344 11.9467 148.758 12.32C148.171 12.6667 147.878 13.1867 147.878 13.88C147.878 14.4133 148.104 14.8667 148.558 15.24C149.011 15.5867 149.771 15.8933 150.838 16.16L154.358 16.9599C156.358 17.4132 157.864 18.2 158.878 19.32C159.918 20.44 160.438 21.7599 160.438 23.2799C160.438 25.2266 159.691 26.7332 158.198 27.7999C156.704 28.8666 154.611 29.4 151.918 29.4ZM173.004 29.4C170.497 29.4 168.644 28.8132 167.444 27.6399C166.271 26.4399 165.684 24.6532 165.684 22.2799V3.95995L170.764 2.07995V22.4C170.764 23.3867 171.031 24.1199 171.564 24.5999C172.097 25.0799 172.937 25.32 174.084 25.32C174.537 25.32 174.937 25.2933 175.284 25.24C175.657 25.16 176.004 25.0666 176.324 24.9599V28.88C176.004 29.04 175.551 29.16 174.964 29.24C174.377 29.3467 173.724 29.4 173.004 29.4ZM161.764 12.56V8.59995H176.324V12.56H161.764ZM180.094 29V8.59995H185.014V13.52H185.134V29H180.094ZM185.134 18.36L184.614 13.52C185.094 11.7867 185.907 10.4667 187.054 9.55995C188.201 8.65325 189.574 8.19995 191.174 8.19995C191.734 8.19995 192.134 8.25325 192.374 8.35995V13.12C192.241 13.0667 192.054 13.04 191.814 13.04C191.574 13.0133 191.281 13 190.934 13C188.987 13 187.534 13.4267 186.574 14.28C185.614 15.1333 185.134 16.4933 185.134 18.36ZM197.468 37.2L202.748 25.36L203.668 23.84L209.428 8.59995H214.788L202.588 37.2H197.468ZM201.988 28.7999L193.708 8.59995H199.188L206.108 26.9199L201.988 28.7999Z" fill="#1D3960"/>
<path d="M60.8677 41.8411H62.0547L65.0825 49.3758L68.104 41.8411H69.2973L65.5395 51.0833H64.6128L60.8677 41.8411ZM60.4805 41.8411H61.5278L61.6992 47.4778V51.0833H60.4805V41.8411ZM68.6308 41.8411H69.6782V51.0833H68.4595V47.4778L68.6308 41.8411ZM75.8024 51.2103C75.3242 51.2103 74.8905 51.1298 74.5012 50.969C74.1161 50.804 73.7839 50.5734 73.5046 50.2771C73.2295 49.9809 73.0179 49.6297 72.8698 49.2234C72.7217 48.8172 72.6476 48.3729 72.6476 47.8904V47.6238C72.6476 47.0652 72.7302 46.568 72.8952 46.1321C73.0602 45.692 73.2845 45.3196 73.5681 45.0149C73.8516 44.7103 74.1732 44.4796 74.5329 44.323C74.8926 44.1665 75.265 44.0882 75.6501 44.0882C76.141 44.0882 76.5641 44.1728 76.9196 44.3421C77.2793 44.5114 77.5734 44.7483 77.8019 45.053C78.0305 45.3535 78.1997 45.709 78.3098 46.1194C78.4198 46.5257 78.4748 46.97 78.4748 47.4524V47.9793H73.3459V47.0208H77.3005V46.9319C77.2835 46.6272 77.2201 46.331 77.11 46.0433C77.0042 45.7555 76.835 45.5185 76.6022 45.3323C76.3695 45.1461 76.0521 45.053 75.6501 45.053C75.3835 45.053 75.138 45.1102 74.9138 45.2244C74.6895 45.3344 74.4969 45.4995 74.3361 45.7195C74.1753 45.9396 74.0505 46.2083 73.9616 46.5257C73.8727 46.8431 73.8283 47.2091 73.8283 47.6238V47.8904C73.8283 48.2163 73.8727 48.5231 73.9616 48.8108C74.0547 49.0944 74.188 49.344 74.3615 49.5599C74.5392 49.7757 74.7529 49.945 75.0026 50.0677C75.2565 50.1904 75.5443 50.2518 75.8659 50.2518C76.2806 50.2518 76.6319 50.1671 76.9196 49.9979C77.2074 49.8286 77.4592 49.6022 77.675 49.3187L78.3859 49.8836C78.2378 50.1079 78.0495 50.3216 77.821 50.5247C77.5925 50.7278 77.3111 50.8929 76.9767 51.0198C76.6467 51.1468 76.2552 51.2103 75.8024 51.2103ZM82.3202 45.6814V51.0833H81.1459V44.2151H82.2567L82.3202 45.6814ZM82.0409 47.389L81.5521 47.3699C81.5564 46.9002 81.6262 46.4664 81.7616 46.0687C81.897 45.6666 82.0875 45.3175 82.3329 45.0213C82.5783 44.7251 82.8703 44.4965 83.2089 44.3357C83.5516 44.1707 83.9304 44.0882 84.3451 44.0882C84.6836 44.0882 84.9883 44.1347 85.2592 44.2278C85.53 44.3167 85.7606 44.4606 85.9511 44.6595C86.1457 44.8584 86.2938 45.1165 86.3954 45.4339C86.497 45.747 86.5477 46.13 86.5477 46.5828V51.0833H85.3671V46.5701C85.3671 46.2104 85.3142 45.9227 85.2084 45.7068C85.1026 45.4868 84.9481 45.3281 84.745 45.2308C84.5419 45.1292 84.2922 45.0784 83.996 45.0784C83.704 45.0784 83.4374 45.1398 83.1962 45.2625C82.9592 45.3852 82.754 45.5545 82.5805 45.7703C82.4112 45.9861 82.2779 46.2337 82.1806 46.513C82.0875 46.7881 82.0409 47.08 82.0409 47.389ZM93.8336 49.4964V44.2151H95.0142V51.0833H93.8907L93.8336 49.4964ZM94.0557 48.0491L94.5445 48.0364C94.5445 48.4935 94.4959 48.9166 94.3985 49.306C94.3054 49.691 94.1531 50.0254 93.9415 50.3089C93.7299 50.5924 93.4527 50.8146 93.1099 50.9754C92.7672 51.132 92.3503 51.2103 91.8595 51.2103C91.5251 51.2103 91.2183 51.1616 90.939 51.0643C90.664 50.9669 90.427 50.8167 90.2281 50.6136C90.0292 50.4104 89.8748 50.146 89.7647 49.8201C89.6589 49.4943 89.606 49.1028 89.606 48.6458V44.2151H90.7804V48.6585C90.7804 48.9674 90.8142 49.2234 90.8819 49.4266C90.9539 49.6255 91.0491 49.7841 91.1676 49.9026C91.2903 50.0169 91.4257 50.0973 91.5738 50.1438C91.7262 50.1904 91.8827 50.2137 92.0435 50.2137C92.5429 50.2137 92.9386 50.1185 93.2306 49.928C93.5225 49.7334 93.732 49.4731 93.859 49.1473C93.9902 48.8172 94.0557 48.4511 94.0557 48.0491ZM99.8563 51.0833H98.6813V43.4915C98.6813 42.9964 98.7703 42.5796 98.9483 42.241C99.1303 41.8982 99.3903 41.6401 99.7293 41.4666C100.067 41.2889 100.469 41.2 100.935 41.2C101.07 41.2 101.205 41.2085 101.341 41.2254C101.481 41.2423 101.616 41.2677 101.747 41.3016L101.684 42.2601C101.595 42.2389 101.493 42.2241 101.379 42.2156C101.269 42.2072 101.159 42.2029 101.049 42.2029C100.799 42.2029 100.583 42.2537 100.401 42.3553C100.224 42.4526 100.088 42.5965 99.9953 42.7869C99.9023 42.9773 99.8563 43.2122 99.8563 43.4915V51.0833ZM101.315 44.2151V45.1165H97.5963V44.2151H101.315ZM106.621 51.2103C106.143 51.2103 105.709 51.1298 105.32 50.969C104.935 50.804 104.602 50.5734 104.323 50.2771C104.048 49.9809 103.836 49.6297 103.688 49.2234C103.54 48.8172 103.466 48.3729 103.466 47.8904V47.6238C103.466 47.0652 103.549 46.568 103.714 46.1321C103.879 45.692 104.103 45.3196 104.386 45.0149C104.67 44.7103 104.992 44.4796 105.351 44.323C105.711 44.1665 106.083 44.0882 106.469 44.0882C106.959 44.0882 107.383 44.1728 107.738 44.3421C108.098 44.5114 108.392 44.7483 108.62 45.053C108.849 45.3535 109.018 45.709 109.128 46.1194C109.238 46.5257 109.293 46.97 109.293 47.4524V47.9793H104.164V47.0208H108.119V46.9319C108.102 46.6272 108.039 46.331 107.928 46.0433C107.823 45.7555 107.653 45.5185 107.421 45.3323C107.188 45.1461 106.871 45.053 106.469 45.053C106.202 45.053 105.956 45.1102 105.732 45.2244C105.508 45.3344 105.315 45.4995 105.155 45.7195C104.994 45.9396 104.869 46.2083 104.78 46.5257C104.691 46.8431 104.647 47.2091 104.647 47.6238V47.8904C104.647 48.2163 104.691 48.5231 104.78 48.8108C104.873 49.0944 105.006 49.344 105.18 49.5599C105.358 49.7757 105.571 49.945 105.821 50.0677C106.075 50.1904 106.363 50.2518 106.684 50.2518C107.099 50.2518 107.45 50.1671 107.738 49.9979C108.026 49.8286 108.278 49.6022 108.493 49.3187L109.204 49.8836C109.056 50.1079 108.868 50.3216 108.639 50.5247C108.411 50.7278 108.129 50.8929 107.795 51.0198C107.465 51.1468 107.074 51.2103 106.621 51.2103ZM114.713 50.2454C114.992 50.2454 115.25 50.1883 115.487 50.074C115.724 49.9598 115.919 49.8032 116.071 49.6043C116.224 49.4012 116.31 49.1705 116.332 48.9124H117.449C117.428 49.3187 117.29 49.6974 117.036 50.0486C116.786 50.3956 116.458 50.6771 116.052 50.8929C115.646 51.1045 115.2 51.2103 114.713 51.2103C114.197 51.2103 113.746 51.1193 113.361 50.9373C112.98 50.7553 112.663 50.5057 112.409 50.1883C112.159 49.8709 111.971 49.507 111.844 49.0965C111.721 48.6818 111.66 48.2438 111.66 47.7825V47.5159C111.66 47.0547 111.721 46.6188 111.844 46.2083C111.971 45.7936 112.159 45.4275 112.409 45.1102C112.663 44.7928 112.98 44.5431 113.361 44.3611C113.746 44.1792 114.197 44.0882 114.713 44.0882C115.25 44.0882 115.72 44.1982 116.122 44.4183C116.524 44.6341 116.839 44.9303 117.068 45.3069C117.301 45.6793 117.428 46.1025 117.449 46.5765H116.332C116.31 46.2929 116.23 46.0369 116.09 45.8084C115.955 45.5799 115.769 45.3979 115.532 45.2625C115.299 45.1229 115.026 45.053 114.713 45.053C114.353 45.053 114.051 45.125 113.805 45.2688C113.564 45.4085 113.371 45.5989 113.228 45.8401C113.088 46.0771 112.986 46.3416 112.923 46.6336C112.864 46.9214 112.834 47.2155 112.834 47.5159V47.7825C112.834 48.083 112.864 48.3792 112.923 48.6712C112.982 48.9632 113.082 49.2277 113.221 49.4646C113.365 49.7016 113.558 49.8921 113.799 50.0359C114.044 50.1756 114.349 50.2454 114.713 50.2454ZM121.243 41.3333V51.0833H120.069V41.3333H121.243ZM120.964 47.389L120.475 47.3699C120.479 46.9002 120.549 46.4664 120.685 46.0687C120.82 45.6666 121.011 45.3175 121.256 45.0213C121.501 44.7251 121.793 44.4965 122.132 44.3357C122.475 44.1707 122.854 44.0882 123.268 44.0882C123.607 44.0882 123.911 44.1347 124.182 44.2278C124.453 44.3167 124.684 44.4606 124.874 44.6595C125.069 44.8584 125.217 45.1165 125.319 45.4339C125.42 45.747 125.471 46.13 125.471 46.5828V51.0833H124.29V46.5701C124.29 46.2104 124.237 45.9227 124.132 45.7068C124.026 45.4868 123.871 45.3281 123.668 45.2308C123.465 45.1292 123.215 45.0784 122.919 45.0784C122.627 45.0784 122.361 45.1398 122.119 45.2625C121.882 45.3852 121.677 45.5545 121.504 45.7703C121.334 45.9861 121.201 46.2337 121.104 46.513C121.011 46.7881 120.964 47.08 120.964 47.389ZM132.579 49.909V46.3733C132.579 46.1025 132.524 45.8676 132.414 45.6687C132.308 45.4656 132.147 45.309 131.932 45.199C131.716 45.089 131.449 45.034 131.132 45.034C130.835 45.034 130.575 45.0848 130.351 45.1863C130.131 45.2879 129.957 45.4212 129.83 45.5862C129.708 45.7513 129.646 45.929 129.646 46.1194H128.472C128.472 45.874 128.536 45.6307 128.662 45.3895C128.789 45.1482 128.971 44.9303 129.208 44.7356C129.45 44.5368 129.737 44.3802 130.072 44.2659C130.41 44.1474 130.787 44.0882 131.202 44.0882C131.701 44.0882 132.141 44.1728 132.522 44.3421C132.907 44.5114 133.207 44.7674 133.423 45.1102C133.643 45.4487 133.753 45.874 133.753 46.386V49.5853C133.753 49.8138 133.772 50.0571 133.81 50.3152C133.853 50.5734 133.914 50.7955 133.995 50.9817V51.0833H132.769C132.71 50.9479 132.664 50.768 132.63 50.5437C132.596 50.3152 132.579 50.1036 132.579 49.909ZM132.782 46.9192L132.795 47.7444H131.608C131.273 47.7444 130.975 47.7719 130.713 47.827C130.45 47.8777 130.23 47.956 130.053 48.0618C129.875 48.1676 129.739 48.3009 129.646 48.4617C129.553 48.6183 129.507 48.8024 129.507 49.014C129.507 49.2298 129.555 49.4266 129.653 49.6043C129.75 49.782 129.896 49.9238 130.091 50.0296C130.29 50.1312 130.533 50.1819 130.821 50.1819C131.18 50.1819 131.498 50.1058 131.773 49.9534C132.048 49.8011 132.266 49.6149 132.427 49.3948C132.592 49.1748 132.681 48.9611 132.693 48.7537L133.195 49.3187C133.165 49.4964 133.085 49.6932 132.953 49.909C132.822 50.1248 132.647 50.3322 132.427 50.5311C132.211 50.7257 131.953 50.8886 131.652 51.0198C131.356 51.1468 131.022 51.2103 130.649 51.2103C130.184 51.2103 129.775 51.1193 129.424 50.9373C129.077 50.7553 128.806 50.512 128.612 50.2073C128.421 49.8984 128.326 49.5535 128.326 49.1727C128.326 48.8045 128.398 48.4808 128.542 48.2015C128.686 47.9179 128.893 47.6831 129.164 47.4969C129.435 47.3064 129.761 47.1626 130.141 47.0652C130.522 46.9679 130.948 46.9192 131.417 46.9192H132.782ZM138.075 45.2942V51.0833H136.9V44.2151H138.043L138.075 45.2942ZM140.22 44.1771L140.214 45.2688C140.117 45.2477 140.024 45.235 139.935 45.2308C139.85 45.2223 139.753 45.2181 139.643 45.2181C139.372 45.2181 139.133 45.2604 138.925 45.345C138.718 45.4297 138.542 45.5481 138.399 45.7005C138.255 45.8528 138.14 46.0348 138.056 46.2464C137.975 46.4537 137.922 46.6823 137.897 46.9319L137.567 47.1224C137.567 46.7076 137.607 46.3183 137.688 45.9544C137.772 45.5905 137.901 45.2688 138.075 44.9895C138.248 44.706 138.468 44.486 138.735 44.3294C139.006 44.1686 139.327 44.0882 139.7 44.0882C139.784 44.0882 139.882 44.0988 139.992 44.1199C140.102 44.1368 140.178 44.1559 140.22 44.1771ZM152.888 48.1443H154.106C154.043 48.7283 153.876 49.2509 153.605 49.7122C153.334 50.1735 152.951 50.5395 152.456 50.8104C151.961 51.077 151.343 51.2103 150.603 51.2103C150.061 51.2103 149.568 51.1087 149.124 50.9056C148.683 50.7024 148.305 50.4147 147.987 50.0423C147.67 49.6657 147.424 49.215 147.251 48.6902C147.082 48.1613 146.997 47.573 146.997 46.9256V46.0052C146.997 45.3577 147.082 44.7716 147.251 44.2469C147.424 43.7179 147.672 43.2651 147.994 42.8885C148.319 42.5118 148.711 42.222 149.168 42.0188C149.625 41.8157 150.139 41.7142 150.71 41.7142C151.409 41.7142 151.999 41.8453 152.481 42.1077C152.964 42.3701 153.338 42.734 153.605 43.1995C153.876 43.6608 154.043 44.1961 154.106 44.8055H152.888C152.828 44.3738 152.718 44.0035 152.558 43.6946C152.397 43.3815 152.168 43.1403 151.872 42.971C151.576 42.8017 151.189 42.7171 150.71 42.7171C150.3 42.7171 149.938 42.7954 149.625 42.952C149.316 43.1085 149.056 43.3307 148.844 43.6185C148.637 43.9062 148.48 44.2511 148.374 44.6531C148.269 45.0551 148.216 45.5016 148.216 45.9925V46.9256C148.216 47.3784 148.262 47.8037 148.355 48.2015C148.453 48.5993 148.599 48.9484 148.793 49.2488C148.988 49.5493 149.236 49.7863 149.536 49.9598C149.837 50.129 150.192 50.2137 150.603 50.2137C151.123 50.2137 151.538 50.1312 151.847 49.9661C152.156 49.8011 152.388 49.5641 152.545 49.2552C152.706 48.9463 152.82 48.576 152.888 48.1443ZM156.587 47.7254V47.5794C156.587 47.0843 156.659 46.6251 156.803 46.202C156.947 45.7745 157.154 45.4043 157.425 45.0911C157.696 44.7737 158.024 44.5283 158.409 44.3548C158.794 44.1771 159.226 44.0882 159.704 44.0882C160.186 44.0882 160.62 44.1771 161.005 44.3548C161.394 44.5283 161.724 44.7737 161.995 45.0911C162.27 45.4043 162.48 45.7745 162.624 46.202C162.768 46.6251 162.84 47.0843 162.84 47.5794V47.7254C162.84 48.2205 162.768 48.6797 162.624 49.1028C162.48 49.526 162.27 49.8963 161.995 50.2137C161.724 50.5268 161.396 50.7723 161.011 50.95C160.631 51.1235 160.199 51.2103 159.716 51.2103C159.234 51.2103 158.8 51.1235 158.415 50.95C158.03 50.7723 157.7 50.5268 157.425 50.2137C157.154 49.8963 156.947 49.526 156.803 49.1028C156.659 48.6797 156.587 48.2205 156.587 47.7254ZM157.761 47.5794V47.7254C157.761 48.0682 157.802 48.3919 157.882 48.6966C157.962 48.997 158.083 49.2636 158.244 49.4964C158.409 49.7291 158.614 49.9132 158.86 50.0486C159.105 50.1798 159.391 50.2454 159.716 50.2454C160.038 50.2454 160.319 50.1798 160.561 50.0486C160.806 49.9132 161.009 49.7291 161.17 49.4964C161.331 49.2636 161.451 48.997 161.532 48.6966C161.617 48.3919 161.659 48.0682 161.659 47.7254V47.5794C161.659 47.2409 161.617 46.9214 161.532 46.6209C161.451 46.3162 161.329 46.0475 161.164 45.8147C161.003 45.5778 160.8 45.3916 160.554 45.2562C160.313 45.1207 160.03 45.053 159.704 45.053C159.382 45.053 159.099 45.1207 158.853 45.2562C158.612 45.3916 158.409 45.5778 158.244 45.8147C158.083 46.0475 157.962 46.3162 157.882 46.6209C157.802 46.9214 157.761 47.2409 157.761 47.5794ZM166.78 45.5799V51.0833H165.599V44.2151H166.717L166.78 45.5799ZM166.539 47.389L165.993 47.3699C165.997 46.9002 166.059 46.4664 166.177 46.0687C166.296 45.6666 166.471 45.3175 166.704 45.0213C166.937 44.7251 167.227 44.4965 167.574 44.3357C167.921 44.1707 168.323 44.0882 168.78 44.0882C169.101 44.0882 169.397 44.1347 169.668 44.2278C169.939 44.3167 170.174 44.4585 170.373 44.6531C170.572 44.8478 170.726 45.0975 170.836 45.4021C170.946 45.7068 171.001 46.075 171.001 46.5066V51.0833H169.827V46.5638C169.827 46.2041 169.766 45.9163 169.643 45.7005C169.524 45.4847 169.355 45.3281 169.135 45.2308C168.915 45.1292 168.657 45.0784 168.361 45.0784C168.014 45.0784 167.724 45.1398 167.491 45.2625C167.258 45.3852 167.072 45.5545 166.932 45.7703C166.793 45.9861 166.691 46.2337 166.628 46.513C166.569 46.7881 166.539 47.08 166.539 47.389ZM170.989 46.7415L170.202 46.9827C170.206 46.6061 170.267 46.2443 170.386 45.8973C170.508 45.5503 170.684 45.2413 170.912 44.9705C171.145 44.6997 171.431 44.486 171.769 44.3294C172.108 44.1686 172.495 44.0882 172.931 44.0882C173.299 44.0882 173.625 44.1368 173.909 44.2342C174.196 44.3315 174.438 44.4817 174.632 44.6849C174.831 44.8838 174.981 45.1398 175.083 45.4529C175.184 45.7661 175.235 46.1385 175.235 46.5701V51.0833H174.055V46.5574C174.055 46.1723 173.993 45.874 173.87 45.6624C173.752 45.4466 173.583 45.2964 173.363 45.2117C173.147 45.1229 172.889 45.0784 172.588 45.0784C172.33 45.0784 172.102 45.1229 171.903 45.2117C171.704 45.3006 171.537 45.4233 171.401 45.5799C171.266 45.7322 171.162 45.9078 171.09 46.1067C171.022 46.3056 170.989 46.5172 170.989 46.7415ZM179.487 45.5354V53.7239H178.306V44.2151H179.385L179.487 45.5354ZM184.114 47.5921V47.7254C184.114 48.2247 184.055 48.6881 183.937 49.1155C183.818 49.5387 183.645 49.9069 183.416 50.22C183.192 50.5332 182.915 50.7765 182.585 50.95C182.254 51.1235 181.876 51.2103 181.448 51.2103C181.012 51.2103 180.627 51.1383 180.293 50.9944C179.959 50.8506 179.675 50.6411 179.442 50.366C179.21 50.0909 179.024 49.7609 178.884 49.3758C178.748 48.9907 178.655 48.5569 178.605 48.0745V47.3636C178.655 46.8558 178.751 46.4008 178.89 45.9988C179.03 45.5968 179.214 45.254 179.442 44.9705C179.675 44.6827 179.957 44.4648 180.287 44.3167C180.617 44.1644 180.998 44.0882 181.429 44.0882C181.861 44.0882 182.244 44.1728 182.578 44.3421C182.912 44.5071 183.194 44.7441 183.422 45.053C183.651 45.3619 183.822 45.7322 183.937 46.1639C184.055 46.5913 184.114 47.0673 184.114 47.5921ZM182.934 47.7254V47.5921C182.934 47.2493 182.898 46.9277 182.826 46.6272C182.754 46.3226 182.642 46.056 182.489 45.8274C182.341 45.5947 182.151 45.4127 181.918 45.2815C181.685 45.1461 181.408 45.0784 181.086 45.0784C180.79 45.0784 180.532 45.1292 180.312 45.2308C180.096 45.3323 179.912 45.4699 179.76 45.6434C179.607 45.8126 179.483 46.0073 179.385 46.2273C179.292 46.4432 179.222 46.6674 179.176 46.9002V48.5442C179.26 48.8405 179.379 49.1198 179.531 49.3821C179.684 49.6403 179.887 49.8497 180.141 50.0105C180.395 50.1671 180.714 50.2454 181.099 50.2454C181.417 50.2454 181.69 50.1798 181.918 50.0486C182.151 49.9132 182.341 49.7291 182.489 49.4964C182.642 49.2636 182.754 48.997 182.826 48.6966C182.898 48.3919 182.934 48.0682 182.934 47.7254ZM190.962 49.909V46.3733C190.962 46.1025 190.907 45.8676 190.797 45.6687C190.691 45.4656 190.531 45.309 190.315 45.199C190.099 45.089 189.832 45.034 189.515 45.034C189.219 45.034 188.958 45.0848 188.734 45.1863C188.514 45.2879 188.341 45.4212 188.214 45.5862C188.091 45.7513 188.03 45.929 188.03 46.1194H186.855C186.855 45.874 186.919 45.6307 187.046 45.3895C187.173 45.1482 187.355 44.9303 187.592 44.7356C187.833 44.5368 188.121 44.3802 188.455 44.2659C188.793 44.1474 189.17 44.0882 189.585 44.0882C190.084 44.0882 190.524 44.1728 190.905 44.3421C191.29 44.5114 191.591 44.7674 191.806 45.1102C192.026 45.4487 192.136 45.874 192.136 46.386V49.5853C192.136 49.8138 192.156 50.0571 192.194 50.3152C192.236 50.5734 192.297 50.7955 192.378 50.9817V51.0833H191.153C191.093 50.9479 191.047 50.768 191.013 50.5437C190.979 50.3152 190.962 50.1036 190.962 49.909ZM191.165 46.9192L191.178 47.7444H189.991C189.657 47.7444 189.358 47.7719 189.096 47.827C188.834 47.8777 188.614 47.956 188.436 48.0618C188.258 48.1676 188.123 48.3009 188.03 48.4617C187.936 48.6183 187.89 48.8024 187.89 49.014C187.89 49.2298 187.939 49.4266 188.036 49.6043C188.133 49.782 188.279 49.9238 188.474 50.0296C188.673 50.1312 188.916 50.1819 189.204 50.1819C189.564 50.1819 189.881 50.1058 190.156 49.9534C190.431 49.8011 190.649 49.6149 190.81 49.3948C190.975 49.1748 191.064 48.9611 191.076 48.7537L191.578 49.3187C191.548 49.4964 191.468 49.6932 191.337 49.909C191.206 50.1248 191.03 50.3322 190.81 50.5311C190.594 50.7257 190.336 50.8886 190.035 51.0198C189.739 51.1468 189.405 51.2103 189.032 51.2103C188.567 51.2103 188.159 51.1193 187.807 50.9373C187.46 50.7553 187.19 50.512 186.995 50.2073C186.804 49.8984 186.709 49.5535 186.709 49.1727C186.709 48.8045 186.781 48.4808 186.925 48.2015C187.069 47.9179 187.276 47.6831 187.547 47.4969C187.818 47.3064 188.144 47.1626 188.525 47.0652C188.906 46.9679 189.331 46.9192 189.801 46.9192H191.165ZM196.458 45.6814V51.0833H195.284V44.2151H196.395L196.458 45.6814ZM196.179 47.389L195.69 47.3699C195.694 46.9002 195.764 46.4664 195.899 46.0687C196.035 45.6666 196.225 45.3175 196.471 45.0213C196.716 44.7251 197.008 44.4965 197.347 44.3357C197.689 44.1707 198.068 44.0882 198.483 44.0882C198.821 44.0882 199.126 44.1347 199.397 44.2278C199.668 44.3167 199.898 44.4606 200.089 44.6595C200.284 44.8584 200.432 45.1165 200.533 45.4339C200.635 45.747 200.686 46.13 200.686 46.5828V51.0833H199.505V46.5701C199.505 46.2104 199.452 45.9227 199.346 45.7068C199.24 45.4868 199.086 45.3281 198.883 45.2308C198.68 45.1292 198.43 45.0784 198.134 45.0784C197.842 45.0784 197.575 45.1398 197.334 45.2625C197.097 45.3852 196.892 45.5545 196.718 45.7703C196.549 45.9861 196.416 46.2337 196.318 46.513C196.225 46.7881 196.179 47.08 196.179 47.389ZM205.699 50.3724L207.61 44.2151H208.866L206.111 52.1434C206.048 52.3126 205.963 52.4946 205.858 52.6893C205.756 52.8882 205.625 53.0765 205.464 53.2542C205.303 53.4319 205.109 53.5758 204.88 53.6858C204.656 53.8001 204.387 53.8572 204.074 53.8572C203.981 53.8572 203.862 53.8445 203.718 53.8191C203.575 53.7937 203.473 53.7726 203.414 53.7557L203.407 52.8035C203.441 52.8077 203.494 52.812 203.566 52.8162C203.642 52.8247 203.695 52.8289 203.725 52.8289C203.991 52.8289 204.218 52.7929 204.404 52.721C204.59 52.6533 204.747 52.5369 204.874 52.3719C205.005 52.2111 205.117 51.9889 205.21 51.7054L205.699 50.3724ZM204.296 44.2151L206.08 49.5472L206.384 50.785L205.54 51.2166L203.014 44.2151H204.296Z" fill="#1D3960"/>
</g>
<defs>
<clipPath id="clip0_285_784">
<rect width="215" height="54" fill="white"/>
</clipPath>
</defs>
</svg>
