<svg width="30" height="30" viewBox="0 0 30 30" fill="none" xmlns="http://www.w3.org/2000/svg">
<rect width="30" height="30" rx="5" fill="#EA4C89"/>
<g clip-path="url(#clip0_200_1863)">
<path d="M14.75 9C13.1217 9 12.917 9.0075 12.2773 9.036C11.6375 9.066 11.2018 9.1665 10.82 9.315C10.4196 9.46561 10.0569 9.70187 9.75725 10.0073C9.45206 10.307 9.21583 10.6697 9.065 11.07C8.9165 11.451 8.81525 11.8875 8.786 12.525C8.7575 13.1662 8.75 13.3703 8.75 15.0008C8.75 16.6298 8.7575 16.8338 8.786 17.4735C8.816 18.1125 8.9165 18.5483 9.065 18.93C9.21875 19.3245 9.4235 19.659 9.75725 19.9928C10.0903 20.3265 10.4248 20.532 10.8193 20.685C11.2018 20.8335 11.6368 20.9347 12.2758 20.964C12.9163 20.9925 13.1202 21 14.75 21C16.3798 21 16.583 20.9925 17.2235 20.964C17.8618 20.934 18.299 20.8335 18.6807 20.685C19.0809 20.5343 19.4434 20.2981 19.7428 19.9928C20.0765 19.659 20.2812 19.3245 20.435 18.93C20.5828 18.5483 20.684 18.1125 20.714 17.4735C20.7425 16.8338 20.75 16.6298 20.75 15C20.75 13.3702 20.7425 13.1663 20.714 12.5258C20.684 11.8875 20.5828 11.451 20.435 11.07C20.2842 10.6697 20.048 10.307 19.7428 10.0073C19.4432 9.70176 19.0805 9.46548 18.68 9.315C18.2975 9.1665 17.861 9.06525 17.2227 9.036C16.5823 9.0075 16.379 9 14.7485 9H14.7508H14.75ZM14.2122 10.0815H14.7508C16.3528 10.0815 16.5425 10.0868 17.1747 10.116C17.7597 10.1423 18.0778 10.2405 18.2892 10.3223C18.569 10.431 18.7692 10.5615 18.9792 10.7715C19.1892 10.9815 19.319 11.181 19.4278 11.4615C19.5103 11.6723 19.6077 11.9903 19.634 12.5753C19.6632 13.2075 19.6693 13.3973 19.6693 14.9985C19.6693 16.5998 19.6632 16.7902 19.634 17.4225C19.6077 18.0075 19.5095 18.3247 19.4278 18.5363C19.3316 18.7968 19.178 19.0323 18.9785 19.2255C18.7685 19.4355 18.569 19.5653 18.2885 19.674C18.0785 19.7565 17.7605 19.854 17.1747 19.881C16.5425 19.9095 16.3528 19.9163 14.7508 19.9163C13.1488 19.9163 12.9583 19.9095 12.326 19.881C11.741 19.854 11.4237 19.7565 11.2122 19.674C10.9516 19.5779 10.7158 19.4247 10.5222 19.2255C10.3226 19.032 10.1688 18.7962 10.0723 18.5355C9.9905 18.3247 9.89225 18.0068 9.866 17.4218C9.8375 16.7895 9.8315 16.5998 9.8315 14.997C9.8315 13.395 9.8375 13.206 9.866 12.5738C9.893 11.9887 9.9905 11.6708 10.073 11.4592C10.1818 11.1795 10.3122 10.9792 10.5222 10.7692C10.7322 10.5592 10.9318 10.4295 11.2122 10.3207C11.4237 10.2383 11.741 10.1408 12.326 10.1137C12.8795 10.0883 13.094 10.0807 14.2122 10.08V10.0815ZM17.9532 11.0775C17.8587 11.0775 17.7651 11.0961 17.6777 11.1323C17.5904 11.1685 17.511 11.2215 17.4441 11.2884C17.3773 11.3552 17.3242 11.4346 17.2881 11.522C17.2519 11.6093 17.2332 11.7029 17.2332 11.7975C17.2332 11.8921 17.2519 11.9857 17.2881 12.073C17.3242 12.1604 17.3773 12.2398 17.4441 12.3066C17.511 12.3735 17.5904 12.4265 17.6777 12.4627C17.7651 12.4989 17.8587 12.5175 17.9532 12.5175C18.1442 12.5175 18.3273 12.4416 18.4624 12.3066C18.5974 12.1716 18.6733 11.9885 18.6733 11.7975C18.6733 11.6065 18.5974 11.4234 18.4624 11.2884C18.3273 11.1534 18.1442 11.0775 17.9532 11.0775ZM14.7508 11.919C14.3421 11.9126 13.9362 11.9876 13.5567 12.1396C13.1773 12.2916 12.8319 12.5176 12.5406 12.8043C12.2493 13.0911 12.018 13.4329 11.8601 13.8099C11.7022 14.187 11.6209 14.5916 11.6209 15.0004C11.6209 15.4091 11.7022 15.8138 11.8601 16.1908C12.018 16.5678 12.2493 16.9097 12.5406 17.1964C12.8319 17.4832 13.1773 17.7092 13.5567 17.8611C13.9362 18.0131 14.3421 18.0881 14.7508 18.0817C15.5597 18.0691 16.3312 17.7389 16.8987 17.1624C17.4663 16.5859 17.7844 15.8094 17.7844 15.0004C17.7844 14.1914 17.4663 13.4148 16.8987 12.8383C16.3312 12.2618 15.5597 11.9316 14.7508 11.919ZM14.7508 12.9998C15.2812 12.9998 15.79 13.2105 16.1651 13.5856C16.5403 13.9607 16.751 14.4695 16.751 15C16.751 15.5305 16.5403 16.0393 16.1651 16.4144C15.79 16.7895 15.2812 17.0002 14.7508 17.0002C14.2203 17.0002 13.7115 16.7895 13.3364 16.4144C12.9612 16.0393 12.7505 15.5305 12.7505 15C12.7505 14.4695 12.9612 13.9607 13.3364 13.5856C13.7115 13.2105 14.2203 12.9998 14.7508 12.9998Z" fill="white"/>
</g>
<defs>
<clipPath id="clip0_200_1863">
<rect width="12" height="12" fill="white" transform="translate(8.75 9)"/>
</clipPath>
</defs>
</svg>
