<svg width="20" height="20" viewBox="0 0 20 20" fill="none" xmlns="http://www.w3.org/2000/svg">
<path fill-rule="evenodd" clip-rule="evenodd" d="M11 1.875H9C6.03146 1.875 4.54719 1.875 3.50668 2.63097C3.17064 2.87512 2.87512 3.17064 2.63097 3.50668C1.875 4.54719 1.875 6.03146 1.875 9V11C1.875 13.9685 1.875 15.4528 2.63097 16.4933C2.87512 16.8294 3.17064 17.1249 3.50668 17.369C4.54719 18.125 6.03146 18.125 9 18.125H11C13.9685 18.125 15.4528 18.125 16.4933 17.369C16.8294 17.1249 17.1249 16.8294 17.369 16.4933C18.125 15.4528 18.125 13.9685 18.125 11V9C18.125 6.03146 18.125 4.54719 17.369 3.50668C17.1249 3.17064 16.8294 2.87512 16.4933 2.63097C15.4528 1.875 13.9685 1.875 11 1.875ZM13.3333 10C13.3333 11.8409 11.8409 13.3333 10 13.3333C8.15905 13.3333 6.66667 11.8409 6.66667 10C6.66667 8.15905 8.15905 6.66667 10 6.66667C11.8409 6.66667 13.3333 8.15905 13.3333 10ZM14.5833 6.25C15.0436 6.25 15.4167 5.8769 15.4167 5.41667C15.4167 4.95643 15.0436 4.58333 14.5833 4.58333C14.1231 4.58333 13.75 4.95643 13.75 5.41667C13.75 5.8769 14.1231 6.25 14.5833 6.25Z" fill="#1D3960"/>
</svg>
