<svg width="871" height="198" viewBox="0 0 871 198" fill="none" xmlns="http://www.w3.org/2000/svg">
<path d="M117.73 145.21H116.83L0 144.67L50.52 87.89L68.65 87.54L33.12 127.47L115.36 127.85L213.34 17.74L114.11 17.28L129.63 0L246.46 0.540009L117.73 145.21Z" fill="#00ACE8"/>
<path d="M97.2605 117.061L139.59 69.4911L153.26 69.5711L168.64 52.2911L138.12 52.1311L137.22 52.1211L79.4805 117.011L97.2605 117.061Z" fill="white"/>
<path d="M137.97 145.702L154.78 145.212L123.85 179.982L41.6102 179.602L63.0702 155.482L45.3202 155.412L8.49023 196.802L125.32 197.332L126.22 197.342L187.84 128.082L153.71 128.172L137.97 145.702Z" fill="white"/>
<path d="M214.47 52.4609L199.12 69.7409L221.83 69.8609L196.33 98.1509L214.58 97.6609L254.95 52.6609L214.47 52.4609Z" fill="white"/>
<path d="M275.52 91.7811H292.75V102.611C292.75 104.051 293.57 104.781 295.21 104.781H296.29C297.93 104.781 298.75 104.061 298.75 102.611V53.8711H315.98V104.881C315.98 113.021 311.16 117.091 301.51 117.091H289.99C280.34 117.091 275.51 113.021 275.51 104.881V91.7811H275.52Z" fill="white"/>
<path d="M351.44 53.8711H366.01C375.66 53.8711 380.49 57.9411 380.49 66.0811V104.881C380.49 113.021 375.67 117.091 366.01 117.091H351.44C341.79 117.091 336.97 113.021 336.97 104.881V66.0811C336.97 57.9411 341.79 53.8711 351.44 53.8711ZM363.26 102.611V68.3411C363.26 66.9011 362.44 66.1711 360.8 66.1711H356.66C355.02 66.1711 354.2 66.8911 354.2 68.3411V102.611C354.2 104.051 355.02 104.781 356.66 104.781H360.8C362.44 104.781 363.26 104.061 363.26 102.611Z" fill="white"/>
<path d="M431.2 53.8711H448.14V117.091H431.2V92.0811H418.79V117.091H401.85V53.8711H418.79V79.7711H431.2V53.8711Z" fill="white"/>
<path d="M498.65 53.8711H514.41V117.091H499.64L485.56 83.9011V117.091H469.8V53.8711H484.57L498.65 87.6511V53.8711Z" fill="white"/>
<path d="M612 75.5428H594.77V67.3728C594.77 65.9328 593.95 65.2028 592.31 65.2028H588.77C587.13 65.2028 586.31 65.9228 586.31 67.3728V103.613C586.31 105.053 587.13 105.783 588.77 105.783H592.31C593.95 105.783 594.77 105.063 594.77 103.613V93.0728H589.85V82.1428H612.01V104.893C612.01 113.033 607.18 117.103 597.53 117.103H583.55C573.9 117.103 569.08 113.033 569.08 104.893V66.0928C569.08 57.9528 573.9 53.8828 583.55 53.8828H597.53C607.18 53.8828 612.01 57.9528 612.01 66.0928V75.5428H612Z" fill="white"/>
<path d="M649.91 94.6411V117.091H632.68V53.8711H661.93C671.58 53.8711 676.41 57.9411 676.41 66.0811V82.4311C676.41 88.6711 673.59 92.5111 667.94 93.9511L679.56 117.091H661.05L651.01 94.6411H649.93H649.91ZM656.7 66.1811H649.91V82.9211H656.7C658.34 82.9211 659.16 82.2011 659.16 80.7511V68.3411C659.16 66.9011 658.34 66.1711 656.7 66.1711V66.1811Z" fill="white"/>
<path d="M711.26 53.8711H725.83C735.48 53.8711 740.31 57.9411 740.31 66.0811V104.881C740.31 113.021 735.49 117.091 725.83 117.091H711.26C701.61 117.091 696.79 113.021 696.79 104.881V66.0811C696.79 57.9411 701.61 53.8711 711.26 53.8711ZM723.07 102.611V68.3411C723.07 66.9011 722.25 66.1711 720.61 66.1711H716.47C714.83 66.1711 714.01 66.8911 714.01 68.3411V102.611C714.01 104.051 714.83 104.781 716.47 104.781H720.61C722.25 104.781 723.07 104.061 723.07 102.611Z" fill="white"/>
<path d="M787.97 53.8711H805.2V104.881C805.2 113.021 800.38 117.091 790.72 117.091H776.15C766.5 117.091 761.67 113.021 761.67 104.881V53.8711H778.9V102.611C778.9 104.051 779.72 104.781 781.36 104.781H785.5C787.14 104.781 787.96 104.061 787.96 102.611V53.8711H787.97Z" fill="white"/>
<path d="M826.86 53.8711H856.11C865.76 53.8711 870.59 57.9411 870.59 66.0811V84.2011C870.59 92.3411 865.77 96.4111 856.11 96.4111H844.1V117.091H826.87V53.8711H826.86ZM853.35 81.9411V68.3511C853.35 66.9111 852.53 66.1811 850.89 66.1811H844.1V84.1011H850.89C852.53 84.1011 853.35 83.3811 853.35 81.9311V81.9411Z" fill="white"/>
<path d="M275.52 139.93H285.99C289.47 139.93 291.21 141.4 291.21 144.33V158.31C291.21 161.24 289.47 162.71 285.99 162.71H275.52V139.93ZM284.99 157.85V144.79C284.99 144.27 284.69 144.01 284.1 144.01H281.72V158.63H284.1C284.69 158.63 284.99 158.37 284.99 157.85Z" fill="#00ACE8"/>
<path d="M318.07 139.93H324.28V162.71H318.07V139.93Z" fill="#00ACE8"/>
<path d="M357.46 158.27H365.23V162.71H351.25V139.93H364.91V144.37H357.46V149.02H363.88V153.46H357.46V158.29V158.27Z" fill="#00ACE8"/>
<path d="M428.76 158.27H435.82V162.71H422.55V139.93H428.76V158.28V158.27Z" fill="#00ACE8"/>
<path d="M466.49 139.931H471.74C475.22 139.931 476.96 141.401 476.96 144.331V158.311C476.96 161.241 475.22 162.711 471.74 162.711H466.49C463.01 162.711 461.27 161.241 461.27 158.311V144.331C461.27 141.401 463.01 139.931 466.49 139.931ZM467.55 134.141V138.751H462.16V134.141H467.55ZM470.75 157.491V145.141C470.75 144.621 470.45 144.361 469.86 144.361H468.37C467.78 144.361 467.48 144.621 467.48 145.141V157.491C467.48 158.011 467.78 158.271 468.37 158.271H469.86C470.45 158.271 470.75 158.011 470.75 157.491ZM476.07 134.141V138.751H470.68V134.141H476.07Z" fill="#00ACE8"/>
<path d="M511.98 157.49V154.26C511.98 153.74 511.68 153.48 511.09 153.48H507.68C505.93 153.48 504.69 153.1 503.97 152.33C503.25 151.56 502.89 150.45 502.89 149.01V144.33C502.89 141.4 504.62 139.93 508.07 139.93H512.93C516.38 139.93 518.11 141.4 518.11 144.33V147.06H511.9V145.14C511.9 144.62 511.6 144.36 511.01 144.36H509.98C509.39 144.36 509.09 144.62 509.09 145.14V148.51C509.09 149.03 509.39 149.29 509.98 149.29H513.32C515.07 149.29 516.32 149.66 517.06 150.39C517.8 151.12 518.18 152.2 518.18 153.62V158.3C518.18 161.23 516.45 162.7 513 162.7H508.17C504.69 162.7 502.95 161.23 502.95 158.3V155.57H509.16V157.49C509.16 158.01 509.46 158.27 510.05 158.27H511.08C511.67 158.27 511.97 158.01 511.97 157.49H511.98Z" fill="#00ACE8"/>
<path d="M554.29 139.93H560.5V158.31C560.5 161.24 558.76 162.71 555.28 162.71H550.03C546.55 162.71 544.81 161.24 544.81 158.31V139.93H551.02V157.5C551.02 158.02 551.32 158.28 551.91 158.28H553.4C553.99 158.28 554.29 158.02 554.29 157.5V139.93Z" fill="#00ACE8"/>
<path d="M597.87 139.93H603.55V162.71H598.23L593.15 150.75V162.71H587.47V139.93H592.79L597.87 152.1V139.93Z" fill="#00ACE8"/>
<path d="M645.82 147.732H639.61V144.782C639.61 144.262 639.31 144.002 638.72 144.002H637.44C636.85 144.002 636.55 144.262 636.55 144.782V157.842C636.55 158.362 636.85 158.622 637.44 158.622H638.72C639.31 158.622 639.61 158.362 639.61 157.842V154.042H637.84V150.102H645.83V158.302C645.83 161.232 644.09 162.702 640.61 162.702H635.57C632.09 162.702 630.35 161.232 630.35 158.302V144.322C630.35 141.392 632.09 139.922 635.57 139.922H640.61C644.09 139.922 645.83 141.392 645.83 144.322V147.732H645.82Z" fill="#00ACE8"/>
</svg>
