<svg width="20" height="21" viewBox="0 0 20 21" fill="none" xmlns="http://www.w3.org/2000/svg">
<path fill-rule="evenodd" clip-rule="evenodd" d="M1.875 9.5C1.875 6.53146 1.875 5.04719 2.63097 4.00668C2.87512 3.67064 3.17064 3.37512 3.50668 3.13097C4.54719 2.375 6.03146 2.375 9 2.375H11C13.9685 2.375 15.4528 2.375 16.4933 3.13097C16.8294 3.37512 17.1249 3.67064 17.369 4.00668C18.125 5.04719 18.125 6.53146 18.125 9.5V11.5C18.125 14.4685 18.125 15.9528 17.369 16.9933C17.1249 17.3294 16.8294 17.6249 16.4933 17.869C15.4528 18.625 13.9685 18.625 11 18.625H9C6.03146 18.625 4.54719 18.625 3.50668 17.869C3.17064 17.6249 2.87512 17.3294 2.63097 16.9933C1.875 15.9528 1.875 14.4685 1.875 11.5V9.5ZM6.25 8.625C6.59518 8.625 6.875 8.90482 6.875 9.25V14.25C6.875 14.5952 6.59518 14.875 6.25 14.875C5.90482 14.875 5.625 14.5952 5.625 14.25V9.25C5.625 8.90482 5.90482 8.625 6.25 8.625ZM9.16667 8.625C9.51184 8.625 9.79167 8.90482 9.79167 9.25V9.43838C10.3977 8.93067 11.1788 8.625 12.0312 8.625C13.3257 8.625 14.375 9.67433 14.375 10.9688V14.25C14.375 14.5952 14.0952 14.875 13.75 14.875C13.4048 14.875 13.125 14.5952 13.125 14.25V10.9688C13.125 10.3647 12.6353 9.875 12.0312 9.875C10.7944 9.875 9.79167 10.8777 9.79167 12.1146V14.25C9.79167 14.5952 9.51184 14.875 9.16667 14.875C8.82149 14.875 8.54167 14.5952 8.54167 14.25V12.1146V9.25C8.54167 8.90482 8.82149 8.625 9.16667 8.625ZM6.25 7.58333C6.71024 7.58333 7.08333 7.21024 7.08333 6.75C7.08333 6.28976 6.71024 5.91667 6.25 5.91667C5.78976 5.91667 5.41667 6.28976 5.41667 6.75C5.41667 7.21024 5.78976 7.58333 6.25 7.58333Z" fill="white"/>
</svg>
