<svg width="20" height="20" viewBox="0 0 20 20" fill="none" xmlns="http://www.w3.org/2000/svg">
<path fill-rule="evenodd" clip-rule="evenodd" d="M1.875 9C1.875 6.03146 1.875 4.54719 2.63097 3.50668C2.87512 3.17064 3.17064 2.87512 3.50668 2.63097C4.54719 1.875 6.03146 1.875 9 1.875H11C13.9685 1.875 15.4528 1.875 16.4933 2.63097C16.8294 2.87512 17.1249 3.17064 17.369 3.50668C18.125 4.54719 18.125 6.03146 18.125 9V11C18.125 13.9685 18.125 15.4528 17.369 16.4933C17.1249 16.8294 16.8294 17.1249 16.4933 17.369C15.4528 18.125 13.9685 18.125 11 18.125H9C6.03146 18.125 4.54719 18.125 3.50668 17.369C3.17064 17.1249 2.87512 16.8294 2.63097 16.4933C1.875 15.4528 1.875 13.9685 1.875 11V9ZM6.25 8.125C6.59518 8.125 6.875 8.40482 6.875 8.75V13.75C6.875 14.0952 6.59518 14.375 6.25 14.375C5.90482 14.375 5.625 14.0952 5.625 13.75V8.75C5.625 8.40482 5.90482 8.125 6.25 8.125ZM9.16667 8.125C9.51184 8.125 9.79167 8.40482 9.79167 8.75V8.93838C10.3977 8.43067 11.1788 8.125 12.0312 8.125C13.3257 8.125 14.375 9.17433 14.375 10.4688V13.75C14.375 14.0952 14.0952 14.375 13.75 14.375C13.4048 14.375 13.125 14.0952 13.125 13.75V10.4688C13.125 9.86469 12.6353 9.375 12.0312 9.375C10.7944 9.375 9.79167 10.3777 9.79167 11.6146V13.75C9.79167 14.0952 9.51184 14.375 9.16667 14.375C8.82149 14.375 8.54167 14.0952 8.54167 13.75V11.6146V8.75C8.54167 8.40482 8.82149 8.125 9.16667 8.125ZM6.25 7.08333C6.71024 7.08333 7.08333 6.71024 7.08333 6.25C7.08333 5.78976 6.71024 5.41667 6.25 5.41667C5.78976 5.41667 5.41667 5.78976 5.41667 6.25C5.41667 6.71024 5.78976 7.08333 6.25 7.08333Z" fill="#1D3960"/>
</svg>
