<svg width="50" height="50" viewBox="0 0 50 50" fill="none" xmlns="http://www.w3.org/2000/svg">
<path fill-rule="evenodd" clip-rule="evenodd" d="M25.0004 16.3608C29.7715 16.3608 33.6396 20.2289 33.6396 25.0001C33.6396 29.7712 29.7715 33.6393 25.0004 33.6393C20.2292 33.6393 16.3613 29.7712 16.3613 25.0001C16.3613 20.2287 20.2292 16.3608 25.0004 16.3608Z" fill="#1D3960"/>
<path fill-rule="evenodd" clip-rule="evenodd" d="M19.9743 0L9.54883 5.96307C11.2395 9.74514 14.689 12.7343 18.3929 13.7466C20.3308 12.6068 22.5884 11.9519 24.9992 11.9519C27.4101 11.9519 29.6676 12.6068 31.6055 13.7466C35.3094 12.7343 38.7591 9.74534 40.4496 5.96307L30.0244 0C28.6737 1.79646 26.8466 2.73215 24.9992 2.80789C23.152 2.73215 21.3249 1.79646 19.9743 0Z" fill="#3576F0"/>
<path fill-rule="evenodd" clip-rule="evenodd" d="M50.0003 19.9752L44.0372 9.5498C40.2551 11.2403 37.266 14.69 36.2539 18.3937C37.3937 20.3316 38.0483 22.5891 38.0483 25C38.0483 27.4108 37.3937 29.6686 36.2539 31.6063C37.266 35.3104 40.2551 38.7596 44.0372 40.4503L50.0003 30.0249C48.2038 28.6745 47.2681 26.8472 47.1926 24.9998C47.2681 23.1526 48.2038 21.3255 50.0003 19.9752Z" fill="#3576F0"/>
<path fill-rule="evenodd" clip-rule="evenodd" d="M30.0263 50L40.4516 44.037C38.7609 40.2549 35.3112 37.2657 31.6075 36.2537C29.6698 37.3934 27.412 38.0481 25.0012 38.0481C22.5903 38.0481 20.3328 37.3934 18.3949 36.2537C14.691 37.2657 11.2415 40.2547 9.55078 44.037L19.9762 50C21.3269 48.2036 23.154 47.2681 25.0014 47.1923C26.8486 47.2683 28.6757 48.2036 30.0263 50Z" fill="#1B304C"/>
<path fill-rule="evenodd" clip-rule="evenodd" d="M0 30.0251L5.96308 40.4505C9.74515 38.7598 12.7343 35.3103 13.7464 31.6064C12.6066 29.6687 11.952 27.4109 11.952 25.0001C11.952 22.5892 12.6066 20.3319 13.7464 18.3938C12.7343 14.6899 9.74515 11.2404 5.96308 9.54993L0 19.9753C1.79646 21.3256 2.73215 23.1529 2.80769 25.0003C2.73215 26.8475 1.79646 28.6746 0 30.0251Z" fill="#3576F0"/>
</svg>
