<svg width="30" height="30" viewBox="0 0 30 30" fill="none" xmlns="http://www.w3.org/2000/svg">
<rect width="30" height="30" rx="5" fill="#0072B1"/>
<path d="M22.497 21.7498L22.5003 21.7492V16.7981C22.5003 14.3759 21.9789 12.5101 19.1473 12.5101C17.786 12.5101 16.8725 13.2571 16.4996 13.9653H16.4602V12.7363H13.7754V21.7492H16.571V17.2863C16.571 16.1113 16.7938 14.975 18.249 14.975C19.6828 14.975 19.7041 16.316 19.7041 17.3617V21.7498H22.497Z" fill="white"/>
<path d="M9.22266 12.7372H12.0217V21.7501H9.22266V12.7372Z" fill="white"/>
<path d="M10.6211 8.25C9.72619 8.25 9 8.97619 9 9.87112C9 10.7661 9.72619 11.5074 10.6211 11.5074C11.5161 11.5074 12.2422 10.7661 12.2422 9.87112C12.2417 8.97619 11.5155 8.25 10.6211 8.25Z" fill="white"/>
</svg>
