<svg width="24" height="24" viewBox="0 0 24 24" fill="none" xmlns="http://www.w3.org/2000/svg">
<path d="M12.0001 3C7.02956 3 2.99997 7 4.00012 12C4.66541 15.3259 7.98533 18.4306 10.1339 20.1367C10.8361 20.6944 11.1873 20.9732 11.7325 21.0468C11.8836 21.0672 12.1166 21.0672 12.2678 21.0468C12.813 20.9732 13.1641 20.6944 13.8664 20.1368C16.015 18.4306 19.335 15.3259 20.0001 12C21 7 16.9707 3 12.0001 3Z" stroke="#1D3960" stroke-width="1.5" stroke-linejoin="round"/>
<path d="M15 11.15C15 12.8069 13.6569 14.15 12 14.15C10.3431 14.15 9 12.8069 9 11.15C9 9.49315 10.3431 8.15 12 8.15C13.6569 8.15 15 9.49315 15 11.15Z" stroke="#1D3960" stroke-width="1.5" stroke-linejoin="round"/>
</svg>
