<svg width="133" height="40" viewBox="0 0 133 40" fill="none" xmlns="http://www.w3.org/2000/svg">
<g clip-path="url(#clip0_71_822)">
<path fill-rule="evenodd" clip-rule="evenodd" d="M14.2008 1.28027C8.85243 3.31417 4.55865 7.60796 2.60008 12.9564C1.77145 15.2162 1.31947 17.6268 1.24414 19.962C1.24414 22.3726 1.69612 24.7831 2.52475 27.043L21.2064 8.36125L14.2008 1.28027Z" fill="white"/>
<path opacity="0.5" fill-rule="evenodd" clip-rule="evenodd" d="M21.2059 0C18.7954 0 16.3849 0.451977 14.125 1.2806L21.2059 8.36158L32.882 19.9623L39.8877 12.8814C37.8538 7.60829 33.6353 3.3145 28.2869 1.2806C26.027 0.451977 23.6165 0 21.2059 0Z" fill="white"/>
<path opacity="0.5" fill-rule="evenodd" clip-rule="evenodd" d="M9.60539 19.9624L2.52441 27.0434C4.55831 32.3918 8.77676 36.6102 14.2005 38.6441C16.4603 39.4728 18.8709 39.9247 21.2814 39.9247C23.692 39.9247 26.1025 39.4728 28.3624 38.6441L21.2061 31.6385L9.60539 19.9624Z" fill="white"/>
<path fill-rule="evenodd" clip-rule="evenodd" d="M39.8887 12.9565L32.8831 19.9622L21.207 31.6383L28.288 38.7193C33.6364 36.61 37.8548 32.3916 39.8887 27.0432C40.7174 24.7833 41.1693 22.3727 41.1693 19.9622C41.2447 17.5516 40.7927 15.2164 39.8887 12.9565Z" fill="white"/>
<mask id="mask0_71_822" style="mask-type:luminance" maskUnits="userSpaceOnUse" x="53" y="0" width="80" height="40">
<path d="M132.444 0H53.2441V40H132.444V0Z" fill="white"/>
</mask>
<g mask="url(#mask0_71_822)">
<path d="M56.804 25.4009H59.8296C60.6067 25.4009 61.3259 25.2687 61.9872 25.0042C62.6651 24.7231 63.252 24.3345 63.748 23.8385C64.2605 23.3425 64.6491 22.7639 64.9136 22.1026C65.1947 21.4413 65.3352 20.7221 65.3352 19.945C65.3352 19.1679 65.1947 18.4486 64.9136 17.7873C64.6325 17.1094 64.244 16.5226 63.748 16.0266C63.252 15.5306 62.6651 15.142 61.9872 14.8609C61.3259 14.5798 60.6067 14.4393 59.8296 14.4393H56.804V25.4009ZM53.208 28.6001V11.2401H59.8792C61.1853 11.2401 62.3923 11.4633 63.5 11.9097C64.6077 12.3396 65.5749 12.9513 66.4016 13.7449C67.2283 14.5385 67.8731 15.4644 68.336 16.5225C68.8155 17.5806 69.0552 18.7215 69.0552 19.945C69.0552 21.185 68.8237 22.3257 68.3608 23.3673C67.8979 24.4089 67.2448 25.3265 66.4016 26.1201C65.5749 26.8972 64.6077 27.5089 63.5 27.9553C62.3923 28.3852 61.1853 28.6001 59.8792 28.6001H53.208ZM77.6182 28.8482C76.3286 28.8482 75.1547 28.5505 74.0966 27.9553C73.055 27.3601 72.2283 26.5582 71.6166 25.5497C71.0048 24.5412 70.699 23.4086 70.699 22.1521C70.699 20.8956 70.9883 19.763 71.567 18.7545C72.1622 17.746 72.964 16.9441 73.9726 16.3489C74.9811 15.7537 76.1054 15.4562 77.3454 15.4562C78.5854 15.4562 79.6848 15.762 80.6438 16.3737C81.6027 16.9854 82.355 17.8122 82.9006 18.8538C83.4627 19.8954 83.7438 21.0775 83.7438 22.4002V23.2929H74.171C74.3198 23.8054 74.5595 24.2684 74.8902 24.6817C75.2374 25.095 75.659 25.4174 76.155 25.6489C76.6675 25.8804 77.2131 25.9961 77.7918 25.9961C78.3704 25.9961 78.8995 25.9053 79.379 25.7234C79.875 25.5415 80.2966 25.2852 80.6438 24.9545L82.8758 26.9881C82.0822 27.6329 81.2638 28.1041 80.4206 28.4017C79.5939 28.6993 78.6598 28.8482 77.6182 28.8482ZM74.1214 20.8625H80.3958C80.28 20.35 80.0651 19.9036 79.751 19.5233C79.4534 19.1265 79.0896 18.8206 78.6598 18.6057C78.2464 18.3742 77.7835 18.2585 77.271 18.2585C76.7419 18.2585 76.2624 18.366 75.8326 18.5809C75.4027 18.7958 75.039 19.1018 74.7414 19.4986C74.4603 19.8789 74.2536 20.3334 74.1214 20.8625ZM83.4679 28.6001L88.4279 22.0281L83.5919 15.6793H87.5351L90.3871 19.5233L93.2143 15.6793H97.0335L92.2719 21.9785L97.3311 28.6001H93.3631L90.3127 24.4833L87.2623 28.6001H83.4679ZM98.6129 28.6001V15.6793H102.01V28.6001H98.6129ZM100.299 14.1417C99.7703 14.1417 99.3156 13.9516 98.9353 13.5713C98.5551 13.191 98.3649 12.7364 98.3649 12.2073C98.3649 11.6617 98.5551 11.207 98.9353 10.8433C99.3156 10.463 99.7703 10.2729 100.299 10.2729C100.845 10.2729 101.299 10.463 101.663 10.8433C102.043 11.207 102.233 11.6617 102.233 12.2073C102.233 12.7364 102.043 13.191 101.663 13.5713C101.299 13.9516 100.845 14.1417 100.299 14.1417ZM111.165 33.9073C110.173 33.9073 109.214 33.7998 108.288 33.5849C107.362 33.3865 106.527 33.0972 105.783 32.7169L106.974 30.0882C107.685 30.4354 108.379 30.6916 109.057 30.8569C109.735 31.0222 110.413 31.1049 111.09 31.1049C112.099 31.1049 112.859 30.89 113.372 30.4601C113.901 30.0302 114.166 29.3854 114.166 28.5257V27.5089C113.107 28.286 111.925 28.6745 110.619 28.6745C109.396 28.6745 108.288 28.3852 107.296 27.8065C106.321 27.2113 105.535 26.4094 104.94 25.4009C104.361 24.3924 104.072 23.2764 104.072 22.0529C104.072 20.8294 104.361 19.7217 104.94 18.7297C105.535 17.7377 106.337 16.9524 107.346 16.3737C108.354 15.7785 109.478 15.4809 110.718 15.4809C111.347 15.4809 111.958 15.5718 112.554 15.7537C113.149 15.9356 113.703 16.1918 114.215 16.5225V15.6793H117.563V28.5753C117.563 30.2782 117.009 31.5927 115.902 32.5186C114.81 33.4445 113.231 33.9073 111.165 33.9073ZM111.14 25.7978C111.768 25.7978 112.339 25.6985 112.851 25.5001C113.364 25.2852 113.802 24.9876 114.166 24.6073V19.5481C113.802 19.1844 113.355 18.9034 112.826 18.705C112.314 18.4901 111.76 18.3825 111.165 18.3825C110.454 18.3825 109.817 18.5478 109.255 18.8785C108.693 19.1926 108.247 19.6308 107.916 20.1929C107.585 20.7385 107.42 21.3585 107.42 22.0529C107.42 22.7638 107.577 23.4004 107.891 23.9625C108.222 24.5246 108.668 24.9711 109.23 25.3018C109.809 25.6325 110.446 25.7978 111.14 25.7978ZM120.216 28.6001V15.6793H123.613V16.7458C124.589 15.8695 125.796 15.4313 127.234 15.4313C128.243 15.4313 129.127 15.6546 129.888 16.101C130.665 16.5309 131.268 17.1343 131.698 17.9114C132.128 18.6719 132.343 19.5647 132.343 20.5898V28.6001H128.945V21.0857C128.945 20.2425 128.706 19.5812 128.226 19.1017C127.747 18.6057 127.094 18.3577 126.267 18.3577C125.688 18.3577 125.176 18.4735 124.729 18.705C124.283 18.9199 123.911 19.2341 123.613 19.6474V28.6001H120.216Z" fill="white"/>
<path d="M108.473 14.3584C108.473 14.2873 108.462 14.2235 108.44 14.167C108.42 14.1087 108.382 14.0558 108.325 14.0084C108.269 13.9592 108.189 13.9109 108.087 13.8635C107.985 13.8161 107.853 13.7669 107.691 13.7158C107.51 13.6575 107.339 13.5919 107.177 13.519C107.016 13.446 106.874 13.3613 106.75 13.2647C106.628 13.1662 106.531 13.0523 106.46 12.9229C106.391 12.7934 106.356 12.643 106.356 12.4717C106.356 12.3058 106.393 12.1554 106.466 12.0205C106.539 11.8838 106.641 11.7671 106.772 11.6705C106.903 11.5721 107.058 11.4964 107.237 11.4436C107.417 11.3907 107.615 11.3643 107.83 11.3643C108.124 11.3643 108.38 11.4171 108.599 11.5229C108.817 11.6286 108.987 11.7735 109.107 11.9576C109.229 12.1417 109.29 12.3523 109.29 12.5893H108.475C108.475 12.4726 108.451 12.3705 108.402 12.283C108.354 12.1937 108.281 12.1235 108.183 12.0725C108.086 12.0214 107.964 11.9959 107.816 11.9959C107.674 11.9959 107.556 12.0178 107.461 12.0615C107.366 12.1035 107.295 12.1609 107.248 12.2338C107.2 12.3049 107.177 12.3851 107.177 12.4744C107.177 12.5419 107.193 12.6029 107.226 12.6576C107.26 12.7123 107.312 12.7634 107.379 12.8107C107.446 12.8581 107.529 12.9028 107.628 12.9447C107.726 12.9867 107.84 13.0277 107.97 13.0678C108.187 13.1334 108.377 13.2072 108.541 13.2893C108.707 13.3713 108.846 13.4634 108.957 13.5654C109.068 13.6675 109.152 13.7833 109.208 13.9127C109.265 14.0421 109.293 14.1889 109.293 14.3529C109.293 14.5261 109.259 14.6811 109.192 14.8178C109.124 14.9545 109.027 15.0703 108.899 15.165C108.772 15.2598 108.619 15.3318 108.443 15.3811C108.266 15.4303 108.068 15.4549 107.849 15.4549C107.652 15.4549 107.458 15.4294 107.267 15.3783C107.075 15.3255 106.901 15.2462 106.745 15.1404C106.59 15.0347 106.466 14.8998 106.373 14.7357C106.28 14.5717 106.233 14.3775 106.233 14.1533H107.056C107.056 14.2773 107.075 14.3821 107.114 14.4678C107.152 14.5535 107.206 14.6227 107.275 14.6756C107.346 14.7285 107.43 14.7667 107.527 14.7904C107.625 14.8141 107.733 14.826 107.849 14.826C107.991 14.826 108.108 14.8059 108.199 14.7658C108.292 14.7257 108.361 14.6701 108.404 14.599C108.45 14.5279 108.473 14.4477 108.473 14.3584ZM112.807 11.419V15.4002H111.989V11.419H112.807ZM114.032 11.419V12.0615H110.783V11.419H114.032ZM117.874 11.419H118.692V14.0494C118.692 14.3557 118.626 14.6136 118.495 14.8232C118.365 15.0329 118.186 15.1906 117.956 15.2963C117.728 15.402 117.466 15.4549 117.168 15.4549C116.871 15.4549 116.607 15.402 116.376 15.2963C116.146 15.1906 115.965 15.0329 115.834 14.8232C115.705 14.6136 115.64 14.3557 115.64 14.0494V11.419H116.46V14.0494C116.46 14.2281 116.489 14.3739 116.545 14.4869C116.602 14.5999 116.683 14.6829 116.788 14.7357C116.896 14.7886 117.023 14.815 117.168 14.815C117.318 14.815 117.445 14.7886 117.549 14.7357C117.654 14.6829 117.734 14.5999 117.789 14.4869C117.846 14.3739 117.874 14.2281 117.874 14.0494V11.419ZM121.765 15.4002H120.898L120.904 14.7604H121.765C121.98 14.7604 122.162 14.7121 122.309 14.6154C122.457 14.517 122.568 14.3739 122.643 14.1861C122.719 13.9984 122.758 13.7714 122.758 13.5053V13.3111C122.758 13.107 122.736 12.9274 122.692 12.7725C122.65 12.6175 122.587 12.4872 122.503 12.3815C122.42 12.2757 122.317 12.1964 122.194 12.1436C122.072 12.0889 121.932 12.0615 121.773 12.0615H120.882V11.419H121.773C122.04 11.419 122.283 11.4645 122.503 11.5557C122.726 11.645 122.918 11.7735 123.08 11.9412C123.243 12.1089 123.368 12.3094 123.455 12.5428C123.544 12.7743 123.589 13.0322 123.589 13.3166V13.5053C123.589 13.7878 123.544 14.0458 123.455 14.2791C123.368 14.5124 123.243 14.713 123.08 14.8807C122.92 15.0466 122.728 15.1751 122.503 15.2662C122.281 15.3555 122.035 15.4002 121.765 15.4002ZM121.363 11.419V15.4002H120.543V11.419H121.363ZM126.233 11.419V15.4002H125.416V11.419H126.233ZM131.448 13.3166V13.5053C131.448 13.8079 131.407 14.0795 131.325 14.3201C131.243 14.5607 131.127 14.7658 130.978 14.9354C130.828 15.1031 130.65 15.2316 130.442 15.3209C130.236 15.4102 130.007 15.4549 129.755 15.4549C129.506 15.4549 129.277 15.4102 129.069 15.3209C128.863 15.2316 128.685 15.1031 128.533 14.9354C128.382 14.7658 128.264 14.5607 128.18 14.3201C128.098 14.0795 128.057 13.8079 128.057 13.5053V13.3166C128.057 13.0122 128.098 12.7406 128.18 12.5018C128.263 12.2611 128.378 12.0561 128.528 11.8865C128.679 11.717 128.858 11.5876 129.064 11.4982C129.271 11.4089 129.5 11.3643 129.75 11.3643C130.002 11.3643 130.23 11.4089 130.436 11.4982C130.644 11.5876 130.823 11.717 130.972 11.8865C131.124 12.0561 131.24 12.2611 131.322 12.5018C131.406 12.7406 131.448 13.0122 131.448 13.3166ZM130.62 13.5053V13.3111C130.62 13.0997 130.6 12.9137 130.562 12.7533C130.524 12.5929 130.467 12.458 130.393 12.3486C130.318 12.2393 130.227 12.1572 130.119 12.1025C130.012 12.046 129.889 12.0178 129.75 12.0178C129.611 12.0178 129.488 12.046 129.381 12.1025C129.275 12.1572 129.185 12.2393 129.11 12.3486C129.037 12.458 128.982 12.5929 128.943 12.7533C128.905 12.9137 128.886 13.0997 128.886 13.3111V13.5053C128.886 13.7149 128.905 13.9009 128.943 14.0631C128.982 14.2235 129.038 14.3593 129.113 14.4705C129.188 14.5799 129.279 14.6628 129.386 14.7193C129.494 14.7759 129.617 14.8041 129.755 14.8041C129.894 14.8041 130.017 14.7759 130.125 14.7193C130.232 14.6628 130.322 14.5799 130.395 14.4705C130.468 14.3593 130.524 14.2235 130.562 14.0631C130.6 13.9009 130.62 13.7149 130.62 13.5053Z" fill="white"/>
</g>
</g>
<defs>
<clipPath id="clip0_71_822">
<rect width="132" height="40" fill="white" transform="translate(0.444336)"/>
</clipPath>
</defs>
</svg>
