<svg width="155" height="40" viewBox="0 0 155 40" fill="none" xmlns="http://www.w3.org/2000/svg">
<g clip-path="url(#clip0_71_842)">
<path d="M7.65324 28.5141C7.65324 30.3864 6.12133 31.9184 4.24899 31.9184C2.37665 31.9184 0.844728 30.3864 0.844727 28.5141V3.66305C0.844726 1.79071 2.37664 0.258789 4.24898 0.258789C6.12133 0.258789 7.65324 1.79071 7.65324 3.66305V28.5141Z" fill="white"/>
<path d="M18.7167 36.5956C18.7167 38.468 17.1848 39.9999 15.3124 39.9999C13.4401 39.9999 11.9082 38.468 11.9082 36.5956V11.7446C11.9082 9.87224 13.4401 8.34033 15.3124 8.34033C17.1848 8.34033 18.7167 9.87224 18.7167 11.7446V36.5956Z" fill="white"/>
<path d="M29.7803 28.5141C29.7803 30.3864 28.2483 31.9184 26.376 31.9184C24.5037 31.9184 22.9717 30.3864 22.9717 28.5141V3.66305C22.9717 1.79071 24.5037 0.258789 26.376 0.258789C28.2483 0.258789 29.7803 1.79071 29.7803 3.66305V28.5141Z" fill="white"/>
<path d="M40.8446 36.5956C40.8446 38.468 39.3127 39.9999 37.4404 39.9999C35.568 39.9999 34.0361 38.468 34.0361 36.5956V12.5446C34.0361 10.6722 35.568 9.14038 37.4404 9.14038C39.3127 9.14038 40.8446 10.6722 40.8446 12.5446V36.5956Z" fill="white"/>
<mask id="mask0_71_842" style="mask-type:luminance" maskUnits="userSpaceOnUse" x="52" y="0" width="103" height="40">
<path d="M154.444 0H52.8438V40H154.444V0Z" fill="white"/>
</mask>
<g mask="url(#mask0_71_842)">
<path d="M65.0785 24.9151V28.3999H53.0137V9.91994H65.0785V13.4047H57.1057V17.4967H64.0225V20.8231H57.1057V24.9151H65.0785ZM72.1079 28.3999H68.1215V14.6455H71.4743L71.7911 16.5199C73.0847 15.1207 74.6159 14.4079 76.4903 14.4079C78.1799 14.4079 79.3151 14.9095 80.0279 15.8599C80.2391 16.1239 80.3975 16.3879 80.5295 16.7047C81.8759 15.1471 83.4071 14.4079 85.3079 14.4079C87.0503 14.4079 88.2119 14.9095 88.9247 15.8599C89.6639 16.8367 89.8751 17.9719 89.8751 20.7703V28.3999H85.9151V21.6679C85.9151 20.0839 85.8095 19.3975 85.3871 18.8431C84.9383 18.3151 84.3311 18.1039 83.3807 18.1039C82.5095 18.1039 81.7439 18.3679 80.9519 19.0279C81.0047 19.5295 81.0047 20.0839 81.0047 20.7703V28.3999H77.0183V21.6679C77.0183 20.0839 76.9391 19.3975 76.4903 18.8431C76.0679 18.3151 75.4607 18.1039 74.5631 18.1039C73.5863 18.1039 72.6887 18.4471 72.1079 19.0543V28.3999ZM99.6433 28.6111C98.6137 28.6111 97.5049 28.4263 96.4489 28.0303L93.4129 28.3999V8.33594H97.3993V16.4407C98.3761 15.0943 99.6961 14.3815 101.491 14.3815C104.554 14.3815 106.613 16.6783 106.613 20.9815C106.613 25.8919 103.814 28.6111 99.6433 28.6111ZM97.3993 19.7143V25.0471C98.0065 25.3111 98.5873 25.4167 99.1945 25.4167C101.122 25.4167 102.468 24.1495 102.468 21.3775C102.468 19.0543 101.465 17.9191 100.013 17.9191C98.8513 17.9191 98.0065 18.5527 97.3993 19.7143ZM113.126 28.3999H109.139V8.33594H113.126V28.3999ZM123.188 28.6111C118.172 28.6111 115.664 26.2879 115.664 21.4831C115.664 16.8895 118.779 14.3815 122.343 14.3815C126.119 14.3815 127.94 16.6519 127.94 20.6119C127.94 21.3511 127.887 22.0111 127.835 22.6711H119.73C120.126 24.7303 121.525 25.4431 124.086 25.4431C125.142 25.4431 126.224 25.3375 127.148 25.2055L126.963 28.3471C126.013 28.5055 124.719 28.6111 123.188 28.6111ZM122.238 17.3383C120.865 17.3383 119.862 18.3151 119.651 20.5063L124.165 20.2687C124.165 18.2623 123.558 17.3383 122.238 17.3383ZM134.602 28.3999H130.615V14.6455H133.968L134.285 16.5199C135.578 15.1207 137.11 14.4079 138.984 14.4079C140.674 14.4079 141.809 14.9095 142.522 15.8599C142.733 16.1239 142.891 16.3879 143.023 16.7047C144.37 15.1471 145.901 14.4079 147.802 14.4079C149.544 14.4079 150.706 14.9095 151.418 15.8599C152.158 16.8367 152.369 17.9719 152.369 20.7703V28.3999H148.409V21.6679C148.409 20.0839 148.303 19.3975 147.881 18.8431C147.432 18.3151 146.825 18.1039 145.874 18.1039C145.003 18.1039 144.238 18.3679 143.446 19.0279C143.498 19.5295 143.498 20.0839 143.498 20.7703V28.3999H139.512V21.6679C139.512 20.0839 139.433 19.3975 138.984 18.8431C138.562 18.3151 137.954 18.1039 137.057 18.1039C136.08 18.1039 135.182 18.4471 134.602 19.0543V28.3999Z" fill="white"/>
</g>
</g>
<defs>
<clipPath id="clip0_71_842">
<rect width="154" height="40" fill="white" transform="translate(0.444336)"/>
</clipPath>
</defs>
</svg>
