<svg width="140" height="40" viewBox="0 0 140 40" fill="none" xmlns="http://www.w3.org/2000/svg">
<g clip-path="url(#clip0_71_833)">
<path d="M33.4558 20.0248C33.4558 28.2032 29.4409 35.3903 23.2451 39.8513C32.9601 38.4634 40.4446 30.0867 40.4446 20.0248C40.4446 9.91324 32.9601 1.5861 23.2451 0.198242C29.3913 4.60964 33.4558 11.8463 33.4558 20.0248Z" fill="white"/>
<path d="M14.4219 39.0582C15.8098 39.5043 17.1976 39.8017 18.6846 39.9009C24.0874 34.9442 27.4579 27.8562 27.4579 19.9752C27.4579 12.0942 24.0378 5.00618 18.6846 0.0991211C17.1976 0.24782 15.7602 0.545217 14.4219 0.941748C18.982 5.94794 21.7577 12.6394 21.7577 20.0248C21.7577 27.4102 18.982 34.052 14.4219 39.0582Z" fill="white"/>
<path d="M0.444336 20.0249C0.444336 26.9146 3.91397 33.0112 9.26713 36.58C13.6786 32.4164 16.4543 26.5181 16.4543 20.0249C16.4543 13.4821 13.6786 7.58373 9.26713 3.46973C3.91397 7.0385 0.444336 13.0856 0.444336 20.0249Z" fill="white"/>
<mask id="mask0_71_833" style="mask-type:luminance" maskUnits="userSpaceOnUse" x="52" y="0" width="87" height="40">
<path d="M138.844 0H52.4443V40H138.844V0Z" fill="white"/>
</mask>
<g mask="url(#mask0_71_833)">
<path d="M62.3897 13.189C58.7937 13.189 56.7353 15.793 56.7353 19.7114C56.7353 23.7538 59.0665 25.961 62.4145 25.961C65.5641 25.961 67.4737 24.225 67.4737 21.3234V21.249H61.9929V18.4466H70.4249V28.6394H67.7465L67.5481 26.5562C66.5561 27.945 64.4977 28.9122 62.0425 28.9122C56.9585 28.9122 53.4121 25.217 53.4121 19.637C53.4121 14.1314 57.0081 10.213 62.4641 10.213C66.6057 10.213 69.8049 12.6186 70.3257 16.3138H66.9777C66.4073 14.181 64.5721 13.189 62.3897 13.189ZM81.0945 16.3386V19.141H79.9785C77.7961 19.141 76.4321 20.3066 76.4321 22.6874V28.6394H73.4065V16.413H76.2585L76.4321 18.1986C76.9529 16.9834 78.1185 16.165 79.7553 16.165C80.1769 16.165 80.5985 16.2146 81.0945 16.3386ZM86.3037 28.9618C83.6997 28.9618 82.1125 27.449 82.1125 25.1426C82.1125 22.8858 83.7493 21.4722 86.6509 21.249L90.3213 20.9762V20.7034C90.3213 19.0418 89.3293 18.3722 87.7917 18.3722C86.0061 18.3722 85.0141 19.1162 85.0141 20.4058H82.4349C82.4349 17.7522 84.6173 16.0162 87.9405 16.0162C91.2389 16.0162 93.2725 17.8018 93.2725 21.1994V28.6394H90.6189L90.3957 26.829C89.8749 28.0938 88.2133 28.9618 86.3037 28.9618ZM87.2957 26.6802C89.1557 26.6802 90.3461 25.5642 90.3461 23.6794V23.0346L87.7917 23.233C85.9069 23.4066 85.1877 24.0266 85.1877 25.0186C85.1877 26.1346 85.9317 26.6802 87.2957 26.6802ZM96.2448 34.3186V16.3882H99.0472L99.2456 18.2482C99.9896 16.8346 101.602 16.0162 103.462 16.0162C106.909 16.0162 109.191 18.521 109.191 22.365C109.191 26.1842 107.107 28.9618 103.462 28.9618C101.627 28.9618 100.039 28.2426 99.2704 27.0026V34.3186H96.2448ZM99.2952 22.5138C99.2952 24.721 100.659 26.2338 102.743 26.2338C104.875 26.2338 106.14 24.6962 106.14 22.5138C106.14 20.3314 104.875 18.769 102.743 18.769C100.659 18.769 99.2952 20.3066 99.2952 22.5138ZM114.625 28.6394H111.6V10.1882H114.65V17.9754C115.419 16.785 116.857 16.0162 118.618 16.0162C121.644 16.0162 123.231 17.9258 123.231 21.1002V28.6394H120.205V21.8194C120.205 19.761 119.188 18.769 117.651 18.769C115.741 18.769 114.625 20.1082 114.625 21.9434V28.6394ZM125.484 22.489C125.484 18.6698 128.237 16.041 132.031 16.041C135.826 16.041 138.579 18.6698 138.579 22.489C138.579 26.3082 135.826 28.937 132.031 28.937C128.237 28.937 125.484 26.3082 125.484 22.489ZM128.51 22.489C128.51 24.721 129.948 26.2338 132.031 26.2338C134.115 26.2338 135.553 24.721 135.553 22.489C135.553 20.257 134.115 18.7442 132.031 18.7442C129.948 18.7442 128.51 20.257 128.51 22.489Z" fill="white"/>
</g>
</g>
<defs>
<clipPath id="clip0_71_833">
<rect width="139" height="40" fill="white" transform="translate(0.444336)"/>
</clipPath>
</defs>
</svg>
