<svg width="127" height="40" viewBox="0 0 127 40" fill="none" xmlns="http://www.w3.org/2000/svg">
<g clip-path="url(#clip0_71_789)">
<path d="M26.2119 11.093C33.0583 11.1402 38.6963 16.8675 38.6017 23.6825C38.5124 30.4712 32.8955 36.0251 26.112 36.0408C19.3023 36.0566 13.617 30.324 13.6644 23.4986C13.7117 16.6048 19.3338 11.051 26.2119 11.093ZM35.6172 23.5774C35.6277 18.281 31.3402 13.9829 26.07 14.0039C20.8997 14.0249 16.6436 18.2967 16.5911 23.5196C16.5332 28.6742 20.8524 33.0406 26.0122 33.0563C31.3664 33.0774 35.6067 28.8949 35.6172 23.5774Z" fill="white"/>
<path d="M15.3508 39.1624C8.83536 38.2744 2.40924 30.3455 1.44768 22.012C0.4546 13.379 5.9507 4.58847 14.3367 1.40431C22.4863 -1.69053 32.4223 1.06803 37.0304 7.8567C32.2963 3.49556 26.7949 1.36753 20.3846 2.27129C13.9531 3.17504 9.12961 6.59565 6.04003 12.2914C3.36028 17.2305 3.03976 22.4429 4.85253 27.7499C6.38682 32.2108 8.2784 34.218 15.3508 39.1624Z" fill="white"/>
<path d="M18.2462 38.0479C11.1528 36.5189 5.68296 29.3203 5.46228 21.7277C5.23109 13.862 10.5906 6.59511 18.2042 4.44081C25.1768 2.47041 33.6784 5.31829 36.6629 10.7303C32.7221 7.06275 28.114 5.22371 22.744 5.83848C17.3215 6.4585 13.1442 9.19078 10.2648 13.8147C5.87737 20.8608 6.98605 32.4362 18.2462 38.0479Z" fill="white"/>
<path d="M36.3737 13.489C28.4501 6.4586 18.8503 9.41157 14.7571 15.1126C12.0984 18.8221 11.326 22.9049 12.4767 27.2818C13.6116 31.5851 16.428 34.5801 20.7628 36.7344C14.878 35.7046 10.1385 29.8722 9.58676 23.4881C9.02453 16.9254 13.2911 10.4677 19.6594 8.25034C25.7913 6.11181 32.9793 8.33442 36.3737 13.489Z" fill="white"/>
<path d="M26.1331 28.3224C28.7594 28.3224 30.8885 26.1935 30.8885 23.5672C30.8885 20.941 28.7594 18.812 26.1331 18.812C23.507 18.812 21.3779 20.941 21.3779 23.5672C21.3779 26.1935 23.507 28.3224 26.1331 28.3224Z" fill="white"/>
<mask id="mask0_71_789" style="mask-type:luminance" maskUnits="userSpaceOnUse" x="52" y="0" width="75" height="40">
<path d="M126.445 0H52.2988V39.0244H126.445V0Z" fill="white"/>
</mask>
<g mask="url(#mask0_71_789)">
<path d="M59.8838 28.0898C54.7623 28.0898 52.5332 25.728 52.5332 22.3048V21.8537H55.3461V22.1456C55.3461 24.3481 56.2749 25.4627 59.99 25.4627C62.6171 25.4627 63.5724 24.7462 63.5724 23.1009C63.5724 21.4822 63.0417 20.8984 60.3084 20.3411L57.2833 19.7308C54.2315 19.147 52.5863 17.6609 52.5863 14.848C52.5863 12.2209 54.6296 9.77954 59.2204 9.77954C64.1297 9.77954 66.0934 12.5393 66.0934 15.6972V16.0156H63.2805V15.7237C63.2805 13.5477 62.3252 12.4067 59.1408 12.4067C56.5137 12.4067 55.4522 13.1497 55.4522 14.7153C55.4522 16.3341 56.1687 16.7852 58.6101 17.3159L61.6353 17.9528C64.9789 18.6428 66.4384 20.3146 66.4384 22.9948C66.4384 25.7811 64.4216 28.0898 59.8838 28.0898ZM71.3082 12.9639H68.4688L68.4423 10.0449H71.3082V12.9639ZM71.3348 27.8244H68.4688V14.5561H71.3348V27.8244ZM78.9585 26.5772C75.323 26.5772 73.3062 24.1889 73.3062 20.4738C73.3062 16.7587 75.3495 14.3704 79.0646 14.3704C81.1875 14.3704 82.8328 15.2726 83.4697 16.8117H83.5758V14.6357H86.203V26.8691C86.203 30.77 83.9208 32.601 80.073 32.601C76.3314 32.601 73.9961 30.8231 73.9961 27.6387H76.8355C76.8355 29.4432 77.499 30.0535 80.1526 30.0535C82.7267 30.0535 83.3635 29.3105 83.3635 26.8691V24.242H83.2574C82.6471 25.5157 81.1079 26.5772 78.9585 26.5772ZM76.1721 20.4738C76.1721 23.1805 77.2867 24.1358 79.7811 24.1358C81.9306 24.1358 83.3635 23.1009 83.3635 20.8718V20.0492C83.3635 17.8467 81.9306 16.8117 79.728 16.8117C77.2601 16.8117 76.1721 17.7671 76.1721 20.4738ZM91.8888 27.8244H89.0229V14.6357H91.65V17.1036H91.7561C92.3665 15.6972 93.7729 14.3704 96.347 14.3704C99.7704 14.3704 101.309 16.5464 101.309 19.545V27.8244H98.4435V20.1819C98.4435 17.8201 97.7003 16.8383 95.2855 16.8383C92.9503 16.8383 91.8888 17.7405 91.8888 20.2084V27.8244ZM109.866 28.0898C105.514 28.0898 103.471 25.33 103.471 21.2168C103.471 17.1302 105.912 14.3704 109.84 14.3704C113.396 14.3704 115.89 16.4933 115.89 20.1023C115.89 20.7922 115.81 21.5087 115.73 21.9068H106.151C106.257 24.3216 107.133 25.5423 109.892 25.5423C112.095 25.5423 112.944 24.7992 112.944 23.6051V23.3928H115.784V23.6316C115.784 26.3384 113.422 28.0898 109.866 28.0898ZM109.787 16.7852C107.292 16.7852 106.337 17.9528 106.177 19.9961H113.157C113.263 17.7405 112.043 16.7852 109.787 16.7852ZM123.566 27.8244C120.621 27.8244 119.083 26.7364 119.083 23.7643V17.024H116.88V14.6357H119.135L119.746 11.3717H121.948V14.6357H125.928V17.024H121.948V23.6316C121.948 25.0115 122.532 25.2504 124.31 25.2504H125.928V27.5856C125.371 27.7183 124.469 27.8244 123.566 27.8244Z" fill="white"/>
</g>
</g>
<defs>
<clipPath id="clip0_71_789">
<rect width="125.854" height="40" fill="white" transform="translate(0.59082)"/>
</clipPath>
</defs>
</svg>
