<svg width="166" height="41" viewBox="0 0 166 41" fill="none" xmlns="http://www.w3.org/2000/svg">
<path fill-rule="evenodd" clip-rule="evenodd" d="M32.8525 22.4424V35.8329L39.9863 31.7282V18.3376L32.8525 22.4424Z" fill="white"/>
<path opacity="0.5" fill-rule="evenodd" clip-rule="evenodd" d="M18.6613 8.33058L8.45602 14.2188L1.32227 10.114L18.6613 0.121094L30.8622 7.16993L23.7568 11.2747L18.6613 8.33058Z" fill="white"/>
<path opacity="0.5" fill-rule="evenodd" clip-rule="evenodd" d="M21.2754 29.1164L32.8521 22.4424L39.9717 18.3235L32.8521 14.2188L21.2754 20.9211V29.1164Z" fill="white"/>
<path fill-rule="evenodd" clip-rule="evenodd" d="M1.32227 10.114L1.32227 30.1282L18.6613 40.1211V31.9116L8.45602 26.0234V14.2188L1.32227 10.114Z" fill="white"/>
<g clip-path="url(#clip0_71_763)">
<path d="M67.4227 28.5728C66.1579 29.0688 64.6203 29.2176 62.9835 29.2176C62.7355 29.2176 62.4875 29.2176 62.2395 29.1928C56.8579 28.9448 52.9395 25.7208 52.9395 20.0168C52.9395 14.2632 57.1307 10.7416 62.7355 10.7416C64.4467 10.7416 66.1083 11.064 67.3483 11.6592L67.1251 15.9C66.1083 15.4288 64.6947 15.0816 63.1571 15.0816C59.3627 15.0816 57.0563 17.14 57.0563 20.2648C57.0563 23.2408 58.8419 25.1256 61.8923 25.4728C62.4379 25.5224 63.0331 25.5224 63.5787 25.4976V20.6864H67.4227V28.5728Z" fill="white"/>
<path d="M69.9786 28.92V15.4536H73.7482V17.2392H73.8474C74.5418 15.8008 76.1786 15.1312 78.361 15.1312L78.113 19.5208C74.9386 19.3968 73.8226 20.6616 73.8226 23.7864V28.92H69.9786Z" fill="white"/>
<path d="M87.2444 20.364C87.2444 19.5704 86.4508 19.0744 84.7892 19.0744C83.1772 19.0744 81.6644 19.5456 80.474 20.0912L80.2012 16.2472C81.3668 15.6272 83.1276 15.1312 85.186 15.1312C89.402 15.1312 91.2124 17.0904 91.2124 20.7112V28.92H87.294V27.2832C86.302 28.4736 85.1612 29.2424 83.1772 29.2424C80.9452 29.2424 79.3332 28.0768 79.3332 25.82C79.3332 22.9432 81.6396 22.1 84.5164 21.6288C85.6076 21.4304 86.2028 21.2816 86.7236 21.0832C87.1452 20.9096 87.2444 20.7112 87.2444 20.364ZM87.294 23.0672C86.8972 23.2656 86.2524 23.5136 85.434 23.6872C84.1444 23.9848 83.3508 24.3072 83.3508 25.4232C83.3508 26.316 84.0948 26.7376 85.0372 26.7376C86.1284 26.7376 86.922 26.068 87.294 25.2496V23.0672Z" fill="white"/>
<path d="M93.7856 33.632V15.4536H97.5552V17.0656H97.6544C98.4232 15.8752 99.936 15.1312 101.771 15.1312C105.417 15.1312 108.145 17.7352 108.145 22.1992C108.145 26.6632 105.194 29.2424 101.746 29.2424C100.01 29.2424 98.4728 28.4736 97.704 27.06H97.6296V33.632H93.7856ZM100.928 25.696C102.714 25.696 104.102 24.3072 104.102 22.3728C104.102 20.4384 102.714 19.0744 100.928 19.0744C99.1176 19.0744 97.704 20.364 97.704 22.3728C97.704 24.3568 99.1176 25.696 100.928 25.696Z" fill="white"/>
<path d="M119.306 22.0752C119.306 20.24 118.537 19 116.727 19C114.941 19 114.123 20.2152 114.123 22.1V28.92H110.279V10.072H114.048V17.016H114.147C114.941 15.8504 116.156 15.1312 118.066 15.1312C121.414 15.1312 123.125 17.3632 123.125 20.6368V28.92H119.306V22.0752Z" fill="white"/>
<path d="M137.085 28.6472C135.895 29.0688 134.555 29.2424 133.092 29.2424C128.231 29.2424 125.131 26.7624 125.131 22.1248C125.131 18.1072 127.76 15.1312 131.803 15.1312C135.919 15.1312 137.978 18.3552 137.978 22.0008C137.978 22.5464 137.953 23.1416 137.854 23.588H129.422C129.918 25.2992 131.455 26.068 133.787 26.068C134.927 26.068 135.87 25.9192 136.763 25.5968L137.085 28.6472ZM131.852 18.7024C130.612 18.7024 129.496 19.4216 129.223 21.232H134.357C134.283 19.8184 133.291 18.7024 131.852 18.7024Z" fill="white"/>
<path d="M140.092 28.92V15.4536H143.861V17.2392H143.961C144.655 15.8008 146.292 15.1312 148.474 15.1312L148.226 19.5208C145.052 19.3968 143.936 20.6616 143.936 23.7864V28.92H140.092Z" fill="white"/>
<path d="M149.543 28.92V26.0184L155.569 19.124H149.816V15.4536H160.256V18.9008L154.23 25.572H160.38V28.92H149.543Z" fill="white"/>
</g>
<defs>
<clipPath id="clip0_71_763">
<rect width="112.8" height="40" fill="white" transform="translate(52.791)"/>
</clipPath>
</defs>
</svg>
