<svg width="165" height="40" viewBox="0 0 165 40" fill="none" xmlns="http://www.w3.org/2000/svg">
<g clip-path="url(#clip0_71_800)">
<path opacity="0.4" d="M5.97735 19.5195V40.0002H0.444336V23.9423L5.97735 19.5195Z" fill="white"/>
<path d="M5.97754 19.5195V40.0002H11.5105V22.9462L5.97754 19.5195Z" fill="white"/>
<path opacity="0.5" d="M16.8793 11.1538V39.9996H9.50195V17.2593L16.8793 11.1538Z" fill="white"/>
<path d="M16.8799 11.1538V39.9996H24.2573V15.7227L16.8799 11.1538Z" fill="white"/>
<path opacity="0.6" d="M30.5063 0V40H20.5684V9.1349L30.5063 0Z" fill="white"/>
<path d="M30.5068 0V40H40.4446V9.1349L30.5068 0Z" fill="white"/>
<mask id="mask0_71_800" style="mask-type:luminance" maskUnits="userSpaceOnUse" x="52" y="0" width="113" height="40">
<path d="M164.444 0H52.4443V40H164.444V0Z" fill="white"/>
</mask>
<g mask="url(#mask0_71_800)">
<path d="M52.7764 28.9199V11.1791H55.4388V28.9199H52.7764ZM62.153 28.9199H59.593V15.1727H61.897V16.6063L63.3306 15.1727H68.425L69.5258 16.2991L70.6266 15.1727H76.4634L78.2554 16.9391V28.9199H75.6954V17.5791H70.2682V28.9199H67.7082V17.5791H63.3818L62.153 18.6799V28.9199ZM84.603 34.1167H82.043V15.1727H84.347V16.6063L85.7806 15.1727H91.0286L92.8206 16.9391V27.1279L91.0286 28.9199H84.603V34.1167ZM90.2606 17.5791H85.8318L84.603 18.6799V26.5647H90.2606V17.5791ZM99.153 28.9199H96.593V15.1727H98.897V16.9135L100.663 15.1727H103.837V17.6303H100.612L99.153 19.0127V28.9199ZM108.555 12.6895H105.892V10.2831H108.555V12.6895ZM108.504 28.9199H105.944V15.1727H108.504V28.9199ZM114.902 28.9199H112.342V15.1727H114.646V16.6063L116.08 15.1727H121.558L123.35 16.9391V28.9199H120.765V17.5791H116.131L114.902 18.6799V28.9199ZM133.978 28.9199H129.395L127.603 27.1279V17.2975H125.709V15.1727H127.603V12.3823H130.163V15.1727H133.696V17.2975H130.163V26.5135H133.978V28.9199ZM139.18 12.6895H136.517V10.2831H139.18V12.6895ZM139.129 28.9199H136.569V15.1727H139.129V28.9199ZM146.679 28.9199H144.119V17.2975H141.892V15.1727H144.119V11.8191L145.911 10.0527H150.161V12.1775H146.679V15.1727H149.905V17.2975H146.679V28.9199ZM152.297 29.7903H154.78V31.8895H160.54V28.1775H153.884L152.117 26.4111V15.1727H154.677V25.9247H160.54V15.1727H163.1V32.3503L161.282 34.1167H154.114L152.297 32.3503V29.7903Z" fill="white"/>
</g>
</g>
<defs>
<clipPath id="clip0_71_800">
<rect width="164" height="40" fill="white" transform="translate(0.444336)"/>
</clipPath>
</defs>
</svg>
