<svg width="190" height="40" viewBox="0 0 190 40" fill="none" xmlns="http://www.w3.org/2000/svg">
<path fill-rule="evenodd" clip-rule="evenodd" d="M12.4411 25V15V5L3.79102 10V20V30L12.4411 35L21.0774 40L29.7275 35L21.0774 30L12.4411 25Z" fill="white"/>
<path fill-rule="evenodd" clip-rule="evenodd" d="M21.0771 10V20L29.7272 25L38.3636 30V20L29.7272 15V5L21.0771 0V10Z" fill="white"/>
<mask id="mask0_71_781" style="mask-type:luminance" maskUnits="userSpaceOnUse" x="52" y="0" width="138" height="40">
<path d="M189.391 0H52.5908V40H189.391V0Z" fill="white"/>
</mask>
<g mask="url(#mask0_71_781)">
<path d="M57.2219 27.1195H75.1019V29.6395H54.2939V13.2715H57.2219V27.1195ZM76.8061 23.6155C76.8061 19.2475 80.0701 17.3035 87.0541 17.3035C94.0621 17.3035 97.3021 19.2475 97.3021 23.6155C97.3021 27.9835 94.0621 29.9275 87.0541 29.9275C80.0701 29.9275 76.8061 27.9835 76.8061 23.6155ZM79.5421 23.6155C79.5421 26.4475 81.4621 27.5755 87.0541 27.5755C92.6461 27.5755 94.5661 26.4475 94.5661 23.6155C94.5661 20.8075 92.6461 19.6555 87.0541 19.6555C81.4621 19.6555 79.5421 20.8075 79.5421 23.6155ZM118.52 18.2155V27.7675C118.52 32.5195 115.568 34.2715 108.704 34.2715C106.136 34.2715 102.752 33.8875 100.279 33.1675L100.904 31.0315C103.256 31.6555 105.968 32.0875 108.848 32.0875C114.272 32.0875 115.976 30.8395 115.88 27.7915L115.832 27.2155C113.336 28.2475 110.312 29.0395 107.168 29.0395C102.272 29.0395 99.7514 27.3355 99.7514 23.2795C99.7514 18.8395 103.352 17.3755 108.872 17.3755C112.592 17.3755 116 17.8075 118.52 18.2155ZM102.488 23.2555C102.488 25.8235 103.976 26.8795 107.384 26.8795C110.144 26.8795 113 26.3035 115.76 25.3675V20.1355C113.624 19.8475 110.863 19.6315 108.512 19.6315C104.744 19.6315 102.488 20.5675 102.488 23.2555ZM124.436 12.6475V15.8875H121.7V12.6475H124.436ZM121.7 29.6395V17.6155H124.436V29.6395H121.7ZM146.033 18.2155V33.9595H143.297V27.6715C140.753 28.8475 137.681 29.8795 134.489 29.8795C129.929 29.8795 127.361 28.0555 127.361 23.7355C127.361 18.9355 130.937 17.3755 136.313 17.3755C140.033 17.3755 143.513 17.7835 146.033 18.2155ZM130.097 23.6155C130.097 26.4475 131.585 27.5755 134.993 27.5755C137.753 27.5755 140.537 26.7835 143.297 25.7515V20.1355C141.161 19.8475 138.377 19.6315 136.025 19.6315C132.257 19.6315 130.097 20.6875 130.097 23.6155ZM149 24.1675V17.6155H151.736V23.8075C151.736 26.2315 153.224 27.5995 156.872 27.5995C158.888 27.5995 161.648 27.0235 164.6 26.0395V17.6155H167.336V29.6395H164.96L164.72 27.9115C162.152 28.9915 159.056 29.9275 156.008 29.9275C151.592 29.9275 149 28.2955 149 24.1675ZM180.166 27.7195C183.67 27.7195 186.622 27.1915 187.846 26.9275L188.422 28.9915C186.382 29.5195 183.022 29.9275 179.95 29.9275C173.374 29.9275 170.158 28.2715 170.158 23.6155C170.158 19.0555 173.638 17.3275 179.566 17.3275C185.014 17.3275 188.854 18.7195 188.854 22.9915C188.854 23.3995 188.806 24.0715 188.758 24.3355H172.846C173.182 27.0715 175.414 27.7195 180.166 27.7195ZM179.47 19.2715C175.198 19.2715 173.134 20.1355 172.846 22.7755H186.166C185.95 20.3995 184.39 19.2715 179.47 19.2715Z" fill="white"/>
</g>
</svg>
