<svg width="157" height="40" viewBox="0 0 157 40" fill="none" xmlns="http://www.w3.org/2000/svg">
<path fill-rule="evenodd" clip-rule="evenodd" d="M21.4366 38.8469C29.7504 38.8469 37.1229 33.3567 39.4759 25.3567C38.5347 25.5135 37.4366 25.5135 36.4955 25.5135C30.5347 25.5135 25.2013 23.0037 21.4366 18.9253C17.6719 23.0037 12.3386 25.5135 6.37786 25.5135C5.43668 25.5135 4.33864 25.5135 3.39746 25.3567C5.90727 33.5135 13.1229 38.8469 21.4366 38.8469Z" fill="white"/>
<path opacity="0.5" fill-rule="evenodd" clip-rule="evenodd" d="M6.377 21.9059C11.3966 21.9059 15.9456 19.7099 19.0829 16.102C17.0436 12.9648 15.7887 9.0432 15.7887 4.96476C15.7887 4.02358 15.7887 2.92554 15.9456 1.98438C8.10249 4.33732 2.6123 11.7099 2.6123 20.0236C2.6123 20.4942 2.6123 20.9648 2.6123 21.4354C3.8672 21.7491 5.1221 21.9059 6.377 21.9059Z" fill="white"/>
<path fill-rule="evenodd" clip-rule="evenodd" d="M21.436 12.808C22.6909 10.4551 23.3184 7.78843 23.3184 4.9649C23.3184 3.71 23.1615 2.4551 22.8478 1.2002C22.3772 1.2002 21.9066 1.2002 21.436 1.2002C20.9654 1.2002 20.4949 1.2002 20.0243 1.2002C19.7105 2.4551 19.5537 3.71 19.5537 4.9649C19.5537 7.78843 20.338 10.4551 21.436 12.808Z" fill="white"/>
<path opacity="0.5" fill-rule="evenodd" clip-rule="evenodd" d="M36.4945 21.9059C37.7494 21.9059 39.0044 21.7491 40.2593 21.4354C40.2593 20.9648 40.2593 20.4942 40.2593 20.0236C40.2593 11.7099 34.7691 4.33732 26.7691 1.98438C26.9259 2.92554 26.9259 4.02358 26.9259 4.96476C26.9259 9.0432 25.671 12.9648 23.6318 16.2589C26.9259 19.7099 31.4749 21.9059 36.4945 21.9059Z" fill="white"/>
<mask id="mask0_71_812" style="mask-type:luminance" maskUnits="userSpaceOnUse" x="53" y="0" width="104" height="40">
<path d="M156.245 0H53.0449V40H156.245V0Z" fill="white"/>
</mask>
<g mask="url(#mask0_71_812)">
<path d="M63.8756 24.5305C63.8756 23.6329 62.8196 23.3425 61.262 22.9465L59.018 22.3921C55.9556 21.6265 53.21 20.5177 53.21 16.8217C53.21 13.0993 56.4572 11.0401 60.3644 11.0401C63.8228 11.0401 66.014 12.0169 67.202 12.7033V17.4817C65.4332 16.3729 62.5292 15.3433 60.206 15.3433C58.8332 15.3433 58.0148 15.6865 58.0148 16.4785C58.0148 17.4025 59.0972 17.6929 60.8924 18.1681L62.846 18.6961C65.5916 19.4353 68.4956 20.4385 68.4956 24.2401C68.4956 27.8305 65.354 29.7841 61.1564 29.7841C57.8564 29.7841 55.19 28.7281 53.9756 27.8569V23.2369C55.7708 24.5569 59.0444 25.6393 61.4468 25.6393C63.2948 25.6393 63.8756 25.2433 63.8756 24.5305ZM72.7411 14.2345C70.9987 14.2345 69.9427 13.4425 69.9427 12.0961C69.9427 10.7497 70.9987 9.98413 72.7411 9.98413C74.5099 9.98413 75.5131 10.7497 75.5131 12.0961C75.5131 13.4425 74.5099 14.2345 72.7411 14.2345ZM70.6027 15.5281H74.8267V29.5201H70.6027V15.5281ZM90.7586 26.4841C90.7586 32.0017 87.353 33.9553 83.4194 33.9553C81.2018 33.9553 79.301 33.3217 78.1394 32.6089V28.3585C79.433 29.3353 81.149 29.9953 82.9442 29.9953C85.7426 29.9953 86.5346 28.7809 86.5346 27.1441V26.9857C85.637 27.5665 84.4754 28.0153 82.9442 28.0153C79.6442 28.0153 77.1098 25.7977 77.1098 22.2601C77.1098 17.3761 81.0434 15.2641 84.845 15.2641C87.485 15.2641 89.3594 15.9505 90.7586 16.5049V26.4841ZM81.4922 21.6793C81.4922 23.6065 82.7858 24.2137 84.185 24.2137C85.0034 24.2137 85.8482 24.0025 86.5346 23.7385V19.2769C86.033 19.1449 85.4522 19.0393 84.8186 19.0393C83.0234 19.0393 81.4922 19.8313 81.4922 21.6793ZM100.44 19.3561C99.3578 19.3561 98.3282 19.5937 97.5626 19.9105V29.5201H93.3386V15.5281H97.2986V17.1913C98.4074 16.1881 100.203 15.2641 102.367 15.2641C105.825 15.2641 107.066 17.4817 107.066 20.5441V29.5201H102.842V21.6793C102.842 20.3329 102.235 19.3561 100.44 19.3561ZM116.179 25.6921C117.262 25.6921 118.291 25.4545 119.057 25.1377V15.5281H123.281V29.5201H119.321V27.8569C118.212 28.8601 116.417 29.7841 114.252 29.7841C110.794 29.7841 109.553 27.5665 109.553 24.5041V15.5281H113.777V23.3689C113.777 24.7153 114.384 25.6921 116.179 25.6921ZM132.763 19.3561C131.787 19.3561 130.863 19.6201 130.15 19.9105V29.5201H125.926V15.5281H129.886V17.1913C130.968 16.1881 132.631 15.2641 134.691 15.2641C136.723 15.2641 137.938 16.1089 138.571 17.4817C139.601 16.3729 141.423 15.2641 143.667 15.2641C146.94 15.2641 148.102 17.4817 148.102 20.5441V29.5201H143.878V21.6793C143.878 20.3065 143.35 19.3561 141.739 19.3561C140.763 19.3561 139.812 19.6201 139.099 19.9105C139.126 20.1217 139.126 20.3329 139.126 20.5441V29.5201H134.902V21.6793C134.902 20.3065 134.374 19.3561 132.763 19.3561ZM152.868 29.9161C151.416 29.9161 150.254 28.7545 150.254 27.3025C150.254 25.8505 151.416 24.6625 152.868 24.6625C154.32 24.6625 155.508 25.8505 155.508 27.3025C155.508 28.7545 154.32 29.9161 152.868 29.9161Z" fill="white"/>
</g>
</svg>
