<svg width="136" height="38" viewBox="0 0 136 38" fill="none" xmlns="http://www.w3.org/2000/svg">
<path opacity="0.5" fill-rule="evenodd" clip-rule="evenodd" d="M15.3533 0C11.9007 0 8.76196 1.25549 6.25098 3.13873L23.3571 23.6974L37.3244 13.1827C36.6967 5.80665 30.4192 0 22.7293 0" fill="white"/>
<path fill-rule="evenodd" clip-rule="evenodd" d="M22.7293 37.0371C30.89 37.0371 37.4814 30.4457 37.4814 22.285V21.5003L24.7695 30.9165C23.3571 32.0151 21.3169 31.7012 20.2183 30.4457L2.0137 8.47461C1.07208 10.3578 0.444336 12.555 0.444336 14.7521V22.1281C0.444336 30.2888 7.03567 36.8801 15.1964 36.8801" fill="white"/>
<g clip-path="url(#clip0_71_852)">
<path d="M55.5847 11.0918L55.9061 11.3673C56.0439 12.9288 56.0898 14.5592 56.0898 16.1206C56.0898 19.2895 55.6765 22.5273 55.378 24.6629L55.9521 24.6858C58.2024 22.4355 60.2921 18.8303 60.2921 16.1895C60.2921 14.0769 59.4195 12.6762 58.5698 11.7806L58.6158 11.4821C60.0165 11.2066 61.555 11.1147 62.6802 11.0918C63.1624 11.4592 63.461 11.9643 63.461 12.9058C63.461 13.5488 63.3002 14.3295 62.9787 15.3629C62.0373 18.4169 56.4343 25.7421 53.7247 27.4414C52.5536 27.3495 51.4284 26.9821 50.5787 26.4999C50.8313 23.5836 51.015 20.5525 51.015 17.728C51.015 16.0977 50.9232 14.6051 50.8084 13.3651L48.7417 11.7347L48.7876 11.4362C50.395 11.2755 53.9773 11.0918 55.5847 11.0918ZM67.633 13.0206C66.7375 13.0206 66.0716 12.4466 66.0716 11.6429C66.0716 10.4258 67.2656 9.69101 68.253 9.69101C69.1486 9.69101 69.7916 10.2651 69.7916 11.0458C69.7916 12.2858 68.6204 13.0206 67.633 13.0206ZM71.2153 24.4792C70.113 25.7192 67.8627 27.4414 65.9338 27.4414C64.3034 27.4414 63.0404 26.5918 63.0404 24.8695C63.0404 24.0429 63.3619 22.9406 63.7753 21.6318C64.1886 20.3458 64.6249 18.8992 64.9234 17.2229L64.0508 15.914L64.1197 15.5695C66.1864 15.3399 67.9316 15.248 69.6308 15.2251L69.9523 15.4547C69.9523 16.3732 69.6767 18.3251 69.1256 20.2769C68.5286 22.3895 67.5412 24.7088 67.5412 25.8799C67.5412 26.0866 67.5642 26.3392 67.633 26.431C68.6893 25.9718 70.2967 24.8236 71.1464 23.8821L71.2153 23.951V24.4792ZM80.76 23.7903C80.76 26.408 78.0733 27.4414 75.8459 27.4414C73.4118 27.4414 70.8859 26.6836 70.0363 25.5125C70.4726 24.4562 71.2074 23.5147 71.9651 22.734H72.1948C72.7229 24.0888 74.0318 26.8903 75.5244 26.8903C76.2133 26.8903 76.8333 26.4769 76.8333 25.6273C76.8333 24.4332 75.9837 24.0429 74.8814 23.354C73.0674 22.2288 71.8963 21.4251 71.8963 19.7718C71.8963 16.4421 75.8918 15.2251 78.5326 15.2251C80.9896 15.2251 82.62 16.1206 82.62 17.5673C82.62 18.4629 82.0918 19.014 81.334 19.4043C80.1859 19.5421 79.0607 19.5651 77.9126 19.5651L77.8437 19.3355C78.3948 18.7155 78.9459 18.1184 78.9459 17.5214C78.9459 16.8555 78.257 15.9599 77.3385 15.9599C76.6266 15.9599 75.9148 16.4421 75.9148 17.6362C75.9148 18.8303 76.6726 19.5192 77.7748 20.208C79.5889 21.3332 80.76 22.1369 80.76 23.7903ZM99.3514 24.4792C98.2491 25.7192 95.5395 27.4414 93.6106 27.4414C91.9802 27.4414 91.0847 26.5918 91.0847 25.0992C91.0847 23.8592 91.7506 21.7925 92.7151 19.8866L92.3476 19.7718C92.2788 19.9095 91.9114 20.7362 91.8195 20.9199C90.3499 24.1118 88.8114 27.4414 85.6195 27.4414C83.8054 27.4414 82.8639 26.3621 82.8639 24.8695C82.8639 24.0658 83.438 22.5732 83.9891 21.0347C84.5632 19.4962 85.1373 17.9347 85.1373 16.9703C85.1373 16.6258 84.9995 16.534 84.7928 16.534C84.4254 16.534 83.8743 16.7406 83.4151 17.0162L83.3462 16.9703L83.438 16.3732C84.4714 15.8221 85.8951 15.2251 87.158 15.2251C88.9032 15.2251 89.6839 16.1206 89.6839 17.6132C89.6839 18.4399 89.2017 20.0014 88.7195 21.471C88.2373 22.9636 87.7551 24.3643 87.7551 24.8925C87.7551 25.3058 87.9847 25.4436 88.2373 25.4436C88.7425 25.4436 89.4773 24.4792 90.3269 22.8258C91.2684 21.0118 92.3936 18.371 93.6106 15.2251C95.241 15.3399 97.101 16.1436 97.7669 16.7866C97.7669 18.394 95.241 23.7673 95.241 26.0866C95.241 26.2243 95.2639 26.3621 95.3099 26.431C97.2158 25.6503 98.4788 24.6858 99.2825 23.8362L99.3514 23.9051V24.4792ZM114.594 24.2495C113.492 25.4895 110.552 27.4414 108.623 27.4414C106.993 27.4414 106.097 26.5918 106.097 25.0992C106.097 24.2495 106.419 23.4688 107.59 21.4021L106.809 21.471C105.891 23.6755 104.283 27.4414 101.734 27.4414C99.8974 27.4414 98.5886 25.6043 98.5886 23.0325C98.5886 18.4169 101.114 15.2251 104.766 15.2251C105.983 15.2251 106.924 15.7303 107.521 16.7636L107.292 17.3377C106.786 16.6718 106.212 15.9599 105.477 15.9599C104.444 15.9599 103.549 19.1288 103.549 22.711C103.549 24.1577 103.778 24.9614 104.214 24.9614C104.582 24.9614 104.995 24.2036 105.845 22.1829C106.488 20.6903 107.36 18.5318 108.417 15.4777C110.093 15.7073 111.93 16.6258 112.711 17.4984C112.711 18.3021 112.091 20.1162 111.471 21.8843C110.874 23.6525 110.254 25.3977 110.254 26.0866C110.254 26.2243 110.277 26.3621 110.323 26.431C112.229 25.6503 113.721 24.4562 114.525 23.6066L114.594 23.6755V24.2495ZM116.433 27.4414C114.642 27.4414 113.539 26.454 113.539 24.8695C113.539 23.974 113.746 23.0325 114.228 21.5629L116.226 15.4777C116.754 13.8703 116.984 12.9288 117.099 12.0332L116.272 10.5406L116.341 10.1962C118.155 9.98953 119.946 9.87471 121.852 9.85175L122.151 10.0584C122.151 10.908 121.714 13.6866 120.497 17.5214C119.831 19.611 118.063 24.2036 118.063 25.8799C118.063 26.0866 118.109 26.3392 118.132 26.431C119.349 25.9258 121.278 24.6629 122.059 23.7903L122.128 23.8592V24.3873C120.681 26.0177 117.994 27.4414 116.433 27.4414ZM132.705 26.7984C131.235 30.3806 127.813 32.8147 124.139 32.8147C122.004 32.8147 119.662 32.1258 119.409 30.0592C120.098 28.7043 121.751 27.1888 123.106 26.5918C122.004 26.2473 121.453 25.3288 121.453 24.1806C121.453 23.354 122.05 22.0221 122.67 20.6673C123.267 19.2895 123.864 17.8888 123.864 16.9473C123.864 16.6029 123.726 16.511 123.519 16.511C123.29 16.511 122.785 16.6488 122.578 16.7866L122.509 16.7406L122.601 16.2125C123.313 15.7303 124.622 15.2251 125.885 15.2251C127.63 15.2251 128.41 16.0977 128.41 17.5903C128.41 18.4169 127.882 19.8177 127.377 21.1495C126.849 22.4584 126.344 23.6755 126.344 24.2036C126.344 24.6169 126.573 24.7547 126.826 24.7547C127.193 24.7547 127.745 24.1577 128.433 23.0095C129.352 21.4251 130.5 18.8532 131.648 15.4547C133.049 15.6843 135.139 16.4651 135.942 17.4984C135.667 18.1873 133.669 24.4792 132.705 26.7984ZM123.382 28.0614C123.382 29.9673 124.438 31.9651 126.206 31.9651C126.826 31.9651 127.515 30.128 128.227 27.8777C128.916 25.6503 129.627 23.0325 130.316 21.3792L129.857 21.471C129.536 22.114 129.191 22.734 128.824 23.331C127.653 25.214 126.183 26.7525 124.208 26.7525C123.979 26.7525 123.772 26.7295 123.565 26.7066C123.45 27.1429 123.382 27.6021 123.382 28.0614Z" fill="white"/>
</g>
<defs>
<clipPath id="clip0_71_852">
<rect width="87.4074" height="37.037" fill="white" transform="translate(48.5928)"/>
</clipPath>
</defs>
</svg>
