<svg width="927" height="600" viewBox="0 0 927 600" fill="none" xmlns="http://www.w3.org/2000/svg">
<g opacity="0.2">
<path d="M391.482 470.563C390.393 466.432 390.491 467.106 389.897 465.281C389.3 463.456 390.522 465.088 389.019 463.073C387.516 461.056 388.01 464.585 387.317 459.267C386.624 453.954 387.317 456.354 385.732 452.129C384.145 447.906 384.938 448.865 383.452 446.752C381.963 444.642 382.361 446.752 381.37 443.297C380.378 439.841 381.37 441.377 379.683 438.784C377.997 436.193 377.304 436.481 376.609 434.754C375.916 433.026 375.024 434.368 376.609 431.297C378.196 428.225 380.376 430.528 377.896 426.688C375.417 422.849 379.285 418.625 375.122 422.175C370.96 425.727 374.825 423.81 370.164 426.784C365.505 429.76 365.107 427.647 364.114 430.048C363.124 432.448 363.62 431.199 362.726 433.888C361.834 436.576 363.52 437.152 360.743 438.016C357.967 438.882 361.834 441.09 357.274 438.882C352.711 436.674 351.421 437.057 351.62 436.291C351.819 435.522 349.44 437.252 352.61 434.178C355.78 431.104 357.171 432.065 357.468 429.282C357.765 426.498 360.738 425.73 356.475 425.347C352.212 424.961 352.905 422.465 350.428 425.922C347.951 429.379 347.354 428.994 347.354 431.106C347.354 433.219 352.212 431.492 346.858 433.507C341.506 435.522 340.612 434.468 341.406 436.005C342.199 437.54 341.602 437.157 342.99 438.118C344.379 439.079 345.271 437.061 344.379 439.079C343.484 441.094 344.379 441.189 342.791 441.479C341.207 441.767 340.015 438.503 339.917 441.191C339.818 443.88 339.32 443.782 340.31 446.28C341.303 448.776 340.212 448.296 341.204 450.311C342.197 452.326 345.069 450.599 345.367 450.504C345.666 450.406 344.671 453.002 346.359 450.311C348.045 447.625 346.598 448.008 348.115 446.566C349.63 445.127 348.738 441.765 350.423 444.744C352.109 447.72 352.406 447.237 351.217 449.735C350.028 452.231 349.237 454.534 349.035 457.318C348.839 460.104 347.052 461.158 349.632 461.062C352.21 460.967 350.426 458.662 353.003 460.87C355.581 463.08 353.102 462.792 355.977 464.424C358.851 466.056 359.647 463.463 359.844 466.056C360.041 468.649 359.647 467.783 359.547 471.433C359.448 475.083 359.348 474.6 360.24 476.619C361.134 478.635 361.729 477.771 361.333 479.594C360.935 481.418 356.276 481.321 361.333 482.092C366.39 482.86 366.488 484.778 368.967 482.475C371.447 480.172 373.031 483.05 371.447 480.172C369.859 477.291 371.147 478.54 368.867 475.851C366.586 473.165 366.191 475.273 364.999 471.052C363.81 466.827 362.92 468.269 363.613 465.58C364.306 462.892 368.668 463.563 364.009 462.123C359.348 460.684 361.63 461.069 359.348 460.684C357.067 460.298 357.959 462.411 356.471 460.108C354.986 457.805 354.687 456.746 354.092 456.075C353.497 455.402 351.514 458.474 353.893 454.441C356.274 450.408 356.967 452.331 356.274 449.545C355.581 446.761 355.677 447.722 354.886 445.61C354.092 443.497 351.414 443.304 354.488 442.345C357.564 441.384 354.687 440.425 358.453 441.384C362.22 442.345 362.717 442.921 364.304 442.921C365.891 442.921 367.279 441.001 366.287 443.304C365.296 445.61 363.311 446.088 364.501 447.239C365.692 448.391 364.358 445.993 366.86 449.064C369.361 452.136 369.262 449.608 370.056 452.888C370.85 456.168 368.174 456.266 371.444 456.554C374.717 456.842 371.742 457.42 375.014 457.515C378.287 457.61 377.592 457.129 379.081 457.227C380.567 457.322 381.361 454.441 380.965 458.091C380.567 461.738 379.774 460.298 380.567 462.506C381.361 464.714 380.368 464.619 382.253 465.097C384.138 465.578 385.823 466.922 385.823 466.922C384.732 470.091 383.838 469.994 384.833 472.78C385.823 475.563 387.61 476.62 386.418 478.732C385.229 480.845 382.12 481.23 385.608 482.38C389.094 483.531 387.209 486.7 389.988 483.629C392.762 480.555 395.141 486.219 393.455 478.732C391.779 471.234 392.573 474.69 391.482 470.563Z" fill="#1D2635"/>
<path d="M249.711 343.6L248.684 349.131C248.684 349.131 250.395 347.248 252.448 349.131C254.504 351.017 263.06 345.153 263.06 345.153C265.703 344.632 268.705 345.781 272.467 346.275C276.227 346.772 277.833 345.11 283.201 344.473C288.569 343.836 297.732 344.79 297.732 344.79C297.732 344.79 291.268 343.446 288.531 343.165C285.792 342.882 281.85 340.903 279.366 339.382C276.882 337.861 274.473 337.224 273.047 336.872C271.624 336.519 264.655 338.693 264.655 338.693C263.941 339.089 259.682 341.481 256.554 343.6C253.134 345.921 249.711 343.6 249.711 343.6Z" fill="#1D2635"/>
<path d="M328.678 376.372C328.093 377.99 330.099 380.581 330.352 381.633C330.602 382.685 329.849 384.627 328.678 385.518C327.507 386.409 324.834 382.717 324.834 382.717C324.834 382.717 320.821 384.142 319.985 387.783C319.15 391.426 324.417 392.72 326.674 390.374C328.931 388.025 327.592 386.407 330.436 386.649C333.278 386.892 336.326 382.717 336.326 382.717C338.532 377.519 343.89 374.812 343.457 373.13C343.022 371.448 341.793 371.31 340.924 370.258C340.058 369.206 341.65 368.996 340.852 367.386C340.058 365.774 339.632 365.849 339.632 365.849C332.859 367.386 329.263 374.753 328.678 376.372Z" fill="#1D2635"/>
<path d="M142.84 285.34C142.84 285.34 135.285 282.121 131.963 281.829C128.638 281.537 129.242 280.659 124.71 279.195C120.178 277.733 124.71 279.78 124.71 273.052C124.71 266.322 128.94 272.175 124.106 264.275C119.272 256.375 120.48 258.422 118.064 254.911C115.648 251.402 109.905 257.252 114.437 249.645C118.97 242.04 120.241 244.379 121.116 238.528C121.992 232.678 127.491 238.821 121.116 230.044C114.742 221.267 115.044 223.023 114.742 221.267C114.44 219.51 109.24 220.974 112.747 213.952C116.252 206.931 113.232 211.027 117.764 206.052C122.296 201.078 120.182 202.543 123.504 199.909C126.826 197.275 124.228 203.42 127.189 195.52C130.153 187.62 131.361 186.743 130.153 185.866C128.943 184.989 129.971 188.498 127.189 185.866C124.41 183.234 121.39 189.082 124.41 183.234C127.433 177.383 127.128 178.553 128.943 176.506C130.757 174.459 129.968 173.874 127.189 172.995C124.41 172.118 123.202 173.58 122.598 170.948C121.994 168.314 118.429 171.24 121.119 164.51C123.809 157.782 122.598 157.782 125.014 154.856C127.433 151.929 125.014 154.856 128.943 151.345C132.871 147.833 136.195 144.907 136.195 144.907C136.195 144.907 135.673 142.273 133.517 138.179C131.361 134.085 130.153 133.79 130.153 132.621C130.153 131.451 130.153 128.817 130.153 128.817C130.153 128.817 131.361 128.524 130.153 127.355C128.943 126.185 121.119 121.701 121.119 121.701L4.15039 233.188C4.15039 233.188 5.91324 234.212 6.96673 235.087C8.02023 235.962 9.2259 235.817 11.7871 237.42C14.3482 239.025 12.8429 238.005 15.8536 238.295C18.8666 238.587 17.0592 238.73 19.3184 241.795C21.5775 244.857 18.8666 242.67 17.3612 245.15C17.099 245.58 16.8953 245.907 16.7338 246.172C52.9506 265.442 105.944 285.354 140.826 297.654C140.824 297.66 138.008 288.852 142.84 285.34Z" fill="#1D2635"/>
<path d="M229.587 281.719C225.818 280.232 222.215 273.338 225.064 279.826C227.913 286.313 229.587 287.531 231.683 290.101C233.778 292.67 235.035 293.03 234.197 294.134C233.359 295.238 235.314 296.183 231.544 296.049C227.775 295.916 230.009 295.644 226.659 296.049C223.308 296.455 227.356 292.128 222.47 296.455C217.584 300.782 219.399 302.267 216.885 300.646C214.37 299.023 211.158 298.754 211.158 298.754L208.365 301.186C210.877 303.754 211.158 304.836 213.532 306.187C215.904 307.538 213.52 309.161 219.389 308.619C225.259 308.077 220.651 307.132 225.259 308.077C229.866 309.025 228.192 309.204 230.844 309.791C233.497 310.376 237.826 312.586 238.523 309.791C239.221 306.996 236.428 305.915 240.616 304.563C244.804 303.212 243.688 303.076 246.202 303.482C248.716 303.888 246.202 307.674 251.228 303.076C256.255 298.479 253.043 297.804 257.512 296.992C261.981 296.181 259.048 296.587 263.795 296.181C268.543 295.775 262.957 298.479 271.058 296.181C279.155 293.882 279.155 295.505 281.251 293.343C283.346 291.18 283.73 290.638 283.73 290.638C283.73 290.638 291.163 288.07 279.853 289.693C268.543 291.316 270.716 292.398 266.488 292.125C262.26 291.856 261.841 289.827 259.745 291.18C257.65 292.531 260.024 292.531 256.812 293.209C253.6 293.885 255.695 294.966 252.624 293.749C249.552 292.531 250.669 291.18 247.876 292.397C245.083 293.615 246.2 296.317 244.385 294.018C242.571 291.72 241.314 288.476 240.057 288.07C238.8 287.664 237.404 288.34 236.147 287.259C234.892 286.18 233.356 283.208 229.587 281.719Z" fill="#1D2635"/>
<path d="M337.416 112.381C337.751 112.58 338.271 112.859 339.071 113.263C342.843 115.162 336.96 115.015 344.503 115.162C352.05 115.307 349.332 118.816 352.804 115.162C356.276 111.51 356.426 116.185 357.329 109.903C358.235 103.62 361.253 105.612 358.086 102.863C354.916 100.113 355.922 99.8205 354.363 99.6754C352.804 99.5281 357.784 102.452 352.804 99.5281C347.825 96.6061 345.76 99.2357 346.715 95.1441C347.672 91.0525 351.041 90.76 349.131 87.693C347.221 84.6238 352.502 80.242 347.221 84.6238C341.937 89.0078 340.176 88.7154 339.097 91.6373C338.015 94.5592 338.214 94.1217 339.097 96.7512C339.975 99.3807 339.975 99.3807 340.579 101.72C341.183 104.057 341.183 104.123 340.279 105.113C339.373 106.104 337.564 106.834 337.564 106.834V112.093C337.564 112.093 337.512 112.202 337.416 112.381Z" fill="#1D2635"/>
<path d="M362.381 197.034C367.7 196.128 371.452 200.974 369.263 194.31C367.072 187.645 370.2 189.159 367.072 187.645C363.945 186.131 371.452 190.977 363.944 186.131C356.434 181.285 354.87 184.012 352.993 179.467C351.118 174.924 351.429 179.165 350.804 172.498C350.179 165.834 349.65 168.865 349.132 164.32C348.615 159.775 348.264 161.593 348.128 157.655C347.988 153.716 347.149 152.455 349.132 149.905C351.118 147.355 348.301 153.414 351.118 147.355C353.934 141.296 354.248 136.751 352.054 135.54C349.865 134.33 350.769 131.456 348.128 133.045C345.485 134.634 343.053 134.026 342.392 136.753C341.732 139.48 340.793 141.903 340.793 141.903C340.793 141.903 340.903 140.647 337.565 139.154C334.224 137.662 335.163 134.935 334.224 137.662C333.285 140.387 332.035 138.872 333.285 144.326C334.538 149.78 334.538 147.962 334.538 152.204C334.538 156.445 337.354 157.46 335.163 159.829C332.974 162.198 337.041 163.714 332.974 162.198C328.908 160.684 328.28 162.305 328.28 159.829C328.28 157.352 330.429 158.261 329.823 153.716C329.219 149.173 332.307 147.051 329.823 145.838C327.341 144.628 327.341 143.415 325.464 141.901C323.586 140.387 318.272 139.151 318.272 139.151C318.272 139.151 322.589 147.733 321.87 150.082L310.703 186.612L260.903 174.629L263.516 184.311C263.516 184.311 263.099 184.671 265.81 186.612C268.521 188.552 267.271 189.157 270.087 190.37C272.904 191.58 271.965 190.977 275.095 191.884C278.223 192.793 278.223 192.793 278.223 192.793C278.223 192.793 277.284 193.702 278.223 195.822C279.162 197.943 274.47 196.731 278.223 199.154C281.978 201.577 272.656 201.881 283.731 202.486C294.805 203.091 290.972 201.881 297.738 202.486C304.504 203.091 298.246 202.23 306.068 202.661C313.889 203.091 307.007 205.515 313.889 203.091C320.77 200.668 314.835 204.304 321.87 200.668C328.905 197.032 329.823 195.518 329.823 195.518L332.347 197.032C332.347 197.032 331.094 199.759 335.163 201.879C339.23 204 339.23 202.185 340.793 204.152C342.357 206.12 340.168 206.725 345.799 207.938C351.431 209.148 350.179 210.513 354.559 209.681C358.942 208.847 357.062 210.764 360.817 209.352C364.572 207.94 361.753 203.395 360.817 201.881C359.878 200.367 364.883 203.094 359.878 200.367C354.873 197.64 354.873 197.64 354.873 197.64C354.873 197.64 353.62 194.004 358 195.518C362.381 197.034 357.059 197.943 362.381 197.034Z" fill="#1D2635"/>
<path d="M381.334 208.664C380.672 207.918 380.213 207.352 380.213 207.352C380.213 207.352 380.721 208.723 381.334 208.664Z" fill="#1D2635"/>
<path d="M313.258 224.588C312.942 224.581 312.947 225.134 313.195 225.959C313.35 225.365 313.518 224.592 313.258 224.588Z" fill="#1D2635"/>
<path d="M229.614 202.491C232.229 206.582 227.601 202.457 234.242 209.683C240.882 216.907 235.853 215.155 244.503 221.779C253.156 228.402 256.174 227.038 257.18 231.714C258.187 236.391 254.364 235.416 259.999 240.287C265.632 245.159 255.975 246.224 268.048 246.179C280.119 246.131 279.517 243.887 281.128 246.179C282.736 248.471 280.524 247.691 283.34 250.613C286.159 253.535 292.597 260.548 295.212 261.523C297.829 262.495 349.136 276.525 349.136 276.525L342.396 338.869C355.074 342.375 410.909 342.083 410.909 342.083C411.023 332.742 413.383 331.842 414.633 328.208C415.884 324.572 417.138 327.904 418.7 325.483C420.264 323.058 419.325 322.452 420.575 318.211C421.828 313.97 422.455 316.396 429.024 311.547C435.591 306.7 429.024 311.547 429.024 306.7C429.024 301.854 429.338 304.277 433.091 302.459C436.843 300.641 433.091 302.459 438.41 300.945C443.726 299.431 443.104 299.127 446.231 296.4C446.594 296.083 446.894 295.845 447.149 295.663C445.002 294.018 439.817 290.082 438.096 289.133C435.907 287.92 438.096 289.133 442.479 288.525C446.859 287.92 448.109 285.497 448.736 281.727C449.361 277.957 450.298 280.346 453.742 281.255C457.181 282.164 455.305 281.861 458.433 279.437C461.561 277.014 458.433 279.437 464.691 274.893C470.944 270.35 464.691 274.893 467.046 271.257C469.404 267.621 467.507 267.319 467.046 265.501C466.585 263.683 463.438 266.106 457.494 265.501C451.548 264.896 454.367 265.2 450.298 262.169C446.231 259.14 447.17 257.928 445.918 253.686C444.667 249.445 447.793 252.476 453.114 252.476C458.433 252.476 455.617 253.99 459.058 255.507C462.502 257.021 459.686 257.021 464.063 259.748C468.444 262.475 466.252 259.143 469.696 256.112C473.135 253.081 471.883 253.387 474.074 250.962C476.263 248.539 474.701 244.599 475.952 243.085C477.204 241.568 476.577 240.963 478.766 239.147C480.955 237.329 478.766 239.147 480.018 239.013C481.271 238.88 481.271 242.479 487.215 246.419C493.159 250.357 490.031 245.206 490.97 244.297C491.909 243.388 487.531 235.815 489.717 236.119C491.908 236.422 489.717 236.119 491.909 236.724C494.1 237.329 494.1 238.846 497.853 241.874C501.608 244.903 497.853 241.874 501.296 233.999C504.738 226.122 503.174 230.968 504.738 227.94C506.302 224.912 506.302 226.122 504.738 220.367C503.174 214.611 504.738 220.367 502.158 217.943C499.576 215.52 499.421 214.915 500.983 212.793C502.549 210.671 502.549 210.975 500.983 207.339C499.421 203.703 497.23 204.916 496.291 200.976C495.355 197.039 495.666 199.161 493.163 194.008C490.661 188.858 491.286 194.008 486.278 193.403C481.273 192.798 483.464 192.798 475.329 193.101C467.193 193.405 475.954 197.039 478.145 200.07C480.334 203.1 478.77 203.706 478.145 207.947C477.52 212.188 473.14 208.856 468.76 213.097C464.377 217.338 468.76 217.338 467.046 226.124C465.335 234.908 466.568 229.457 465.002 230.971C463.438 232.485 460.936 230.667 457.808 227.636C454.678 224.608 457.808 227.636 454.364 224.592C450.923 221.548 454.678 219.458 456.24 215.216C457.806 210.975 457.492 211.884 456.24 209.361C454.989 206.838 453.426 204.009 449.357 200.979C445.29 197.948 443.413 211.279 440.283 219.458C437.155 227.636 440.283 219.458 436.581 212.188C432.88 204.916 434.339 209.765 430.581 207.339C426.828 204.916 430.581 207.339 435.259 197.646C439.934 187.951 431.208 196.132 424.639 192.496C418.068 188.86 422.762 191.587 420.57 186.618C418.379 181.649 421.509 183.105 422.134 178.562C422.762 174.017 420.884 174.926 419.007 170.08C417.131 165.233 417.443 167.958 415.877 164.929C414.31 161.901 418.693 162.81 418.066 159.834C417.44 156.857 416.502 156.143 417.127 154.933C417.754 153.72 420.257 154.024 423.071 151.904C425.885 149.783 425.573 150.086 431.518 147.058C437.462 144.029 433.709 141.604 434.961 133.051C436.209 124.499 433.397 134.033 428.39 133.051C423.384 132.07 426.199 133.425 421.507 133.051C416.813 132.677 419.632 133.124 414.324 134.033C409.02 134.942 414.001 135.851 409.933 138.879C405.866 141.91 409.933 138.879 402.736 147.362C395.539 155.844 403.361 150.089 405.239 156.753C407.116 163.417 406.489 160.691 407.428 166.448C408.366 172.204 407.428 166.448 405.239 170.386C403.05 174.323 403.675 171.596 400.858 176.597C398.042 181.595 400.233 178.263 401.484 179.473C402.736 180.686 403.047 180.686 401.17 184.32C399.295 187.956 399.608 186.442 401.484 194.316C403.361 202.194 401.484 194.316 404.3 195.527C407.114 196.74 405.866 196.74 410.244 200.677C414.626 204.615 410.558 203.404 413.058 209.361C415.563 215.318 413.685 210.674 413.058 218.247C412.433 225.821 413.058 218.247 410.871 222.185C408.68 226.122 408.996 222.486 404.927 224.594C400.861 226.7 405.241 228.244 403.956 233.09C402.673 237.937 401.484 234.908 398.428 233.394C395.376 231.88 398.983 231.88 398.428 226.124C397.878 220.369 398.983 222.488 398.428 219.764C397.878 217.039 397.417 217.037 398.428 215.219C399.444 213.401 402.422 213.099 403.677 210.977C404.927 208.856 401.8 208.251 398.428 205.524C395.062 202.797 396.165 204.311 393.351 199.161C390.537 194.013 391.159 195.828 388.032 192.8C384.904 189.771 383.654 195.527 383.654 195.527C383.654 195.527 383.654 198.254 382.715 204.918C382.312 207.774 381.795 208.625 381.336 208.67C382.141 209.574 383.251 210.751 384.281 211.583C386.156 213.097 385.531 213.097 387.095 216.733C388.661 220.369 387.095 216.733 384.906 216.733C382.715 216.733 384.906 221.278 384.906 221.278C384.906 221.278 384.906 221.278 388.348 221.278C391.789 221.278 388.348 221.278 389.6 226.124C390.85 230.971 388.661 227.639 385.218 229.219C381.778 230.796 383.967 229.153 376.771 224.594C369.577 220.036 374.893 223.397 369.888 224.594C368.16 225.009 367.449 225.315 367.179 225.481C367.245 225.326 367.217 225.043 366.76 224.594C365.196 223.066 364.255 224.912 355.497 221.883C346.737 218.855 353.931 221.579 346.109 219.761C338.29 217.946 346.109 219.761 339.854 214.915C333.594 210.068 339.227 213.401 337.564 207.357C335.9 201.316 333.594 207.947 327.339 209.69C321.081 211.433 323.272 210.066 318.271 209.361C313.273 208.654 317.951 210.977 315.45 213.401C312.948 215.824 315.45 213.401 316.387 217.943C317.326 222.486 315.762 220.065 313.884 224.608C313.582 225.34 313.386 225.816 313.252 226.133C313.503 226.909 313.936 227.883 314.509 228.865C315.759 231 313.884 230.366 310.443 235.817C306.999 241.271 310.443 235.817 308.565 232.184C306.688 228.548 308.565 232.184 304.499 224.594C300.432 217.007 304.499 221.883 307.001 217.642C309.504 213.401 307.315 215.522 304.812 212.795C302.307 210.068 304.812 212.795 298.976 214.781C293.14 216.769 295.738 215.52 288.23 214.31C280.72 213.099 286.351 215.824 278.843 214.31C271.332 212.795 276.654 213.704 268.205 211.281C259.756 208.856 266.641 209.767 264.45 206.435C262.258 203.103 265.075 204.313 266.484 203.542C267.891 202.772 267.891 202.801 273.208 203.406C278.524 204.012 272.896 202.497 273.208 200.983C273.517 199.469 271.957 200.074 268.516 195.529C265.075 190.986 268.516 195.529 265.807 193.106C263.099 190.683 263.511 193.711 263.511 193.711C263.511 193.711 263.511 193.711 260.697 194.316C257.88 194.922 260.697 194.316 255.378 191.893C250.059 189.47 253.814 190.377 251.623 188.862C249.434 187.348 249.745 186.743 247.242 184.32C244.74 181.897 247.242 182.502 247.242 182.502L239.17 176.594C238.843 177.229 226.194 195.681 226.395 197.238C226.594 198.789 226.999 198.399 229.614 202.491Z" fill="#1D2635"/>
<path d="M313.253 226.128C313.236 226.073 313.21 226.012 313.196 225.96C313.035 226.571 312.899 226.97 313.253 226.128Z" fill="#1D2635"/>
<path d="M447.143 295.661C447.73 296.11 448.102 296.398 448.102 296.398C448.102 296.398 449.076 294.276 447.143 295.661Z" fill="#1D2635"/>
<path d="M368.318 158.599C375.067 163.123 375.067 159.111 376.919 164.148C378.771 169.187 369.949 169.869 379.567 170.212C389.179 170.554 386.976 173.628 389.797 170.212C392.621 166.795 388.386 168.418 392.621 166.795C396.853 165.172 397.207 172.517 397.471 164.062C397.736 155.606 401.44 157.998 397.471 154.412C393.503 150.826 392.885 151.166 392.356 149.801C391.827 148.434 390.68 149.715 391.827 147.668C392.974 145.617 391.827 148.094 394.297 144.252C396.767 140.41 398.089 141.262 397.207 137.932C396.324 134.602 400.557 133.661 395.266 134.346C389.975 135.028 390.593 133.834 389.182 135.541C387.77 137.25 383.713 134.441 382.125 134.137C380.536 133.834 380.536 133.065 378.068 134.602C375.601 136.139 373.218 135.541 375.158 138.188C377.097 140.836 376.568 138.957 377.628 141.432C378.686 143.91 380.009 142.799 378.595 145.447C377.186 148.092 375.067 149.459 375.067 149.459C372.157 150.313 374.714 153.643 371.363 150.4C368.013 147.153 369.334 147.582 368.013 147.154C366.688 146.725 365.895 145.36 364.572 147.752C363.249 150.143 359.368 146.181 363.249 151.791C367.126 157.404 361.566 154.072 368.318 158.599Z" fill="#1D2635"/>
<path d="M379.665 96.2523C374.685 96.1661 377.251 97.4809 373.63 97.3335C370.008 97.1862 371.82 96.8643 368.346 94.6881C364.876 92.5097 366.686 88.128 364.876 92.5097C363.067 96.8938 365.78 106.403 367.592 106.763C369.404 107.122 365.866 104.213 369.898 106.763C373.929 109.314 373.175 109.461 375.591 109.898C378.005 110.336 380.428 110.921 380.428 110.921C379.213 113.405 372.422 113.065 379.061 116.815C385.7 120.564 380.721 121.296 386.606 121.149C392.492 121.001 390.378 125.24 392.492 121.001C394.603 116.765 394.756 119.539 394.604 116.765C394.454 113.988 392.576 121.879 394.646 112.381C396.718 102.883 398.979 104.15 395.659 99.7908C392.34 95.4317 396.867 94.5544 391.586 94.7017C386.304 94.8491 388.266 94.7018 384.797 95.4317C381.325 96.1661 384.644 96.3407 379.665 96.2523Z" fill="#1D2635"/>
<path d="M366.991 86.9084C365.783 80.2417 364.739 76.5877 364.28 76.1502C363.824 75.7104 364.727 71.1813 363.824 75.7104C362.918 80.2418 363.232 81.5066 364.28 82.7738C365.331 84.0387 366.991 86.9084 366.991 86.9084Z" fill="#1D2635"/>
<path d="M369.103 69.7187C373.479 69.8661 372.273 70.8884 374.837 69.4263C377.402 67.9665 374.535 65.6272 377.402 67.9665C380.27 70.3036 380.118 68.4062 380.27 70.3036C380.42 72.2032 382.836 72.3505 382.836 72.3505C382.232 72.788 380.572 73.8126 379.666 74.5425C378.76 75.2724 378.61 71.7679 378.76 75.2724C378.912 78.7792 376.216 80.6788 380.432 79.5091C384.648 78.3394 382.082 78.659 385.252 78.2805C388.422 77.9019 390.986 86.0851 389.778 77.172C388.57 68.2589 389.026 68.7667 388.57 67.198C388.118 65.6294 390.833 66.2143 386.91 63.7298C382.986 61.2454 382.412 61.6829 380.813 59.4909C379.214 57.2989 380.273 57.4462 377.405 54.522C374.537 51.6001 373.029 48.8233 371.367 50.7228C369.707 52.6224 368.197 50.7229 368.951 55.2542C369.707 59.7833 369.707 58.6136 370.913 60.5132C372.121 62.4128 373.177 61.2454 372.875 63.145C372.573 65.0446 372.205 65.1896 369.899 65.6294C367.593 66.0669 367.294 63.145 367.593 66.0669C367.898 68.9888 364.725 69.5714 369.103 69.7187Z" fill="#1D2635"/>
<path d="M399.889 73.7129C401.556 74.4021 394.909 74.1028 398.079 76.5873C401.249 79.0717 402.455 77.0248 402.607 79.6565C402.757 82.286 396.117 82.2384 403.511 82.7734C410.904 83.3084 409.396 81.946 412.716 82.7734C416.035 83.6008 416.941 82.5717 416.035 80.3094C415.129 78.0471 415.584 78.9493 413.924 78.2806C412.264 77.6096 414.074 77.1721 411.508 77.3172C408.942 77.4623 410.452 82.4311 408.942 77.4623C407.434 72.4957 406.83 74.1028 407.434 71.7658C408.038 69.4264 410.452 69.7143 407.584 67.8895C404.716 66.067 404.868 67.087 403.209 65.6272C401.549 64.1651 403.056 65.0424 400.341 63.5826C397.625 62.1205 397.454 60.2209 396.785 61.0982C396.115 61.9754 396.115 62.5602 396.115 63.875C396.115 65.1897 394.907 64.3805 396.115 67.1959C397.323 70.0112 395.059 71.7159 399.889 73.7129Z" fill="#1D2635"/>
<path d="M404.417 55.9847C419.508 55.6923 421.018 54.6699 420.561 55.6923C420.109 56.7146 420.168 54.6699 416.366 57.5919C412.564 60.5138 412.414 60.0763 413.77 63.4357C415.127 66.7951 410.904 64.0205 415.731 68.697C420.561 73.3711 414.828 72.6435 420.561 73.3711C426.297 74.1033 426.599 78.34 429.766 72.6412C432.936 66.9425 424.033 71.6642 433.39 65.7229C442.745 59.7839 443.804 58.4827 443.804 58.4827C443.804 58.4827 449.572 55.8374 445.253 60.074C440.936 64.3107 438.824 62.5585 439.728 66.65C440.634 70.7416 437.314 71.1451 440.936 71.9657C444.557 72.7863 446.217 71.9113 447.273 72.6412C448.329 73.3712 449.083 70.9842 448.481 73.7112C447.877 76.4382 446.369 74.5385 442.598 74.9783C438.824 75.4158 436.41 74.1011 438.068 77.023C439.728 79.9449 440.03 81.067 440.332 82.7716C440.634 84.4763 443.047 83.4539 440.182 85.2062C437.314 86.9607 438.37 85.5371 436.558 86.9063C434.748 88.2754 435.05 88.4681 433.69 90.6352C432.332 92.8045 436.408 91.7799 431.124 92.8046C425.843 93.8269 427.2 94.5568 423.125 94.5568C419.051 94.5568 416.364 94.7041 416.364 94.7041C408.638 90.4675 413.919 91.7822 407.28 89.5902C400.641 87.3982 401.849 85.9361 400.641 87.3982C399.433 88.8603 398.829 86.4235 398.679 90.6352C398.527 94.8492 392.641 93.3871 401.544 97.7711C410.45 102.155 409.844 101.715 413.465 102.155C417.087 102.593 413.617 98.6484 417.541 102.155C421.465 105.662 422.371 102.751 421.313 106.764C420.257 110.776 421.011 108.876 420.257 111.946C419.503 115.013 418.295 114.283 420.107 117.789C421.917 121.296 414.676 122.588 422.673 122.892C430.67 123.196 422.673 123.465 432.33 122.892C441.989 122.318 435.5 120.126 443.345 122.026C451.192 123.926 431.272 125.97 453.456 124.363C475.64 122.756 472.62 124.801 475.64 122.756C478.658 120.711 477.298 124.363 479.866 119.981C482.432 115.597 482.731 116.327 482.731 113.698C482.731 111.068 485.901 115.013 482.731 110.191C479.564 105.369 480.772 103.907 477.902 103.762C475.034 103.617 477.902 101.663 472.318 102.86C466.735 104.055 468.394 104.055 464.171 104.932C459.945 105.809 464.775 105.383 457.834 106.766C450.89 108.149 454.06 108.878 449.233 108.878C444.403 108.878 445.611 104.642 441.385 107.856C437.16 111.071 440.933 116.624 437.16 111.071C433.388 105.517 433.236 104.642 432.632 103.619C432.028 102.597 428.256 103.425 435.348 99.7954C442.441 96.1662 438.517 95.8738 444.251 96.0211C449.986 96.1685 446.515 97.0457 452.4 95.8761C458.286 94.7064 457.682 94.8537 461.303 93.0992C464.925 91.347 461.453 88.4704 465.679 90.6397C469.904 92.8091 468.095 91.7845 472.772 93.8314C477.45 95.8783 474.884 102.015 479.11 95.731C483.335 89.4474 483.74 90.3247 484.141 87.5478C484.543 84.771 486.807 83.2454 483.186 83.0595C479.566 82.8714 482.13 85.6006 478.356 82.7761C474.584 79.9494 472.772 77.9048 470.811 78.4896C468.849 79.0745 473.676 76.0052 479.11 67.3845C484.541 58.7638 488.891 59.0562 485.208 56.1343C481.526 53.2124 480.016 52.0427 478.054 51.8976C476.092 51.7526 473.828 52.3351 474.584 51.1677C475.338 49.998 474.432 46.4913 479.566 44.4444C484.696 42.3997 483.338 47.3663 485.449 41.6698C487.563 35.971 485.602 43.2769 487.865 35.2411C490.129 27.2052 487.713 28.52 490.129 25.0132C492.545 21.5065 492.393 25.0132 493.299 19.6092C494.205 14.2028 493.903 11.7184 493.299 9.96388C492.695 8.21164 495.563 8.35671 491.489 6.1647C487.414 3.97269 492.545 -3.33324 480.02 1.78069C467.495 6.89462 466.44 9.23396 463.722 12.301C461.006 15.3702 465.232 18.877 459.798 14.638C454.367 10.4014 461.308 10.6938 450.291 9.67147C439.276 8.64687 444.557 6.30978 435.502 8.35445C426.449 10.4014 425.845 9.08662 421.317 11.4237C416.792 13.7608 409.453 8.35444 416.366 16.3903C423.279 24.4261 419.505 22.9663 425.391 26.6182C431.276 30.2723 427.502 30.8548 432.182 32.6093C436.86 34.3616 434.598 37.8683 440.936 33.7767C447.273 29.6851 440.484 28.2253 449.991 27.7856C459.496 27.3481 465.08 22.3792 460.404 28.5178C455.724 34.654 462.97 31.8771 453.159 35.9687C443.349 40.0603 439.124 34.2165 434.296 39.3282C429.467 44.4421 434.9 52.3329 428.411 44.0046C421.921 35.6763 422.223 34.7991 421.167 33.9218C420.112 33.0445 422.223 32.0222 417.244 29.5378C412.264 27.0557 407.737 26.6159 407.737 27.6382C407.737 28.6605 402.003 41.2278 403.663 42.8349C405.321 44.4421 409.34 40.3505 405.974 47.6564C402.605 54.9624 389.326 56.2771 404.417 55.9847Z" fill="#1D2635"/>
<path d="M407.432 124.948C414.977 124.515 417.391 131.966 415.279 123.638C413.165 115.309 414.223 117.501 413.165 115.309C412.109 113.117 411.657 111.775 411.657 111.775L409.092 111.948C405.47 111.8 404.714 111.216 403.508 113.555C402.302 115.894 403.508 112.24 402.302 115.894C401.094 119.546 398.077 119.254 402.302 122.178C406.526 125.097 399.886 125.381 407.432 124.948Z" fill="#1D2635"/>
<path d="M652.451 225.336C652.501 225.529 652.841 225.529 652.451 225.336V225.336Z" fill="#1D2635"/>
<path d="M487.781 129.347C487.034 129.54 486.22 131.963 483.64 133.675C480.622 135.674 481.83 134.89 478.508 137.812C475.188 140.734 478.508 137.812 476.396 139.154C474.285 140.496 474.587 138.981 468.247 139.154C461.91 139.328 466.437 141.026 462.514 143.948C458.59 146.87 462.514 143.948 460.1 149.905C457.684 155.862 460.1 151.839 461.61 161.774C463.118 171.71 461.61 161.774 459.194 159.142C456.78 156.513 459.194 159.142 458.59 153.883C457.986 148.622 457.08 150.084 454.968 145.115C452.857 140.146 456.176 139.271 458.59 133.672L459.194 132.575C459.194 132.575 448.329 133.718 445.25 133.672C442.174 133.627 444.405 138.977 442.596 142.776C440.784 146.575 441.388 144.821 440.482 148.33C439.578 151.836 439.578 151.252 439.578 152.741C439.578 154.23 439.878 159.435 439.878 159.435C439.878 159.435 439.878 159.435 438.522 169.37C437.167 179.306 438.974 172 440.784 171.809C442.596 171.617 445.309 175.509 447.423 176.384C449.535 177.261 447.423 176.384 445.25 178.136C443.08 179.89 442.895 178.428 439.576 179.013C436.254 179.598 441.385 182.52 446.515 184.857C451.646 187.194 451.045 184.857 457.682 184.565C464.321 184.272 459.491 186.609 462.813 188.656C466.133 190.701 464.625 187.487 466.737 186.612C468.851 185.734 471.567 186.904 478.208 186.612C484.848 186.319 480.32 187.781 486.962 189.241C493.601 190.701 489.375 188.656 491.487 186.612C493.599 184.567 493.901 185.152 499.032 184.859C504.164 184.567 502.05 186.612 509.294 186.612C516.537 186.612 511.707 186.319 514.123 182.52C516.539 178.721 518.651 181.35 523.481 180.768C528.31 180.183 526.8 181.06 528.31 181.06C529.82 181.06 531.632 188.366 536.16 192.165C540.685 195.964 536.16 192.165 538.272 189.828C540.383 187.491 542.799 192.458 547.929 193.042C553.06 193.627 549.137 194.505 550.345 199.471C551.553 204.438 549.741 202.393 543.705 204.73C537.668 207.07 541.896 205.023 535.858 207.652C529.823 210.284 535.858 209.114 537.972 217.003C540.084 224.893 538.876 218.465 547.629 221.094C556.382 223.724 552.157 217.295 554.57 212.036C556.986 206.775 554.57 212.036 556.986 209.937C559.402 207.838 559.098 206.775 557.59 202.098C556.08 197.422 557.59 202.098 560.006 199.177C562.42 196.255 563.93 202.683 568.458 204.145C572.986 205.607 570.268 206.19 573.59 210.866C576.909 215.543 573.59 210.866 571.174 223.724C568.76 236.581 570.267 226.938 569.062 231.907C567.856 236.876 570.871 233.952 575.701 237.168C580.531 240.383 575.701 237.168 571.778 239.009C567.854 240.85 568.158 244.767 564.534 247.689C560.912 250.61 564.534 247.689 558.496 247.104C552.461 246.519 556.989 247.396 551.557 244.767C546.121 242.137 549.745 244.474 546.121 251.488C543.851 255.885 544.548 255.801 545.009 255.489C544.979 255.516 544.951 255.545 544.916 255.579C543.408 257.041 544.916 255.579 546.426 259.671C547.933 263.763 548.537 260.548 552.763 262.3C556.989 264.053 556.989 262.593 559.098 262.593C561.212 262.593 562.72 262.008 566.344 260.548C569.966 259.086 569.361 259.378 572.382 258.504C575.399 257.626 574.795 257.334 576.907 255.289C579.019 253.245 578.719 256.166 582.643 256.751C586.566 257.336 584.153 257.921 590.188 261.718C596.223 265.517 590.188 261.718 595.619 261.425C601.051 261.133 598.637 262.303 609.2 267.269C619.765 272.238 611.616 269.316 617.047 273.304C622.479 277.291 619.765 273.115 624.895 273.263C630.026 273.412 630.328 273.115 635.156 272.952C639.985 272.789 638.777 273.993 644.209 272.531C649.64 271.071 653.566 273.993 656.886 272.531C660.206 271.071 656.886 272.531 655.074 266.687C653.262 260.843 655.074 266.687 651.15 265.225C647.226 263.762 649.64 265.517 638.473 263.554C627.306 261.591 628.212 259.671 625.798 255.874C623.382 252.075 625.798 255.874 628.816 256.459C631.834 257.044 639.681 257.044 642.397 256.166C645.113 255.289 644.508 257.044 661.233 261.718C677.956 266.394 661.411 260.841 658.998 259.381C656.584 257.921 657.488 257.336 658.696 251.782C659.901 246.231 658.998 249.151 656.28 244.476C653.564 239.8 647.828 238.925 643.605 234.831C639.379 230.74 643.605 234.831 636.661 234.246C629.722 233.661 636.661 234.246 625.194 227.818C613.725 221.389 622.476 226.065 619.763 222.559C617.045 219.052 618.253 218.175 618.253 214.083C618.253 209.991 620.367 214.375 628.818 215.543C637.27 216.713 628.818 215.543 635.76 217.295C642.704 219.047 638.476 219.34 642.704 222.264C646.929 225.186 644.815 223.434 649.947 224.603C651.483 224.952 652.169 225.195 652.459 225.336C652.421 225.195 652.543 224.952 653.267 224.603C655.683 223.434 653.569 218.757 654.777 212.036C655.985 205.313 656.888 206.775 659.002 203.561C661.114 200.346 659.002 203.561 660.812 197.424C662.622 191.288 658.7 199.177 647.835 198.884C636.97 198.592 646.026 199.176 640.29 196.547C634.557 193.917 640.29 196.547 626.407 191.578C612.524 186.609 626.407 191.578 613.732 188.071C601.055 184.565 608.601 186.902 598.642 182.228C588.68 177.551 598.642 182.228 592.604 175.506C586.569 168.785 592.604 175.506 585.059 174.044C577.513 172.585 580.835 173.46 579.023 168.785C577.214 164.109 579.627 166.156 577.214 163.526C574.798 160.895 577.214 163.526 571.478 164.404C565.745 165.281 566.349 166.448 560.311 164.404C554.273 162.357 559.407 162.941 554.577 155.051C549.748 147.16 554.577 155.051 549.748 152.741C544.918 150.431 547.032 151.836 534.959 155.928C522.886 160.02 533.449 155.928 531.637 152.741C529.827 149.554 530.431 152.129 529.223 143.361C528.015 134.595 525.901 143.068 515.036 140.439C504.171 137.809 513.526 140.439 505.911 139.151C498.295 137.864 507.493 136.64 507.795 135.18C508.097 133.718 508.399 133.428 507.795 132.575C507.191 131.725 502.06 131.966 497.532 131.381C493.007 130.796 497.532 131.381 490.893 129.449C486.489 128.171 487.119 128.917 487.781 129.347Z" fill="#1D2635"/>
<path d="M528.411 269.899C521.568 262.886 524.386 263.275 519.154 261.716C513.926 260.159 518.754 258.599 511.51 259.769C504.265 260.936 503.562 259.769 501.498 260.159C499.437 260.548 505.875 264.835 497.424 259.769C488.973 254.702 482.132 249.638 480.121 251.975C480.121 251.975 480.524 252.755 480.121 255.482C479.716 258.209 479.674 254.312 480.299 260.159C480.924 266.005 484.904 260.549 480.299 267.562C475.694 274.576 474.486 274.537 473.681 277.089C472.875 279.64 469.656 281.589 473.681 283.536C477.705 285.483 471.18 284.316 482.492 283.536C493.802 282.756 495.008 279.436 496.619 284.604C498.229 289.772 491.789 305.746 500.643 289.772C509.495 273.796 507.484 273.406 509.495 273.796C511.51 274.186 505.875 275.707 513.519 277.089C521.165 278.472 518.751 284.28 523.581 277.089C528.411 269.899 535.252 276.915 528.411 269.899Z" fill="#1D2635"/>
<path d="M507.886 298.735C515.935 300.293 513.118 300.683 517.545 298.735C521.972 296.786 523.983 303.41 521.972 296.786C519.961 290.162 521.972 291.722 519.961 290.162C517.946 288.603 517.946 288.603 517.946 288.603L515.935 287.045C508.691 288.215 505.533 286.656 505.903 290.162C506.275 293.669 503.923 294.655 505.903 296.695C507.886 298.735 499.84 297.176 507.886 298.735Z" fill="#1D2635"/>
<path d="M249.711 343.6L248.684 349.131C248.684 349.131 250.395 347.248 252.448 349.131C254.504 351.017 263.06 345.153 263.06 345.153C265.703 344.632 268.705 345.781 272.467 346.275C276.227 346.772 277.833 345.11 283.201 344.473C288.569 343.836 297.732 344.79 297.732 344.79C297.732 344.79 291.268 343.446 288.531 343.165C285.792 342.882 281.85 340.903 279.366 339.382C276.882 337.861 274.473 337.224 273.047 336.872C271.624 336.519 264.655 338.693 264.655 338.693C263.941 339.089 259.682 341.481 256.554 343.6C253.134 345.921 249.711 343.6 249.711 343.6Z" fill="#1D2635"/>
<path d="M133.671 396.14C132.87 397.945 135.267 404.387 138.994 407.74C142.722 411.092 143.787 408.771 143.787 408.771C143.787 408.771 144.32 410.575 144.32 412.38C144.32 414.184 145.386 413.409 150.976 418.051C156.567 422.691 151.775 419.339 151.243 423.204C150.709 427.071 151.51 425.525 151.775 427.071C152.041 428.617 153.638 428.617 154.436 429.134C155.235 429.651 158.163 431.969 159.493 433.259C160.825 434.547 163.487 437.38 166.149 440.475C168.811 443.569 166.149 440.475 166.947 442.535C167.746 444.6 170.674 450.784 173.336 455.941C175.998 461.096 170.407 471.147 171.473 473.466C172.538 475.785 176.532 480.942 176.532 480.942C176.532 480.942 213.083 488.13 225.065 489.456L263.066 345.155C263.066 345.155 254.507 351.017 252.454 349.133C250.4 347.25 248.689 349.133 248.689 349.133L249.717 343.602C249.717 343.602 253.14 345.924 256.562 343.602C259.69 341.483 263.951 339.091 264.662 338.695L266.491 331.339C266.491 331.339 225.568 324.058 176.534 309.797L139.266 393.565C139.261 393.563 134.469 394.336 133.671 396.14Z" fill="#1D2635"/>
<path d="M29.0947 415.537C27.8001 415.002 26.3064 411.396 26.0442 410.704C25.6743 409.73 22.6239 411.063 22.0667 411.688C21.5118 412.314 22.3453 413.477 22.5302 414.193C22.7152 414.909 25.2131 416.97 24.9345 418.133C24.656 419.298 24.5646 420.372 24.5646 420.998C24.5646 421.626 25.6743 422.431 26.5991 422.879C27.5238 423.326 28.8184 425.296 29.8345 426.817C30.8528 428.34 30.5742 427.712 31.2227 428.519C31.8712 429.324 31.2227 429.773 31.8689 432.101C32.5174 434.429 31.8689 432.101 33.5334 431.743C35.1979 431.387 37.5109 431.652 37.5109 431.652C37.5109 431.652 37.2323 433.264 37.141 433.713C37.0497 434.159 37.141 433.713 34.6431 436.578C32.1451 439.443 34.7367 437.564 36.4012 438.727C38.0658 439.892 37.9721 438.906 37.9721 438.906C37.9721 438.906 37.9721 438.906 38.4357 439.176C38.8969 439.443 39.1755 439.892 41.3012 441.683C43.4292 443.476 42.6894 442.22 45.8335 443.383C48.9776 444.548 45.9248 443.832 44.7239 444.815C43.5205 445.799 43.153 445.441 43.2443 449.381C43.3356 453.321 44.4476 451.262 47.4981 454.037C50.5509 456.811 49.9024 455.56 54.8959 459.262C59.8895 462.968 55.3571 459.318 59.7959 462.54C64.2346 465.763 61.6453 462.451 63.3099 461.558C64.9744 460.66 63.4948 460.035 64.1409 459.262C64.7894 458.493 65.3443 457.258 66.6389 456.186C67.9335 455.111 66.3603 454.393 64.5108 452.781C62.6614 451.172 63.8647 451.439 64.0473 448.662C64.2323 445.888 63.956 446.695 62.8463 444.725C61.7366 442.755 60.627 443.92 55.1699 441.769C49.7128 439.62 54.0602 440.964 52.0258 438.278C49.9913 435.592 51.0097 436.038 51.4709 433.085C51.9321 430.131 51.286 430.219 50.4549 428.966C49.6215 427.712 49.6214 427.712 48.3268 426.905C47.0322 426.101 46.2924 425.74 46.2924 425.024C46.2924 424.308 43.3332 421.624 37.045 418.668C30.7569 415.714 36.0267 417.951 31.6816 416.789C27.3388 415.626 30.3893 416.075 29.0947 415.537Z" fill="#1D2635"/>
<path d="M8.28428 366.338C8.68694 364.584 9.49228 362.247 10.2976 361.077C11.103 359.907 11.302 360.105 12.1073 359.13C12.9126 358.157 14.7246 355.623 17.3397 353.676C17.3397 353.676 16.937 350.949 16.2417 350.364C15.5464 349.779 14.5233 349.974 12.3086 349.133C10.0963 348.295 10.0963 348.222 7.07627 347.05C4.05859 345.88 5.86826 346.078 4.05859 345.688C2.24658 345.298 2.04759 344.713 0.422865 345.688C-1.20186 346.662 2.45025 350.167 1.44358 353.674C0.436904 357.18 0.638247 356.013 0.436913 358.35C0.235578 360.689 2.04759 363.559 2.04759 363.559C2.04759 363.559 2.45025 364.974 2.85292 366.533C3.25559 368.093 2.45025 368.675 2.85292 370.818C3.25559 372.962 3.25559 372.765 3.8596 373.934C4.4636 375.104 4.66259 375.299 5.86124 378.418C6.36691 379.733 6.50738 380.44 6.47695 380.857C6.64551 380.576 6.80236 380.263 6.87728 379.975C7.07861 379.196 7.48128 377.054 6.47461 375.496C5.46793 373.937 5.8706 374.132 6.47461 371.795C7.07861 369.455 7.68261 370.43 8.28662 368.873C8.88828 367.313 7.88395 368.091 8.28428 366.338Z" fill="#1D2635"/>
<path d="M154.162 476.152C163.905 478.335 172.008 480.09 176.526 480.942C176.526 480.942 172.535 475.785 171.467 473.466C170.402 471.147 175.993 461.096 173.331 455.941C170.669 450.784 167.74 444.601 166.942 442.536C166.144 440.475 168.805 443.569 166.144 440.475C163.482 437.381 160.82 434.547 159.488 433.26C158.158 431.97 155.229 429.651 154.431 429.134C153.633 428.617 152.036 428.617 151.769 427.071C151.502 425.525 150.704 427.071 151.238 423.204C151.769 419.339 156.561 422.692 150.971 418.052C145.38 413.411 144.315 414.184 144.315 412.38C144.315 410.576 143.781 408.771 143.781 408.771C143.781 408.771 142.718 411.093 138.989 407.74C135.262 404.39 132.865 397.947 133.665 396.141C134.464 394.336 139.256 393.563 139.256 393.563L176.524 309.795C176.524 309.795 162.012 305.133 140.822 297.661C105.94 285.362 52.9467 265.45 16.7298 246.18L16.7275 246.182L16.2663 247.148C16.1633 247.635 16.3599 248.106 16.6034 249.68C17.0552 252.597 17.3572 250.847 17.2051 255.805C17.0552 260.762 17.2051 255.805 18.1087 261.492C19.0124 267.179 21.1194 266.742 22.325 266.304C23.5307 265.867 25.4879 265.284 28.1989 263.387C30.9099 261.49 30.0062 262.804 33.0192 262.804C36.0299 262.804 34.9764 263.387 37.5352 262.512C40.0963 261.637 39.6445 262.367 40.3983 262.512C41.1522 262.657 41.604 264.117 42.9595 265.575C44.315 267.034 43.4114 266.304 41.906 269.367C40.4007 272.429 41.4542 270.387 41.1522 273.157C40.8502 275.927 42.5077 274.907 43.4114 277.094C44.315 279.282 43.4113 278.115 42.9595 282.782C42.5077 287.449 43.7133 284.822 44.919 288.469C46.1247 292.114 45.5207 294.594 46.2745 298.094C47.0284 301.594 46.8762 301.012 46.7264 305.677C46.5765 310.344 46.4243 306.844 44.4672 314.719C42.51 322.594 44.6194 316.177 45.6729 317.344C46.7264 318.511 45.6729 317.344 48.3839 324.051C51.0948 330.761 49.4373 325.947 51.0948 329.154C52.7523 332.364 51.2447 329.884 50.341 334.842C49.4373 339.799 50.341 334.842 47.3304 337.174C44.3174 339.509 47.1782 337.904 47.6324 342.134C48.0842 346.361 46.2768 343.156 43.2639 344.614C40.2509 346.071 41.4565 346.071 36.6362 348.114C35.8098 348.463 35.2269 348.708 34.8008 348.873L34.6439 349.136V352.579C34.6439 352.579 34.1125 353.867 34.6439 354.642C35.1777 355.415 32.249 358.509 32.249 358.509C32.249 358.509 31.9821 358.768 30.65 360.57C29.3203 362.374 29.3203 362.633 28.2551 364.179C27.1922 365.725 27.4567 365.21 26.1247 366.756C24.7949 368.302 23.4628 368.043 23.4628 370.106C23.4628 372.167 22.9314 370.879 23.4628 373.201C23.9943 375.519 20.801 374.747 24.7949 376.807C28.7865 378.87 28.7865 378.611 30.65 380.16C32.5135 381.706 30.65 384.025 30.3855 386.087C30.1186 388.148 33.4429 387.375 34.7095 390.211C35.9737 393.046 35.8379 395.109 34.7095 396.914C33.5787 398.716 32.7828 399.491 33.5787 400.779C34.3771 402.068 37.9027 401.293 35.6085 403.614C33.3142 405.936 32.7804 407.738 31.9821 410.315C31.1838 412.892 27.4568 410.573 31.1838 412.892C34.9108 415.214 25.0595 411.863 36.374 416.245C47.6885 420.627 45.0267 421.397 49.5521 421.914C54.0774 422.429 57.5399 418.047 57.0061 421.914C56.4724 425.781 55.5172 425.265 57.06 428.615C58.6028 431.965 57.0061 428.615 60.7332 433.255C64.4602 437.893 64.4602 435.574 64.4602 437.893C64.4602 440.214 61.7984 440.473 64.4602 442.275C67.122 444.079 65.7899 442.531 68.7186 444.335C71.6474 446.14 73.244 442.789 71.6474 446.14C70.0507 449.49 67.9203 448.461 70.0507 450.778C72.1811 453.099 72.4457 452.84 73.7778 453.872C75.1099 454.903 73.7778 457.481 73.7778 457.481L140.352 473.017C145.165 474.121 149.826 475.18 154.162 476.152Z" fill="#1D2635"/>
<path d="M391.482 470.563C390.393 466.432 390.491 467.106 389.897 465.281C389.3 463.456 390.522 465.088 389.019 463.073C387.516 461.056 388.01 464.585 387.317 459.267C386.624 453.954 387.317 456.354 385.732 452.129C384.145 447.906 384.938 448.865 383.452 446.752C381.963 444.642 382.361 446.752 381.37 443.297C380.378 439.841 381.37 441.377 379.683 438.784C377.997 436.193 377.304 436.481 376.609 434.754C375.916 433.026 375.024 434.368 376.609 431.297C378.196 428.225 380.376 430.528 377.896 426.688C375.417 422.849 379.285 418.625 375.122 422.175C370.96 425.727 374.825 423.81 370.164 426.784C365.505 429.76 365.107 427.647 364.114 430.048C363.124 432.448 363.62 431.199 362.726 433.888C361.834 436.576 363.52 437.152 360.743 438.016C357.967 438.882 361.834 441.09 357.274 438.882C352.711 436.674 351.421 437.057 351.62 436.291C351.819 435.522 349.44 437.252 352.61 434.178C355.78 431.104 357.171 432.065 357.468 429.282C357.765 426.498 360.738 425.73 356.475 425.347C352.212 424.961 352.905 422.465 350.428 425.922C347.951 429.379 347.354 428.994 347.354 431.106C347.354 433.219 352.212 431.492 346.858 433.507C341.506 435.522 340.612 434.468 341.406 436.005C342.199 437.54 341.602 437.157 342.99 438.118C344.379 439.079 345.271 437.061 344.379 439.079C343.484 441.094 344.379 441.189 342.791 441.479C341.207 441.767 340.015 438.503 339.917 441.191C339.818 443.88 339.32 443.782 340.31 446.28C341.303 448.776 340.212 448.296 341.204 450.311C342.197 452.326 345.069 450.599 345.367 450.504C345.666 450.406 344.671 453.002 346.359 450.311C348.045 447.625 346.598 448.008 348.115 446.566C349.63 445.127 348.738 441.765 350.423 444.744C352.109 447.72 352.406 447.237 351.217 449.735C350.028 452.231 349.237 454.534 349.035 457.318C348.839 460.104 347.052 461.158 349.632 461.062C352.21 460.967 350.426 458.662 353.003 460.87C355.581 463.08 353.102 462.792 355.977 464.424C358.851 466.056 359.647 463.463 359.844 466.056C360.041 468.649 359.647 467.783 359.547 471.433C359.448 475.083 359.348 474.6 360.24 476.619C361.134 478.635 361.729 477.771 361.333 479.594C360.935 481.418 356.276 481.321 361.333 482.092C366.39 482.86 366.488 484.778 368.967 482.475C371.447 480.172 373.031 483.05 371.447 480.172C369.859 477.291 371.147 478.54 368.867 475.851C366.586 473.165 366.191 475.273 364.999 471.052C363.81 466.827 362.92 468.269 363.613 465.58C364.306 462.892 368.668 463.563 364.009 462.123C359.348 460.684 361.63 461.069 359.348 460.684C357.067 460.298 357.959 462.411 356.471 460.108C354.986 457.805 354.687 456.746 354.092 456.075C353.497 455.402 351.514 458.474 353.893 454.441C356.274 450.408 356.967 452.331 356.274 449.545C355.581 446.761 355.677 447.722 354.886 445.61C354.092 443.497 351.414 443.304 354.488 442.345C357.564 441.384 354.687 440.425 358.453 441.384C362.22 442.345 362.717 442.921 364.304 442.921C365.891 442.921 367.279 441.001 366.287 443.304C365.296 445.61 363.311 446.088 364.501 447.239C365.692 448.391 364.358 445.993 366.86 449.064C369.361 452.136 369.262 449.608 370.056 452.888C370.85 456.168 368.174 456.266 371.444 456.554C374.717 456.842 371.742 457.42 375.014 457.515C378.287 457.61 377.592 457.129 379.081 457.227C380.567 457.322 381.361 454.441 380.965 458.091C380.567 461.738 379.774 460.298 380.567 462.506C381.361 464.714 380.368 464.619 382.253 465.097C384.138 465.578 385.823 466.922 385.823 466.922C384.732 470.091 383.838 469.994 384.833 472.78C385.823 475.563 387.61 476.62 386.418 478.732C385.229 480.845 382.12 481.23 385.608 482.38C389.094 483.531 387.209 486.7 389.988 483.629C392.762 480.555 395.141 486.219 393.455 478.732C391.779 471.234 392.573 474.69 391.482 470.563Z" fill="#1D2635"/>
<path d="M328.678 376.372C328.093 377.99 330.099 380.581 330.352 381.633C330.602 382.685 329.849 384.627 328.678 385.518C327.507 386.409 324.834 382.717 324.834 382.717C324.834 382.717 320.821 384.142 319.985 387.783C319.15 391.426 324.417 392.72 326.674 390.374C328.931 388.025 327.592 386.407 330.436 386.649C333.278 386.892 336.326 382.717 336.326 382.717C338.532 377.519 343.89 374.812 343.457 373.13C343.022 371.448 341.793 371.31 340.924 370.258C340.058 369.206 341.65 368.996 340.852 367.386C340.058 365.774 339.632 365.849 339.632 365.849C332.859 367.386 329.263 374.753 328.678 376.372Z" fill="#1D2635"/>
<path d="M329.822 500.06L336.328 382.716C336.328 382.716 333.28 386.891 330.438 386.649C327.596 386.406 328.932 388.025 326.676 390.373C324.416 392.719 319.151 391.425 319.987 387.782C320.823 384.14 324.836 382.716 324.836 382.716C324.836 382.716 327.509 386.409 328.68 385.518C329.85 384.627 330.604 382.684 330.353 381.633C330.101 380.581 328.094 377.99 328.68 376.371C329.265 374.753 332.861 367.386 339.631 365.849L342.391 338.867C342.391 338.867 291.084 337.831 266.486 331.336L264.658 338.692C264.658 338.692 271.625 336.518 273.05 336.872C274.474 337.226 276.885 337.86 279.369 339.381C281.853 340.9 285.795 342.881 288.534 343.165C291.271 343.448 297.735 344.79 297.735 344.79C297.735 344.79 288.572 343.836 283.204 344.473C277.836 345.11 276.23 346.771 272.47 346.275C268.708 345.781 265.706 344.631 263.063 345.153L225.062 489.453C225.062 489.453 252.901 494.409 296.169 497.893C306.556 498.729 317.824 499.482 329.822 500.06Z" fill="#1D2635"/>
<path d="M184.822 229.212C184.365 228.994 184.063 228.857 184.063 228.857C184.063 228.857 184.134 229.187 184.822 229.212Z" fill="#1D2635"/>
<path d="M181.551 213.987C182.946 213.042 183.365 212.906 183.365 212.906C183.365 212.906 184.341 213.581 191.463 216.435C198.585 219.289 194.116 216.825 198.025 216.555C201.935 216.286 199.98 216.555 201.935 216.555C203.89 216.555 203.192 217.501 205.842 220.747C208.495 223.99 205.983 222.1 205.842 223.857C205.704 225.614 204.866 223.857 202.63 223.045C200.397 222.234 198.721 220.071 198.163 219.665C197.604 219.26 198.304 222.37 197.047 223.99C195.789 225.614 196.208 224.396 194.673 225.072C193.137 225.75 194.673 225.072 189.508 227.64C186.889 228.941 185.528 229.234 184.821 229.211C186.02 229.778 188.319 230.913 189.227 231.695C190.482 232.777 190.763 233.182 194.532 236.292C198.301 239.403 197.047 234.669 199.559 232.101C202.071 229.533 202.073 230.478 205.842 229.533C205.842 229.533 209.054 229.805 209.892 230.614C210.73 231.426 209.754 231.29 209.195 233.724C208.637 236.156 207.937 234.672 203.471 237.374C199.001 240.078 205.285 240.35 207.879 239.115C210.473 237.882 208.776 238.455 212.823 237.315C216.871 236.175 215.476 236.562 216.314 234.533C217.152 232.505 216.314 232.235 217.012 229.936C217.709 227.638 219.664 228.044 220.502 228.18C221.34 228.316 220.502 228.18 224.831 233.452C229.159 238.725 226.786 234.128 231.114 233.452C235.443 232.777 231.393 231.831 231.393 230.072C231.393 228.316 231.952 229.127 233.767 228.449C235.581 227.774 236.7 227.502 237.955 225.745C239.212 223.988 237.257 222.771 232.369 221.418C227.481 220.067 230.976 221.959 230.976 221.959C230.976 221.959 230.276 222.635 221.759 222.635C213.242 222.635 219.804 220.878 220.083 219.119C220.362 217.362 221.481 217.09 223.295 215.873C225.109 214.656 231.114 213.98 230.974 212.763C230.833 211.546 224.271 211.682 222.038 210.87C219.804 210.059 218.269 210.734 214.778 211.276C211.288 211.818 208.495 211.951 205.84 212.087C203.187 212.223 196.344 210.87 194.53 210.87C192.716 210.87 192.716 210.331 189.923 209.678C187.13 209.025 188.246 209.519 180.846 209.678C173.453 209.843 180.156 214.935 181.551 213.987Z" fill="#1D2635"/>
<path d="M291.381 117.647C291.381 117.647 291.386 117.677 291.4 117.73C295.333 117.875 291.381 117.647 291.381 117.647Z" fill="#1D2635"/>
<path d="M125.013 154.861C122.597 157.787 123.805 157.787 121.117 164.515C118.427 171.243 121.993 168.319 122.597 170.953C123.201 173.585 124.411 172.122 127.188 173C129.967 173.877 130.756 174.462 128.941 176.511C127.129 178.558 127.431 177.388 124.409 183.239C121.386 189.09 124.409 183.239 127.188 185.871C129.967 188.502 128.941 184.993 130.152 185.871C131.36 186.748 130.152 187.627 127.188 195.525C124.226 203.425 126.825 197.279 123.503 199.914C120.178 202.548 122.295 201.083 117.762 206.057C113.23 211.03 116.252 206.936 112.745 213.956C109.239 220.979 114.438 219.515 114.74 221.271C115.042 223.028 114.74 221.271 121.115 230.049C127.49 238.826 121.99 232.683 121.115 238.533C120.239 244.384 118.968 242.044 114.436 249.65C109.903 257.255 115.644 251.406 118.062 254.915C120.478 258.427 119.27 256.38 124.105 264.28C128.939 272.18 124.708 266.327 124.708 273.057C124.708 279.785 120.176 277.738 124.708 279.2C129.241 280.664 128.637 281.541 131.961 281.834C135.286 282.126 142.838 285.345 142.838 285.345C138.004 288.856 140.82 297.665 140.82 297.665C162.012 305.137 176.522 309.8 176.522 309.8C225.556 324.058 266.479 331.341 266.479 331.341C291.076 337.835 342.384 338.871 342.384 338.871L349.124 276.527C349.124 276.527 297.817 262.5 295.199 261.526C292.584 260.551 286.146 253.537 283.327 250.615C280.511 247.693 282.723 248.473 281.115 246.181C279.504 243.89 280.108 246.134 268.035 246.181C255.962 246.227 265.619 245.161 259.987 240.29C254.352 235.419 258.177 236.393 257.168 231.717C256.161 227.04 253.144 228.405 244.491 221.781C235.838 215.158 240.869 216.91 234.23 209.686C227.591 202.459 232.219 206.585 229.602 202.493C226.986 198.402 226.584 198.791 226.382 197.234C226.181 195.675 238.83 177.223 239.158 176.59C239.486 175.956 239.376 175.004 239.158 174.688C238.94 174.371 237.411 174.371 231.406 170.248C225.402 166.124 230.861 169.402 226.165 167.922C221.471 166.442 226.165 167.922 223.545 171.939C220.925 175.956 222.126 171.939 215.466 170.776C208.806 169.613 214.81 169.824 216.775 168.45C218.739 167.074 219.177 167.394 218.739 166.229C218.301 165.066 217.32 165.701 217.102 164.855C216.882 164.009 217.866 162.953 220.16 160.627C222.454 158.302 220.923 158.936 220.705 157.984C220.488 157.032 220.16 158.091 216.667 159.886C213.174 161.684 216.667 159.886 213.064 161.049C209.461 162.212 212.844 161.473 208.695 167.074C204.547 172.678 207.605 167.498 205.31 167.074C203.018 166.653 205.2 166.44 204.872 162.318C204.545 158.195 204.435 161.897 203.454 159.886C202.471 157.878 203.126 158.83 202.908 154.707C202.691 150.583 203.018 152.909 202.908 150.69C202.798 148.471 202.908 148.575 202.145 146.249C201.382 143.923 201.6 145.614 199.743 146.142C197.887 146.671 199.305 147.095 199.198 147.636C199.088 148.176 196.14 150.69 194.611 152.274C193.083 153.859 193.738 152.909 190.898 154.496C188.061 156.082 190.898 154.496 189.25 153.333C187.602 152.17 188.606 153.015 187.078 152.594C185.549 152.17 182.199 152.451 173.647 154.92C165.095 157.388 171.245 155.341 166.113 154.92C160.982 154.498 166.113 154.92 167.096 154.178C168.08 153.437 168.735 153.333 174.958 152.594C181.181 151.853 177.798 152.594 180.417 152.594C182.632 152.594 181.571 152.594 183.234 152.018C183.538 151.914 183.934 151.789 184.458 151.642C187.843 150.69 188.496 148.364 188.717 147.201C188.934 146.038 190.245 145.51 187.733 146.145C185.221 146.779 186.97 145.934 185.331 144.347C183.693 142.76 185.331 144.347 183.039 144.121C180.747 143.894 181.183 144.56 178.671 145.299C176.159 146.038 175.723 145.617 170.919 145.934C166.116 146.251 169.829 145.934 166.881 146.569C163.934 147.203 166.116 146.675 162.075 147.732C158.036 148.788 160.328 147.942 151.156 148.788C141.986 149.633 150.5 148.47 151.484 147.641C152.467 146.811 152.467 147.518 154.869 147.201C157.271 146.884 159.673 142.971 160.001 142.126C160.328 141.28 159.235 141.808 157.489 140.539C155.742 139.272 155.414 139.272 153.23 139.165C151.046 139.059 152.902 139.8 150.936 141.702C148.972 143.604 149.735 142.23 145.804 143.286C141.873 144.343 144.931 143.71 142.829 144.98C140.726 146.249 141.328 146.671 140.672 147.305C140.017 147.94 140.235 147.834 138.27 145.508C136.306 143.182 136.18 144.916 136.18 144.916C136.18 144.916 132.856 147.843 128.927 151.354C125.013 154.861 127.429 151.934 125.013 154.861Z" fill="#1D2635"/>
<path d="M321.866 150.085C321.866 150.085 320.056 146.871 318.244 147.748C316.434 148.625 314.32 151.255 313.115 150.67C311.907 150.085 311.907 150.085 311.907 150.085C311.907 150.085 311.303 150.953 312.209 147.596C313.115 144.241 314.32 143.949 313.115 142.779C311.907 141.609 313.115 141.027 310.399 140.442C307.683 139.857 307.683 137.574 305.871 139.154C304.062 140.734 312.211 142.194 302.552 142.194C292.892 142.194 289.877 146.871 292.892 142.194C295.91 137.518 297.722 136.935 298.326 135.473C298.93 134.011 298.326 131.966 293.499 133.718C288.669 135.473 286.255 136.056 282.933 136.64C279.614 137.225 280.52 135.471 277.804 137.808C275.086 140.145 274.182 142.192 272.974 144.821C271.766 147.453 272.068 146.283 269.957 146.868C267.845 147.453 264.525 141.607 267.845 147.453C271.165 153.297 270.863 150.083 271.165 153.297C271.467 156.511 265.431 158.848 271.165 157.973C276.9 157.096 276.598 156.511 279.314 157.096C282.03 157.681 286.557 155.251 281.73 159.828C276.9 164.404 282.032 164.987 274.487 163.527C266.941 162.067 264.83 161.48 264.83 161.48C264.83 161.48 261.51 159.143 263.622 162.942C265.733 166.741 261.208 164.987 267.243 167.909C273.281 170.831 263.02 170.248 275.393 171.708C287.768 173.17 286.862 171.708 291.389 173.17C295.917 174.632 295.011 171.125 295.917 174.632C296.823 178.139 304.366 179.893 296.823 178.139C289.278 176.387 291.392 176.387 287.768 175.509C284.146 174.632 274.489 173.755 269.961 173.755C265.434 173.755 260.908 174.632 260.908 174.632L310.708 186.615L321.866 150.085Z" fill="#1D2635"/>
<path d="M235.547 141.609C236.453 143.362 237.057 147.748 237.057 147.748C243.095 148.625 238.867 152.132 244.603 147.748C250.338 143.364 243.095 145.701 251.846 141.902C260.599 138.103 251.846 139.857 260.599 138.103C269.353 136.35 262.711 139.272 269.353 136.35C275.992 133.428 268.447 135.292 277.2 133.045C285.951 130.799 284.441 131.384 288.669 129.922C292.895 128.462 288.971 129.922 292.895 128.462C296.818 127 301.948 134.306 296.818 127C292.246 120.492 291.511 118.164 291.406 117.731C290.858 117.71 290.16 117.685 289.275 117.649C282.032 117.357 281.428 118.819 279.918 117.649C278.41 116.48 280.522 117.357 276.598 113.558C272.675 109.758 272.373 108.591 270.863 108.006C269.355 107.421 276.296 106.544 266.033 106.544C255.772 106.544 252.754 103.33 251.244 106.544C249.734 109.758 255.47 106.544 250.338 111.513C245.209 116.48 242.491 117.357 240.077 119.111C237.663 120.866 236.757 115.897 237.059 123.495C237.361 131.094 242.322 130.327 238.333 133.048C234.344 135.77 231.93 134.893 232.834 137.23C233.737 139.562 234.641 139.855 235.547 141.609Z" fill="#1D2635"/>
<path d="M312.511 87.8385C311.303 90.1756 311.303 86.9612 311.303 90.1756C311.303 93.3899 305.568 96.0194 305.568 96.0194C305.568 96.0194 305.266 95.4346 303.758 96.3118C302.25 97.1891 298.025 96.8967 301.644 98.6489C305.266 100.401 309.793 98.0641 305.266 100.401C300.738 102.741 301.644 99.2338 300.738 102.741C299.832 106.247 296.814 105.955 301.644 107.125C306.476 108.294 300.438 110.046 306.476 108.294C312.511 106.54 310.095 104.853 314.019 105.112C317.943 105.372 316.737 105.08 320.057 107.417C323.377 109.754 327.602 109.754 327.602 109.754C323.983 111.214 327.602 112.091 321.869 112.384C316.135 112.676 314.021 111.214 312.514 112.384C311.006 113.551 307.986 111.506 309.496 114.721C311.006 117.937 304.968 116.768 311.006 117.937C317.041 119.105 312.188 119.105 317.936 117.937C323.683 116.768 320.363 115.598 326.097 115.89C331.83 116.183 331.83 116.475 333.944 115.89C335.672 115.412 336.995 113.179 337.421 112.379C337.517 112.202 337.566 112.091 337.566 112.091V106.832C337.566 106.832 331.229 105.728 330.323 105.112C329.417 104.495 329.417 104.495 329.417 104.495C329.417 104.495 328.813 103.035 328.813 101.573C328.813 100.111 330.32 102.158 328.813 100.111C327.303 98.0663 327.001 99.8186 325.795 96.8967C324.587 93.9748 322.915 92.2202 322.915 92.2202C322.915 92.2202 323.683 93.0975 321.874 92.2202C320.064 91.343 321.874 91.0506 318.551 89.5908C315.227 88.1309 313.717 85.4991 312.511 87.8385Z" fill="#1D2635"/>
<path d="M283.231 84.7959C284.437 85.8432 284.437 83.1616 286.853 81.4093C289.269 79.6571 287.155 82.8714 289.873 86.963C292.588 91.0546 289.873 86.963 293.797 83.4562C293.797 83.4562 296.21 85.2085 297.416 84.3335C298.624 83.4563 298.926 83.1638 303.454 83.1638C307.981 83.1638 303.454 83.1638 303.152 84.9183C302.85 86.6706 303.152 86.6706 308.283 83.4562C313.413 80.2419 310.999 81.4116 313.413 77.32C315.829 73.2284 313.413 77.32 315.527 75.5655C317.638 73.8132 317.94 73.8132 318.846 69.7216C319.752 65.63 318.846 69.7216 313.715 69.4292C308.585 69.1368 313.715 69.4292 308.885 68.8444C304.055 68.2595 308.885 68.8444 303.451 70.0141C298.02 71.1837 301.639 71.4761 295.906 75.2753C290.172 79.0745 295.906 75.2753 288.662 76.7374C281.419 78.1995 284.135 77.3223 281.419 78.4897C278.706 79.6548 282.025 83.7464 283.231 84.7959Z" fill="#1D2635"/>
<path d="M301.34 92.463C301.34 91.0529 298.971 88.6702 298.971 88.6702C297.114 89.5906 296.513 91.0529 295.003 91.6378C293.495 92.2227 291.381 91.6378 291.381 93.3902C291.381 95.1426 294.141 96.8973 295.176 96.02C296.208 95.1426 295.305 95.7275 297.721 94.2675C300.134 92.8075 301.34 93.8731 301.34 92.463Z" fill="#1D2635"/>
<path d="M335.142 77.0253C343.895 78.4874 343.895 82.8692 343.895 78.4874C343.895 74.1057 345.707 72.0588 343.895 72.0588C342.086 72.0588 338.764 74.9807 342.086 72.0588C345.408 69.1346 350.839 70.5967 345.408 69.1346C339.972 67.6748 343.596 66.5051 339.972 67.6747C336.35 68.8444 336.35 68.2596 334.54 69.7194C332.731 71.1815 330.919 72.0588 330.919 72.0588C333.03 74.9784 326.391 75.5632 335.142 77.0253Z" fill="#1D2635"/>
<path d="M351.124 64.5858C351.096 64.3205 351.026 63.6313 350.839 61.829C350.537 58.9068 349.008 59.5687 344.801 58.6143C339.662 57.4468 339.065 64.4588 339.065 64.4588C339.065 64.4588 339.065 64.4588 341.481 63.8739C343.895 63.289 343.895 65.6263 343.895 65.6263C343.895 65.6263 343.904 65.6241 350.972 64.7694C351.017 64.7036 351.068 64.6424 351.124 64.5858Z" fill="#1D2635"/>
<path d="M412.39 506.604C412.596 506.775 412.858 506.88 413.148 506.95C412.867 506.829 412.605 506.711 412.39 506.604Z" fill="#1D2635"/>
<path d="M379.09 457.218C380.577 457.313 381.37 454.432 380.975 458.082C380.577 461.729 379.783 460.29 380.577 462.497C381.37 464.705 380.378 464.61 382.262 465.088C384.147 465.569 385.833 466.913 385.833 466.913C384.742 470.082 383.847 469.985 384.842 472.771C385.833 475.554 387.619 476.611 386.427 478.723C385.238 480.836 382.129 481.221 385.617 482.371C389.103 483.522 387.219 486.691 389.997 483.62C392.772 480.546 395.15 486.211 393.465 478.723C391.779 471.234 392.573 474.693 391.482 470.565C390.393 466.435 390.491 467.108 389.897 465.283C389.3 463.459 390.522 465.091 389.019 463.075C387.516 461.058 388.01 464.587 387.317 459.27C386.624 453.956 387.317 456.357 385.732 452.131C384.145 447.908 384.938 448.867 383.452 446.754C381.963 444.644 382.361 446.754 381.37 443.3C380.378 439.843 381.37 441.38 379.683 438.787C377.997 436.196 377.304 436.484 376.609 434.756C375.916 433.029 375.024 434.371 376.609 431.299C378.196 428.228 380.376 430.531 377.896 426.691C375.417 422.851 379.285 418.628 375.122 422.178C370.96 425.73 374.825 423.812 370.164 426.786C365.505 429.762 365.107 427.65 364.114 430.05C363.124 432.451 363.62 431.202 362.726 433.89C361.834 436.579 363.52 437.154 360.743 438.018C357.967 438.884 361.834 441.092 357.274 438.884C352.711 436.676 351.421 437.059 351.62 436.293C351.819 435.525 349.44 437.254 352.61 434.18C355.78 431.107 357.171 432.068 357.468 429.284C357.765 426.5 360.738 425.732 356.475 425.349C352.212 424.964 352.905 422.468 350.428 425.925C347.951 429.382 347.354 428.996 347.354 431.109C347.354 433.222 352.212 431.494 346.858 433.509C341.506 435.525 340.612 434.471 341.406 436.008C342.199 437.542 341.602 437.159 342.99 438.12C344.379 439.081 345.271 437.064 344.379 439.081C343.484 441.096 344.379 441.192 342.791 441.482C341.207 441.77 340.015 438.506 339.917 441.194C339.818 443.882 339.32 443.785 340.31 446.283C341.303 448.779 340.212 448.298 341.204 450.313C342.197 452.329 345.069 450.601 345.367 450.506C345.666 450.409 344.671 453.004 346.359 450.313C348.045 447.627 346.598 448.01 348.115 446.569C349.63 445.129 348.738 441.767 350.423 444.746C352.109 447.722 352.406 447.24 351.217 449.738C350.028 452.233 349.237 454.536 349.035 457.32C348.839 460.106 347.052 461.16 349.632 461.065C352.21 460.97 350.426 458.664 353.003 460.872C355.581 463.082 353.102 462.794 355.977 464.427C358.851 466.059 359.647 463.465 359.844 466.059C360.041 468.652 359.647 467.786 359.547 471.436C359.448 475.085 359.348 474.602 360.24 476.622C361.134 478.637 361.729 477.774 361.333 479.596C360.935 481.421 356.276 481.323 361.333 482.094C366.39 482.863 366.488 484.78 368.967 482.477C371.447 480.174 373.031 483.053 371.447 480.174C369.859 477.293 371.147 478.542 368.867 475.854C366.586 473.167 366.191 475.275 364.999 471.055C363.81 466.829 362.92 468.271 363.613 465.583C364.306 462.894 368.668 463.565 364.009 462.126C359.348 460.686 361.63 461.072 359.348 460.686C357.068 460.301 357.959 462.414 356.471 460.111C354.986 457.807 354.687 456.749 354.092 456.078C353.497 455.405 351.514 458.476 353.893 454.443C356.274 450.411 356.967 452.333 356.274 449.547C355.581 446.764 355.677 447.725 354.886 445.612C354.092 443.499 351.414 443.307 354.488 442.348C357.564 441.387 354.687 440.428 358.453 441.387C362.22 442.348 362.717 442.924 364.304 442.924C365.891 442.924 367.279 441.004 366.287 443.307C365.296 445.612 363.311 446.09 364.501 447.242C365.692 448.393 364.358 445.995 366.86 449.067C369.361 452.138 369.262 449.611 370.056 452.891C370.85 456.171 368.174 456.268 371.444 456.556C374.717 456.844 371.742 457.422 375.014 457.517C378.297 457.603 377.601 457.121 379.09 457.218Z" fill="#1D2635"/>
<path d="M402.752 502.809C402.752 502.809 409.487 504.217 412.39 506.601C412.723 506.236 413.1 505.812 413.554 505.259C418.341 499.463 418.943 501.49 418.341 499.463C417.782 497.563 414.331 490.829 413.898 489.988C413.549 490.128 412.65 490.43 410.562 491.06C405.706 492.524 405.69 492.531 405.69 492.531L405.873 500.057C403.269 500.333 402.752 502.809 402.752 502.809Z" fill="#1D2635"/>
<path d="M382.804 502.769C393.336 503.161 401.57 503.29 402.752 502.812C402.752 502.812 403.267 500.337 405.875 500.062L405.693 492.537L404.567 446.411L467.041 385.334C467.041 385.334 457.082 383.29 452.856 380.658C448.631 378.029 444.707 379.491 442.897 380.658C441.085 381.828 434.144 383.58 432.636 383.875C431.126 384.167 435.052 380.658 433.24 376.274C431.431 371.892 427.205 361.372 425.393 359.91C423.583 358.448 421.469 356.988 419.056 356.988C416.642 356.988 411.208 354.358 411.208 353.481C411.208 352.606 409.399 347.93 410.906 342.086C410.906 342.086 355.071 342.378 342.394 338.872L339.634 365.853C339.634 365.853 340.06 365.779 340.854 367.39C341.652 369.002 340.06 369.211 340.926 370.262C341.797 371.312 343.026 371.453 343.459 373.134C343.892 374.816 338.534 377.523 336.328 382.721L329.822 500.065C329.82 500.06 361.172 501.966 382.804 502.769ZM375.024 457.505C371.751 457.41 374.727 456.83 371.454 456.544C368.184 456.256 370.857 456.161 370.066 452.879C369.272 449.599 369.373 452.126 366.87 449.055C364.368 445.983 365.702 448.384 364.51 447.23C363.321 446.078 365.306 445.6 366.297 443.295C367.289 440.992 365.901 442.911 364.314 442.911C362.726 442.911 362.23 442.333 358.463 441.375C354.696 440.416 357.571 441.375 354.497 442.336C351.424 443.297 354.102 443.487 354.895 445.6C355.687 447.713 355.588 446.751 356.284 449.535C356.977 452.319 356.284 450.399 353.903 454.431C351.524 458.464 353.507 455.393 354.102 456.066C354.696 456.737 354.996 457.793 356.48 460.098C357.969 462.402 357.077 460.289 359.358 460.674C361.638 461.06 359.358 460.674 364.019 462.114C368.678 463.555 364.316 462.882 363.623 465.571C362.93 468.259 363.82 466.817 365.009 471.043C366.198 475.266 366.596 473.155 368.877 475.841C371.157 478.53 369.869 477.281 371.456 480.162C373.044 483.041 371.456 480.162 368.977 482.465C366.498 484.768 366.397 482.85 361.343 482.082C356.286 481.314 360.945 481.409 361.343 479.584C361.741 477.759 361.144 478.625 360.25 476.61C359.358 474.592 359.458 475.075 359.557 471.423C359.655 467.776 360.051 468.64 359.854 466.047C359.657 463.456 358.861 466.047 355.986 464.414C353.112 462.782 355.591 463.07 353.013 460.86C350.433 458.652 352.22 460.955 349.642 461.053C347.062 461.148 348.848 460.094 349.045 457.308C349.244 454.524 350.038 452.221 351.227 449.726C352.416 447.228 352.119 447.71 350.433 444.734C348.748 441.755 349.64 445.117 348.125 446.557C346.608 447.998 348.055 447.615 346.369 450.301C344.681 452.99 345.676 450.396 345.377 450.494C345.079 450.589 342.204 452.319 341.214 450.301C340.221 448.286 341.312 448.767 340.32 446.271C339.329 443.773 339.826 443.87 339.926 441.182C340.025 438.493 341.214 441.758 342.801 441.47C344.389 441.182 343.494 441.087 344.389 439.069C345.281 437.054 344.389 439.069 343 438.108C341.612 437.149 342.207 437.532 341.415 435.995C340.622 434.461 341.514 435.515 346.868 433.497C352.224 431.482 347.364 433.21 347.364 431.097C347.364 428.986 347.961 429.37 350.438 425.913C352.917 422.456 352.222 424.954 356.485 425.337C360.751 425.72 357.775 426.488 357.478 429.272C357.18 432.056 355.792 431.097 352.62 434.168C349.448 437.24 351.826 435.513 351.63 436.281C351.431 437.05 352.718 436.666 357.283 438.872C361.844 441.08 357.976 438.872 360.753 438.006C363.529 437.145 361.844 436.567 362.736 433.878C363.63 431.19 363.134 432.439 364.124 430.038C365.117 427.638 365.515 429.75 370.173 426.774C374.835 423.8 370.967 425.718 375.132 422.166C379.294 418.613 375.429 422.837 377.906 426.679C380.385 430.519 378.206 428.216 376.619 431.287C375.034 434.359 375.926 433.017 376.619 434.744C377.311 436.471 378.007 436.184 379.692 438.775C381.38 441.366 380.388 439.829 381.38 443.288C382.373 446.742 381.975 444.632 383.462 446.742C384.951 448.855 384.155 447.896 385.742 452.119C387.327 456.345 386.634 453.944 387.327 459.257C388.02 464.575 387.526 461.046 389.029 463.063C390.532 465.079 389.31 463.447 389.907 465.271C390.501 467.096 390.401 466.423 391.492 470.553C392.583 474.681 391.789 471.224 393.474 478.711C395.16 486.201 392.781 480.536 390.007 483.608C387.228 486.679 389.113 483.51 385.627 482.359C382.137 481.207 385.245 480.824 386.437 478.711C387.626 476.601 385.842 475.542 384.852 472.759C383.86 469.973 384.754 470.07 385.842 466.901C385.842 466.901 384.157 465.557 382.272 465.076C380.388 464.598 381.38 464.691 380.587 462.485C379.793 460.278 380.587 461.717 380.985 458.07C381.38 454.42 380.587 457.299 379.1 457.206C377.602 457.12 378.297 457.603 375.024 457.505Z" fill="#1D2635"/>
<path d="M843.097 362.245C842.493 357.568 843.097 362.245 839.475 358.155C835.856 354.064 835.25 358.74 819.555 355.233C803.86 351.727 819.555 355.233 813.517 349.507C807.482 343.779 809.898 348.22 799.03 345.883C799.03 345.883 793.597 344.715 777.3 343.172C761.001 341.628 772.471 338.869 765.227 333.61C757.984 328.349 765.227 333.61 754.362 331.339C743.497 329.068 750.136 333.025 740.479 331.339C730.82 329.652 738.066 328.934 736.254 324.845C734.442 320.753 730.216 320.753 719.955 312.57C709.694 304.387 719.955 312.57 713.917 311.182C707.882 309.793 710.296 306.141 705.468 299.712C700.639 293.281 705.468 299.712 702.451 296.7C699.433 293.685 693.999 295.621 691.586 294.138C689.172 292.656 685.878 292.264 685.878 292.264L685.88 292.282C686.468 292.545 685.936 295.548 686.742 296.698C687.873 298.305 690.125 300.914 696.139 306.372C702.153 311.831 699.143 309.285 701.402 311.103C703.656 312.923 705.911 314.016 705.911 314.016C705.911 314.016 705.911 314.016 706.662 316.199C707.414 318.382 707.414 318.384 711.925 324.205C716.434 330.026 714.554 324.205 717.562 324.205C720.568 324.205 718.314 326.391 719.817 330.391C721.322 334.395 722.448 332.939 724.703 337.305C726.96 341.671 727.334 337.305 727.334 337.305C727.334 337.305 733.346 340.581 740.489 346.404C747.629 352.225 740.489 349.315 737.857 353.681C735.231 358.049 737.106 356.594 736.357 360.959C735.605 365.325 736.357 360.959 733.348 365.325C730.342 369.691 733.348 365.325 727.336 369.952C721.324 374.578 724.705 369.691 717.942 370.056C711.176 370.421 715.308 369.691 711.176 370.056C707.041 370.421 709.296 371.876 707.041 379.155C704.787 386.434 707.418 383.521 710.047 385.334C712.679 387.148 713.053 388.254 714.936 390.437C716.813 392.62 717.942 392.62 723.204 394.805C728.465 396.99 725.084 394.078 728.465 394.078C731.848 394.078 729.591 395.535 732.225 400.264C734.856 404.995 733.73 402.084 736.736 404.267C739.744 406.452 739.367 401.719 741.999 400.991C744.63 400.264 741.999 400.991 745.759 403.174C749.516 405.357 748.765 403.539 750.268 403.539C751.773 403.539 751.773 399.534 751.773 399.534C751.773 399.534 749.518 391.165 750.268 389.344C751.019 387.524 751.019 387.524 753.276 385.332C755.53 383.142 754.402 387.887 754.776 391.525C755.153 395.163 755.528 393.345 760.788 394.438C766.051 395.531 762.668 395.531 762.668 395.531C762.668 395.531 762.668 395.531 770.186 396.621C777.703 397.714 772.817 395.893 773.569 394.438C774.318 392.983 776.575 391.89 779.96 389.707C783.34 387.522 785.972 387.887 796.497 385.332C807.021 382.777 799.88 383.521 807.021 381.701C814.161 379.881 813.037 378.79 818.672 376.968C824.31 375.15 827.692 373.692 827.692 373.692L832.576 378.788C832.576 378.788 832.576 378.788 835.858 375.102C839.138 371.418 839.478 373.348 843.102 370.426C846.719 367.506 843.701 366.923 843.097 362.245Z" fill="#1D2635"/>
<path d="M925.198 425.328C921.85 412.362 926.783 415.091 921.85 412.362C916.915 409.632 916.739 406.391 913.216 408.098C909.693 409.805 909.341 411.849 907.752 411.167C906.169 410.485 905.816 414.245 904.758 406.905C903.699 399.565 909.339 397.178 903.699 399.565C898.062 401.955 897.884 406.048 897.006 403.832C896.124 401.615 896.828 398.031 894.712 395.641C892.6 393.255 892.773 389.161 889.601 392.06C886.431 394.959 888.899 393.085 883.613 397.691C878.327 402.297 878.856 404.856 877.622 399.225C876.388 393.595 879.385 390.183 875.686 391.888C871.984 393.595 872.162 394.617 869.166 396.664C866.169 398.711 871.102 403.145 866.169 398.711C861.234 394.277 862.999 390.353 859.825 390.181C856.655 390.008 854.187 390.521 854.012 389.326C853.836 388.134 856.126 387.621 855.246 385.575C854.363 383.525 851.547 381.478 851.547 381.478C851.547 381.478 850.488 379.264 852.076 378.067C853.661 376.872 848.199 371.072 846.438 374.483C846.438 374.483 845.38 373.118 843.091 376.19C840.799 379.262 839.74 380.796 839.565 382.673C839.387 384.55 838.507 381.138 839.565 386.769C840.623 392.4 842.561 388.816 841.152 394.275C839.74 399.733 839.246 398.368 839.052 404.169C838.858 409.97 838.858 409.46 841.325 414.064C843.793 418.67 846.614 417.475 843.793 423.446C840.974 429.417 839.033 427.882 841.677 432.829C844.32 437.777 830.048 438.972 844.32 437.777C858.591 436.582 854.89 440.336 861.232 436.582C867.576 432.829 858.413 436.752 868.634 432.486C878.853 428.222 872.689 430.782 878.853 428.222C885.02 425.663 881.321 429.929 888.016 424.469C894.71 419.01 893.829 411.16 894.71 419.01C895.592 426.858 897.004 426.005 894.71 429.415C892.42 432.826 890.835 433.339 891.011 435.388C891.186 437.435 887.136 442.383 894.007 437.607C900.878 432.829 899.467 436.922 901.056 431.976C902.641 427.03 901.229 430.442 903.346 426.175C905.46 421.909 902.463 421.397 905.46 421.909C908.454 422.422 906.691 423.446 908.632 426.345C910.57 429.247 904.755 430.952 912.155 429.587C919.558 428.222 916.737 429.417 920.614 428.222C924.491 427.032 928.543 438.292 925.198 425.328Z" fill="#1D2635"/>
<path d="M460.239 509.893C456.048 510.764 456.348 508.447 454.55 511.634C454.009 512.593 454.285 513.505 454.707 514.241C454.707 514.241 457.052 515.667 459.049 515.141C461.046 514.613 462.498 514.085 463.769 514.262C465.04 514.439 465.04 515.2 467.037 515.257C467.976 515.286 469.247 514.806 470.326 514.561C462.369 510.269 464.104 509.095 460.239 509.893Z" fill="#1D2635"/>
<path d="M654.746 549.3C651.754 551.328 653.847 552.489 650.258 553.067C648.47 553.357 647.278 553.357 646.527 553.285C646.576 553.405 646.618 553.511 646.667 553.645C648.163 557.703 650.855 560.89 646.072 559.439C641.283 557.993 643.977 557.41 638.89 556.832C633.8 556.252 638.291 553.645 632.007 556.542C625.724 559.439 625.724 560.888 623.628 561.758C621.535 562.626 621.535 560.597 619.737 564.077C617.944 567.554 613.756 569.293 617.642 569.581C621.535 569.871 625.724 569.581 625.724 569.581C625.724 569.581 626.318 569.363 626.768 569.581C626.768 569.581 626.824 568.475 632.209 567.509C637.602 566.541 637.003 565.575 639.997 565.961C642.994 566.348 643.591 567.894 646.588 567.702C649.582 567.509 646.864 568.685 651.916 565.875C656.968 563.061 655.57 564.995 658.766 561.515C661.959 558.036 661.737 559.002 661.948 557.07C662.156 555.137 658.396 551.442 660.875 547.103C660.599 547.225 660.262 547.371 659.838 547.559C656.542 549.012 657.741 547.273 654.746 549.3Z" fill="#1D2635"/>
<path d="M616.856 587.432C616.851 587.43 616.837 587.423 616.837 587.423C616.837 587.423 616.839 587.425 616.856 587.432Z" fill="#1D2635"/>
<path d="M412.39 506.604C412.596 506.775 412.858 506.88 413.148 506.95C412.867 506.829 412.605 506.711 412.39 506.604Z" fill="#1D2635"/>
<path d="M793.135 495.377C795.053 494.264 794.477 494.035 795.818 492.668C797.141 491.317 796.055 492.369 797.122 491.335C797.209 489.061 796.904 486.783 796.736 484.503C796.319 484.521 795.935 484.401 795.437 484.061C793.522 482.762 797.162 483.134 791.602 480.536C786.049 477.94 786.433 477.38 784.131 475.898C781.832 474.415 781.067 478.867 780.875 474.227C780.683 469.589 781.832 465.695 781.067 464.951C780.301 464.208 781.065 459.201 777.808 464.024C774.552 468.848 776.659 474.041 772.255 470.516C767.849 466.996 769.745 465.031 765.831 464.435C765.206 464.834 764.543 465.26 763.794 465.765C755.149 471.586 761.914 466.128 756.277 468.313C750.637 470.496 754.397 469.406 751.014 470.133C747.634 470.861 746.88 471.224 742.745 473.044C738.611 474.864 742.745 473.044 739.363 475.592C735.98 478.14 740.114 479.595 739.363 482.379C739.363 482.379 740.636 481.443 742.745 482.379C744.852 483.319 747.151 483.319 748.298 484.99C749.45 486.658 749.066 485.545 749.45 490.183C749.832 494.821 749.45 496.306 751.557 498.534C753.667 500.758 750.984 500.389 754.622 501.873C758.262 503.356 756.921 503.356 759.796 504.099C762.671 504.841 762.671 500.203 763.82 504.099C764.972 507.996 764.01 508.923 764.972 510.036C765.274 510.387 765.154 510.628 765.007 510.757C765.33 510.628 766.079 510.387 767.652 510.036C771.042 509.279 770.708 509.723 771.841 509.556C772.37 509.478 773.22 509.268 774.933 508.737C780.297 507.067 778.571 510.961 781.83 506.509C785.087 502.057 781.062 503.17 786.62 499.645C792.18 496.12 791.22 496.492 793.135 495.377Z" fill="#1D2635"/>
<path d="M850.422 463.283C844.483 465.695 846.4 469.589 842.952 466.808C839.504 464.024 840.077 463.605 837.874 459.269C835.669 454.935 838.162 451.41 835.669 454.935C833.18 458.459 831.001 456.048 832.569 461.243C834.138 466.436 835.479 465.509 834.906 469.963C834.33 474.415 833.11 475.343 832.569 476.27C832.028 477.199 837.394 474.416 830.881 478.682C824.368 482.948 824.942 483.875 822.835 483.505C820.726 483.136 823.408 481.463 819.576 482.95C815.744 484.433 816.128 486.844 812.871 485.917C809.615 484.99 810.38 485.731 808.463 484.433C806.55 483.134 811.719 481.649 804.633 482.578C801.17 483.032 799.358 483.703 798.183 484.122C798.3 486.262 798.598 488.397 798.635 490.535C800.602 492.638 800.672 493.253 798.31 495.01C795.819 496.864 789.306 500.019 795.245 497.605C801.184 495.193 798.504 494.635 804.059 494.635C809.617 494.635 808.849 493.525 809.617 494.635C810.385 495.751 813.449 496.864 808.657 497.977C803.867 499.09 806.742 497.791 801.95 499.647C797.16 501.504 797.352 499.278 795.819 503.728C794.288 508.18 797.926 507.253 794.096 510.873C790.261 514.488 788.538 513.561 787.58 515.973C786.62 518.387 784.703 518.94 787.007 521.54C789.306 524.138 782.022 524.879 791.989 526.364C801.95 527.847 798.885 533.6 803.294 527.847C807.7 522.096 810.193 528.404 808.086 520.239C805.977 512.076 805.593 513.375 807.126 508.18C808.66 502.986 803.678 503.356 809.617 502.801C815.559 502.243 808.276 506.14 817.09 502.059C825.904 497.977 822.837 501.688 827.625 497.233C832.417 492.781 832.607 494.452 833.375 491.668C834.14 488.885 829.35 490.369 834.716 488.143C840.079 485.917 838.74 488.332 840.08 485.917C841.421 483.505 838.164 486.731 841.807 481.964C845.448 477.199 845.448 480.724 846.213 476.084C846.981 471.448 848.704 471.448 850.427 467.735C852.148 464.024 856.364 460.871 850.422 463.283Z" fill="#1D2635"/>
<path d="M633.501 531.918C645.773 530.757 658.038 525.541 662.228 524.673C666.417 523.803 676.291 521.196 678.988 525.541C681.681 529.887 682.877 533.654 680.185 534.234C680.185 534.234 682.987 533.452 687.873 531.997C692.761 530.542 687.496 530.904 695.013 529.812C696.01 529.667 696.802 529.635 697.45 529.671C701.706 529.916 699.67 533.282 705.536 529.812C710.785 526.706 709.036 529.277 710.265 528.044C710.619 527.688 711.207 527.031 712.302 525.809C715.715 521.998 716.195 521.908 717.071 520.346C717.448 519.668 717.9 518.723 718.693 517.077C721.325 511.618 722.076 511.981 722.076 509.436C722.076 506.885 720.571 509.54 722.076 503.116C723.579 496.696 722.074 501.792 724.331 494.513C726.585 487.234 724.331 486.142 727.337 484.321C730.343 482.506 723.202 482.139 730.343 482.506C737.485 482.868 738.611 485.165 739.363 482.377C740.114 479.593 735.98 478.138 739.363 475.59C742.746 473.042 738.611 474.862 742.746 473.042C746.88 471.222 747.634 470.859 751.015 470.131C754.398 469.404 750.638 470.496 756.277 468.311C761.915 466.126 755.149 471.587 763.795 465.763C764.542 465.258 765.206 464.829 765.831 464.433C772.438 460.228 772.67 461.381 775.072 457.394C777.701 453.026 778.829 451.206 778.829 451.206C778.829 451.206 779.953 449.388 777.324 447.932C774.695 446.475 773.19 443.929 769.432 445.747C765.675 447.567 766.049 447.932 758.906 450.115C751.766 452.298 749.135 454.118 749.135 454.118C749.135 454.118 747.632 454.483 744.626 456.301C741.617 458.122 742.371 456.408 738.988 459.264C735.606 462.125 735.233 461.76 732.976 464.308C730.722 466.853 732.225 465.035 728.091 470.129C723.956 475.225 725.085 476.317 721.699 479.591C718.319 482.866 716.062 484.686 716.062 484.686C716.062 484.686 716.441 472.312 717.942 467.581C719.445 462.852 716.814 464.414 720.948 459.264C725.085 454.118 726.279 454.846 729.629 452.298C732.976 449.75 729.217 454.846 732.976 449.75C736.734 444.655 734.103 446.84 737.86 441.744C741.617 436.648 732.223 441.744 741.617 436.648C751.015 431.552 744.249 434.465 758.155 430.825C772.059 427.186 769.432 429.004 776.196 426.096C782.961 423.186 775.821 426.824 785.59 422.458C795.362 418.09 791.602 421 798.368 416.999C805.134 412.998 800.999 416.637 808.14 410.813C815.28 404.992 815.28 407.903 817.535 403.17C819.791 398.439 816.783 398.804 819.791 394.436C822.797 390.067 821.297 392.25 825.803 387.157C830.315 382.061 832.569 378.788 832.569 378.788L827.686 373.692C827.686 373.692 824.303 375.15 818.665 376.967C813.028 378.788 814.154 379.878 807.014 381.701C799.873 383.519 807.014 382.777 796.49 385.332C785.967 387.887 783.336 387.524 779.953 389.707C776.57 391.89 774.311 392.983 773.562 394.438C772.81 395.893 777.696 397.713 770.179 396.621C762.662 395.53 762.662 395.53 762.662 395.53C762.662 395.53 766.044 395.53 760.782 394.438C755.521 393.347 755.144 395.165 754.77 391.525C754.393 387.887 755.521 383.142 753.269 385.332C751.012 387.524 751.012 387.524 750.261 389.344C749.512 391.165 751.766 399.534 751.766 399.534C751.766 399.534 751.766 403.539 750.261 403.539C748.76 403.539 749.512 405.357 745.752 403.174C741.992 400.991 744.626 400.264 741.992 400.991C739.361 401.719 739.738 406.45 736.729 404.267C733.723 402.082 734.849 404.994 732.218 400.264C729.587 395.535 731.841 394.077 728.458 394.077C725.078 394.077 728.458 396.99 723.198 394.805C717.935 392.62 716.806 392.62 714.929 390.437C713.049 388.254 712.672 387.148 710.041 385.334C707.412 383.523 704.778 386.434 707.035 379.155C709.289 371.876 707.035 370.421 711.169 370.056C715.301 369.691 711.169 370.421 717.935 370.056C724.698 369.691 721.318 374.578 727.33 369.952C733.342 365.325 730.336 369.691 733.342 365.325C736.35 360.959 735.596 365.325 736.35 360.959C737.101 356.593 735.224 358.049 737.851 353.681C740.482 349.315 747.622 352.225 740.482 346.404C733.342 340.581 727.327 337.305 727.327 337.305C727.327 337.305 726.953 341.671 724.696 337.305C722.441 332.939 721.315 334.394 719.81 330.391C718.309 326.388 720.562 324.205 717.556 324.205C714.55 324.205 716.427 330.026 711.918 324.205C707.407 318.384 707.407 318.382 706.655 316.199C705.904 314.016 705.904 314.016 705.904 314.016C705.904 314.016 703.649 312.923 701.395 311.103C699.138 309.283 702.146 311.831 696.132 306.372C690.118 300.914 687.863 298.305 686.735 296.697C685.93 295.548 686.461 292.542 685.873 292.282C685.637 292.177 685.23 292.492 684.483 293.553C681.851 297.275 684.106 305.647 684.106 305.647C685.986 312.561 688.994 310.74 685.234 314.381C681.477 318.021 682.638 317.291 680.178 319.839C677.719 322.387 679.597 321.66 677.719 323.842C675.84 326.025 678.094 326.753 673.962 326.753C669.828 326.753 671.705 327.843 669.828 326.753C667.948 325.66 671.705 328.208 667.948 325.66C664.19 323.115 669.076 323.478 664.19 323.115C659.302 322.75 658.553 320.93 656.296 322.75C654.042 324.57 657.048 331.849 654.042 324.57C651.033 317.291 651.785 315.473 649.907 314.743C648.027 314.016 647.276 312.561 645.773 311.833C644.267 311.105 644.642 314.016 643.893 308.922C643.141 303.827 638.632 299.928 637.502 300.057C636.376 300.186 637.502 296.697 637.502 296.697C637.502 296.697 632.99 295.757 629.612 296.697C626.229 297.638 629.987 301.215 623.975 296.697C617.958 292.18 618.714 290.359 615.704 289.997C612.698 289.632 612.323 285.919 604.806 287.048C597.289 288.176 596.912 287.011 593.154 287.048C589.397 287.084 593.531 284.098 587.142 287.048C580.751 289.997 583.385 289.994 578.499 289.632C573.615 289.269 576.994 288.904 570.605 288.904C564.218 288.904 564.967 287.449 561.587 289.632C558.202 291.817 558.202 291.817 558.202 291.817C558.202 291.817 557.829 289.831 558.202 293.553C558.581 297.275 559.332 297.745 561.21 300.057C563.087 302.371 566.47 300.551 563.087 306.372C559.705 312.196 555.612 310.375 558.033 314.379C560.456 318.382 560.456 316.926 562.338 318.744C564.216 320.565 564.59 318.017 566.47 322.748C568.35 327.478 570.607 318.744 568.35 327.478C566.096 336.212 568.35 332.064 565.719 338.869C563.087 345.674 554.819 342.764 563.087 345.674C571.356 348.585 553.318 339.123 573.988 348.585C594.66 358.046 596.914 355.136 596.914 358.774C596.914 362.412 594.66 359.139 596.914 364.96C599.171 370.784 600.297 366.418 599.545 374.059C598.794 381.703 596.163 386.796 592.78 390.8C589.397 394.803 589.774 394.803 586.388 396.986C583.008 399.171 584.509 398.806 580.376 400.989C576.24 403.172 576.242 408.8 576.991 409.99C577.743 411.178 576.619 411.178 581.13 417.002C585.639 422.823 584.511 421.368 587.517 426.463C590.523 431.559 586.012 425.008 590.523 431.559C595.034 438.11 595.411 432.287 595.034 438.11C594.657 443.934 592.78 444.296 592.026 447.209C591.274 450.12 588.643 445.752 591.274 450.12C593.906 454.488 597.406 451.831 593.906 456.671C590.406 461.511 590.403 461.511 590.403 461.511C590.403 461.511 599.382 506.133 606.861 514.246C614.351 522.354 621.233 533.078 633.501 531.918Z" fill="#1D2635"/>
<path d="M419.839 508.737C426.722 509.896 421.637 509.608 425.825 508.157C430.013 506.706 427.019 508.157 434.803 507.286C442.583 506.418 436.599 507.577 443.182 512.79C449.765 518.006 443.182 512.79 451.558 515.109C457.409 516.728 455.676 515.943 454.707 514.239C454.288 513.502 454.009 512.593 454.55 511.632C456.346 508.445 456.046 510.761 460.239 509.891C464.107 509.091 462.372 510.265 470.327 514.558C470.987 514.914 471.704 515.291 472.507 515.69C482.978 520.905 474.002 516.268 479.389 515.977C484.774 515.689 480.586 513.949 483.58 506.996C486.572 500.042 486.272 503.519 491.956 501.202C497.645 498.886 496.147 502.941 503.929 503.118C511.708 503.295 506.921 504.099 511.107 503.118C515.295 502.136 512.902 504.392 516.194 507.286C519.485 510.183 520.684 510.764 523.077 511.344C525.469 511.922 523.676 512.79 527.267 517.138C530.858 521.486 527.267 517.138 530.259 514.824C533.251 512.502 533.251 513.953 535.344 514.241C537.439 514.531 538.039 518.299 538.336 519.167C538.636 520.035 538.636 520.325 539.235 528.15C539.837 535.971 539.837 531.627 542.227 532.205C544.622 532.781 545.219 532.493 555.094 533.074C564.968 533.652 557.79 535.102 563.772 538.868C569.758 542.633 563.772 538.868 566.764 536.839C569.758 534.812 569.756 536.259 577.538 535.102C585.315 533.942 580.232 535.102 583.521 535.102C586.813 535.102 585.017 534.812 592.2 533.652C599.382 532.496 593.996 534.522 599.38 537.999C604.765 541.477 601.176 540.028 604.47 542.345C607.761 544.664 604.769 543.506 606.862 551.038C608.958 558.571 605.963 553.935 604.47 554.806C602.971 555.676 604.47 554.806 595.194 553.067C585.919 551.328 591.303 551.038 588.012 550.17C584.72 549.3 588.012 550.17 588.611 552.779C589.21 555.386 590.105 555.678 591.303 557.997C592.497 560.314 589.805 559.734 587.113 565.818C584.421 571.902 587.113 565.818 587.113 569.875C587.113 573.931 587.113 569.875 585.914 576.83C584.718 583.785 585.02 577.991 583.222 577.991C581.429 577.991 583.222 580.017 580.53 583.204C577.835 586.391 580.53 583.204 574.246 594.794C567.963 606.382 574.246 594.794 580.232 596.241C586.218 597.691 584.42 595.082 587.714 590.447C591.006 585.809 590.107 586.101 594.295 584.653C598.483 583.204 597.587 584.653 603.273 584.653C608.962 584.653 605.966 583.204 608.363 581.175C610.756 579.147 610.756 579.147 617.638 576.828C624.524 574.509 621.532 577.118 624.224 576.828C624.985 576.746 625.427 576.615 625.713 576.392C626.427 575.833 626.059 574.686 626.918 572.192C627.515 570.451 627.216 569.801 626.766 569.583C626.319 569.365 625.722 569.583 625.722 569.583C625.722 569.583 621.534 569.873 617.641 569.583C613.754 569.295 617.943 567.554 619.736 564.079C621.534 560.602 621.534 562.628 623.627 561.76C625.722 560.89 625.722 559.441 632.006 556.544C638.289 553.647 633.799 556.254 638.889 556.834C643.976 557.412 641.283 557.995 646.071 559.441C650.856 560.89 648.164 557.705 646.666 553.647C646.617 553.511 646.574 553.405 646.525 553.287C647.277 553.357 648.468 553.357 650.257 553.069C653.848 552.491 651.753 551.331 654.745 549.302C657.739 547.275 656.54 549.014 659.834 547.565C660.258 547.377 660.595 547.232 660.871 547.11C662.728 546.294 661.637 546.722 663.723 544.959C666.116 542.93 665.519 543.22 667.611 540.903C669.707 538.584 670.308 538.006 672.701 535.977C675.094 533.949 677.486 534.819 680.183 534.239C682.878 533.656 681.679 529.891 678.987 525.546C676.29 521.2 666.418 523.807 662.227 524.677C658.036 525.543 645.771 530.762 633.499 531.922C621.23 533.083 614.349 522.358 606.867 514.245C599.387 506.133 590.409 461.51 590.409 461.51C590.409 461.51 588.911 461.22 587.417 459.271C585.919 457.324 583.826 459.269 583.826 459.269C583.826 459.269 582.627 459.482 577.243 451.657C571.853 443.836 574.85 449.92 567.068 447.311C559.286 444.702 564.673 445.572 562.578 441.807C560.485 438.04 561.681 440.356 557.493 438.62C553.305 436.881 557.493 438.62 552.706 435.143C547.918 431.666 553.605 432.246 554.501 427.318C555.4 422.392 553.303 425.579 550.011 418.337C546.719 411.092 548.215 413.121 547.019 409.353C545.82 405.588 545.521 406.456 542.529 403.559C539.537 400.662 540.434 402.401 533.553 401.821C526.67 401.24 529.362 402.111 525.771 402.691C522.18 403.269 520.387 403.852 515.599 406.166C510.812 408.485 513.804 405.008 510.512 402.401C507.22 399.792 509.313 402.979 505.902 402.401C502.491 401.821 502.732 401.531 488.967 398.924C475.201 396.317 486.874 397.475 481.185 394.868C475.498 392.259 478.79 393.13 477.294 391.559C475.798 389.986 474.302 389.943 471.61 387.626C468.918 385.309 467.04 385.336 467.04 385.336L404.565 446.413L405.691 492.539C405.691 492.539 405.71 492.532 410.563 491.067C412.652 490.437 413.551 490.136 413.899 489.995C414.333 490.834 417.783 497.571 418.343 499.47C418.942 501.499 418.343 499.47 413.555 505.267C413.101 505.82 412.724 506.244 412.392 506.609C412.607 506.717 412.867 506.833 413.15 506.953C414.475 507.511 416.58 508.189 419.839 508.737Z" fill="#1D2635"/>
</g>
</svg>
