<svg width="30" height="30" viewBox="0 0 30 30" fill="none" xmlns="http://www.w3.org/2000/svg">
<path d="M5.03141 5.0895L4.36862 4.42646V4.42646L5.03141 5.0895ZM11.2186 5.0895L11.8814 4.42646L11.2186 5.0895ZM11.2186 11.2743L10.5558 10.6112L11.2186 11.2743ZM18.7316 18.7843L18.0688 18.1213L18.7316 18.7843ZM24.9188 24.9691L24.256 24.3061L24.9188 24.9691ZM9.45082 20.5514L8.78804 21.2145L9.45082 20.5514ZM3.77317 8.63269L4.71065 8.62737C4.71048 8.59705 4.70883 8.56675 4.70573 8.53658L3.77317 8.63269ZM21.3742 26.2269L21.4703 25.2943C21.4401 25.2912 21.4098 25.2896 21.3795 25.2894L21.3742 26.2269ZM8.81949 12.5L8.6715 11.5743C8.3716 11.6222 8.11351 11.8125 7.97898 12.0848C7.84445 12.3571 7.85016 12.6776 7.9943 12.945L8.81949 12.5ZM17.5053 21.1825L17.0607 22.0079C17.328 22.1519 17.6485 22.1575 17.9207 22.023C18.1929 21.8885 18.3831 21.6304 18.4311 21.3306L17.5053 21.1825ZM5.69419 5.75254C7.03665 4.41061 9.21335 4.41061 10.5558 5.75254L11.8814 4.42646C9.80674 2.35264 6.44325 2.35264 4.36862 4.42646L5.69419 5.75254ZM10.5558 5.75254C11.8981 7.09427 11.8981 9.2695 10.5558 10.6112L11.8814 11.9373C13.9562 9.86329 13.9562 6.50048 11.8814 4.42646L10.5558 5.75254ZM19.3944 19.4474C20.7368 18.1055 22.9135 18.1055 24.256 19.4474L25.5816 18.1213C23.5069 16.0475 20.1434 16.0475 18.0688 18.1213L19.3944 19.4474ZM24.256 19.4474C25.5983 20.7891 25.5983 22.9643 24.256 24.3061L25.5816 25.6322C27.6564 23.5581 27.6564 20.1953 25.5816 18.1213L24.256 19.4474ZM10.1136 19.8884C6.58131 16.3575 4.73044 12.1143 4.71065 8.62737L2.83568 8.63802C2.85889 12.7266 4.99114 17.4191 8.78804 21.2145L10.1136 19.8884ZM4.70573 8.53658C4.60312 7.54108 4.93305 6.51338 5.69419 5.75254L4.36862 4.42646C3.1915 5.60313 2.6826 7.19578 2.84061 8.72881L4.70573 8.53658ZM24.256 24.3061C23.4948 25.0669 22.4665 25.3969 21.4703 25.2943L21.2782 27.1594C22.8114 27.3173 24.4045 26.8088 25.5816 25.6322L24.256 24.3061ZM21.3795 25.2894C17.8908 25.2696 13.6459 23.4193 10.1136 19.8884L8.78804 21.2145C12.585 25.0099 17.279 27.1412 21.3689 27.1644L21.3795 25.2894ZM10.5558 10.6112C10.023 11.1438 9.36141 11.464 8.6715 11.5743L8.96748 13.4258C10.0342 13.2553 11.0601 12.7583 11.8814 11.9373L10.5558 10.6112ZM13.2072 16.796C11.7223 15.3116 10.5286 13.6944 9.64469 12.0551L7.9943 12.945C8.96729 14.7496 10.2718 16.5129 11.8816 18.1221L13.2072 16.796ZM18.4311 21.3306C18.5414 20.6412 18.8616 19.9799 19.3944 19.4474L18.0688 18.1213C17.2475 18.9423 16.7502 19.9679 16.5796 21.0344L18.4311 21.3306ZM17.95 20.3572C16.31 19.4736 14.6921 18.2804 13.2072 16.796L11.8816 18.1221C13.4915 19.7313 15.2554 21.0353 17.0607 22.0079L17.95 20.3572Z" fill="#1D3960"/>
</svg>
