<svg width="22" height="24" viewBox="0 0 22 24" fill="none" xmlns="http://www.w3.org/2000/svg">
<path d="M12.5766 4.10572C8.05669 1.09213 5.79674 -0.414665 3.94928 0.107565C3.36996 0.271323 2.83301 0.558675 2.37538 0.949838C0.916016 2.19726 0.916016 4.91347 0.916016 10.3459V13.6561C0.916016 19.0879 0.916016 21.8039 2.37526 23.0513C2.83284 23.4424 3.36976 23.7298 3.94904 23.8936C5.79637 24.4159 8.05623 22.9095 12.5759 19.8967L15.0586 18.2418C18.7907 15.754 20.6567 14.5101 20.9943 12.8154C21.1013 12.2782 21.1013 11.7252 20.9944 11.1879C20.657 9.49327 18.7911 8.24918 15.0592 5.761L12.5766 4.10572Z" fill="white"/>
</svg>
