<svg width="121" height="22" viewBox="0 0 121 22" fill="none" xmlns="http://www.w3.org/2000/svg">
<g clip-path="url(#clip0_52_161)">
<path d="M4.9666 21.2343C4.43585 21.5066 3.8336 21.0294 3.94085 20.4203L5.0821 13.9166L0.237977 9.30207C-0.214398 8.87032 0.0207266 8.08107 0.627102 7.99582L7.36185 7.03882L10.3649 1.0892C10.6357 0.552949 11.3686 0.552949 11.6395 1.0892L14.6425 7.03882L21.3772 7.99582C21.9836 8.08107 22.2187 8.87032 21.765 9.30207L16.9222 13.9166L18.0635 20.4203C18.1707 21.0294 17.5685 21.5066 17.0377 21.2343L11.0001 18.1323L4.9666 21.2343Z" fill="#1D3960"/>
</g>
<g clip-path="url(#clip1_52_161)">
<path d="M29.7166 21.2343C29.1859 21.5066 28.5836 21.0294 28.6909 20.4203L29.8321 13.9166L24.988 9.30207C24.5356 8.87032 24.7707 8.08107 25.3771 7.99582L32.1119 7.03882L35.1149 1.0892C35.3857 0.552949 36.1186 0.552949 36.3895 1.0892L39.3925 7.03882L46.1272 7.99582C46.7336 8.08107 46.9687 8.87032 46.515 9.30207L41.6722 13.9166L42.8135 20.4203C42.9207 21.0294 42.3185 21.5066 41.7877 21.2343L35.7501 18.1323L29.7166 21.2343Z" fill="#1D3960"/>
</g>
<g clip-path="url(#clip2_52_161)">
<path d="M54.4666 21.2343C53.9359 21.5066 53.3336 21.0294 53.4409 20.4203L54.5821 13.9166L49.738 9.30207C49.2856 8.87032 49.5207 8.08107 50.1271 7.99582L56.8619 7.03882L59.8649 1.0892C60.1357 0.552949 60.8686 0.552949 61.1395 1.0892L64.1425 7.03882L70.8772 7.99582C71.4836 8.08107 71.7187 8.87032 71.265 9.30207L66.4222 13.9166L67.5635 20.4203C67.6707 21.0294 67.0685 21.5066 66.5377 21.2343L60.5001 18.1323L54.4666 21.2343Z" fill="#1D3960"/>
</g>
<g clip-path="url(#clip3_52_161)">
<path d="M79.2166 21.2343C78.6859 21.5066 78.0836 21.0294 78.1909 20.4203L79.3321 13.9166L74.488 9.30207C74.0356 8.87032 74.2707 8.08107 74.8771 7.99582L81.6119 7.03882L84.6149 1.0892C84.8857 0.552949 85.6186 0.552949 85.8895 1.0892L88.8925 7.03882L95.6272 7.99582C96.2336 8.08107 96.4687 8.87032 96.015 9.30207L91.1722 13.9166L92.3135 20.4203C92.4207 21.0294 91.8185 21.5066 91.2877 21.2343L85.2501 18.1323L79.2166 21.2343Z" fill="#1D3960"/>
</g>
<g clip-path="url(#clip4_52_161)">
<path d="M103.967 21.2343C103.436 21.5066 102.834 21.0294 102.941 20.4203L104.082 13.9166L99.238 9.30207C98.7856 8.87032 99.0207 8.08107 99.6271 7.99582L106.362 7.03882L109.365 1.0892C109.636 0.552949 110.369 0.552949 110.639 1.0892L113.642 7.03882L120.377 7.99582C120.984 8.08107 121.219 8.87032 120.765 9.30207L115.922 13.9166L117.063 20.4203C117.171 21.0294 116.568 21.5066 116.038 21.2343L110 18.1323L103.967 21.2343Z" fill="#1D3960"/>
</g>
<defs>
<clipPath id="clip0_52_161">
<rect width="22" height="22" fill="white"/>
</clipPath>
<clipPath id="clip1_52_161">
<rect width="22" height="22" fill="white" transform="translate(24.75)"/>
</clipPath>
<clipPath id="clip2_52_161">
<rect width="22" height="22" fill="white" transform="translate(49.5)"/>
</clipPath>
<clipPath id="clip3_52_161">
<rect width="22" height="22" fill="white" transform="translate(74.25)"/>
</clipPath>
<clipPath id="clip4_52_161">
<rect width="22" height="22" fill="white" transform="translate(99)"/>
</clipPath>
</defs>
</svg>
