<svg width="54" height="61" viewBox="0 0 54 61" fill="none" xmlns="http://www.w3.org/2000/svg">
<path d="M27.067 60.6841C26.9422 60.6839 26.8173 60.652 26.7067 60.5885C26.7024 60.5859 0.671354 44.9673 0.671354 44.9673C0.453616 44.8367 0.320312 44.6014 0.320312 44.3475C0.320312 44.3475 0.320312 17.0218 0.320312 17.0154C0.322626 16.7619 0.463159 16.5214 0.682777 16.395L26.6959 0.787096C26.9247 0.649744 27.211 0.649744 27.4397 0.787096C27.4397 0.787096 53.4415 16.3882 53.4528 16.395C53.6755 16.5286 53.813 16.7608 53.8153 17.0218V44.3475C53.8153 44.6014 53.682 44.8367 53.4642 44.9673L27.4525 60.5743C27.3358 60.6476 27.2015 60.6842 27.067 60.6841ZM27.7906 46.7118V58.6853L52.3693 43.938V18.2984L42.1041 24.4575V37.8412C42.1041 38.097 41.9691 38.3335 41.749 38.4636L27.7906 46.7118ZM1.76612 43.9382L26.3448 58.6854V46.712L12.3866 38.4638C12.1665 38.3338 12.0313 38.0971 12.0313 37.8414V24.4577L1.76612 18.2986V43.9382ZM27.7906 33.0458V45.0324L40.6583 37.4287V25.325L27.7906 33.0458ZM13.4771 37.4287L26.3448 45.0324V33.0458L13.4771 25.3252V37.4287ZM14.2765 24.1186L27.0677 31.7934L39.8591 24.1186L27.0677 16.5601L14.2765 24.1186ZM27.0677 14.9975C27.195 14.9975 27.322 15.031 27.4355 15.098L41.2691 23.2724L51.6873 17.0216L27.0677 2.24996L2.44839 17.0216L12.8664 23.2724L26.7001 15.098C26.8134 15.031 26.9406 14.9975 27.0677 14.9975Z" fill="#1D3960"/>
</svg>
