<svg width="60" height="60" viewBox="0 0 60 60" fill="none" xmlns="http://www.w3.org/2000/svg">
<path d="M9.39984 38.9072V49.8896C9.39984 50.2778 9.7146 50.5927 10.103 50.5927H21.2896L29.0827 58.615C29.2206 58.7569 29.4037 58.8282 29.587 58.8282C29.7635 58.8282 29.9401 58.7622 30.0768 58.6295L38.617 50.3393L50.516 49.9763C50.7025 49.9707 50.8789 49.8911 51.0067 49.7553C51.1344 49.6194 51.2031 49.4384 51.1973 49.2521L50.8505 37.8907L58.6371 29.6075C58.7648 29.4715 58.8334 29.2905 58.8275 29.104C58.8218 28.9176 58.7421 28.7411 58.6062 28.6134L50.5999 21.0927V10.1105C50.5999 9.72226 50.2852 9.40738 49.8968 9.40738H38.7102L30.9172 1.38507C30.6466 1.10663 30.2018 1.10007 29.9231 1.37042L21.3828 9.66062L9.48386 10.0237C9.29742 10.0293 9.12093 10.1089 8.9932 10.2447C8.86546 10.3805 8.79679 10.5616 8.80253 10.7479L9.14941 22.1092L1.36265 30.3926C1.23492 30.5285 1.16636 30.7096 1.17222 30.896C1.17796 31.0825 1.25765 31.259 1.39359 31.3867L9.39984 38.9073V38.9072ZM10.8061 49.1864V40.2282L15.8933 45.0067C16.029 45.1342 16.202 45.1974 16.3746 45.1974C16.5619 45.1974 16.7487 45.1231 16.8871 44.9758L29.2969 31.7745V49.1864H10.8061ZM29.6017 57.1309L23.2501 50.5927H30C30.3884 50.5927 30.7031 50.2778 30.7031 49.8896V31.7329L42.8668 44.2542L29.6017 57.1308V57.1309ZM40.1135 48.8868L44.351 44.7734C44.4848 44.6435 44.5616 44.4658 44.5643 44.2792C44.567 44.0928 44.4956 43.9128 44.3655 43.7789L31.6157 30.6541L49.2063 30.1173L49.7703 48.5919L40.1134 48.8867L40.1135 48.8868ZM57.1309 29.1568L50.7899 35.9022L50.5905 29.3717C50.5787 28.9835 50.2543 28.6772 49.8663 28.6903L31.6743 29.2453L43.6562 16.4992L57.131 29.1566L57.1309 29.1568ZM49.1938 10.8135V19.7718L44.1066 14.9932C43.8236 14.7272 43.3787 14.7412 43.1129 15.0242L30.7031 28.2255V10.8136H49.1939L49.1938 10.8135ZM30.3983 2.86913L36.7498 9.40738H30C29.6116 9.40738 29.2969 9.72226 29.2969 10.1105V28.2672L17.1332 15.7458L30.3983 2.86913ZM19.8865 11.1133L15.649 15.2267C15.5152 15.3565 15.4384 15.5343 15.4357 15.7209C15.433 15.9073 15.5044 16.0873 15.6344 16.2211L28.3843 29.346L10.7937 29.8827L10.2296 11.4081L19.8866 11.1134L19.8865 11.1133ZM9.21011 24.0979L9.40945 30.6284C9.42105 31.0093 9.73347 31.3101 10.1119 31.3101C10.1191 31.3101 10.1264 31.3101 10.1337 31.3097L28.3257 30.7547L16.3438 43.5009L2.8691 30.8432L9.21011 24.0979Z" fill="#1D3960"/>
</svg>
