<svg width="60" height="60" viewBox="0 0 60 60" fill="none" xmlns="http://www.w3.org/2000/svg">
<path d="M55.0781 33.75V15C55.0781 14.7422 54.9375 14.5078 54.7031 14.3789L30.3281 1.25391C30.1172 1.13672 29.8711 1.13672 29.6602 1.25391L5.28516 14.3789C5.0625 14.4961 4.91016 14.7422 4.91016 15V22.5C4.91016 22.6875 4.98047 22.8633 5.12109 22.9922L6.91406 24.7852L5.29688 25.6289C5.0625 25.7461 4.92188 25.9922 4.92188 26.25L4.80469 44.6484C4.80469 44.9062 4.94531 45.1406 5.16797 45.2695L29.6602 58.7461C29.9531 58.8984 30.2344 58.8047 30.3281 58.7461L54.7031 45.6211C54.9258 45.5039 55.0781 45.2578 55.0781 45V37.5C55.0781 37.3125 55.0078 37.1367 54.8672 37.0078L53.0859 35.2148L54.7031 34.3711C54.9375 34.2539 55.0781 34.0078 55.0781 33.75ZM30 2.67187L52.8867 15L30 27.3281L7.11328 15L30 2.67187ZM6.32812 22.207V16.1719L29.2969 28.5352V45.1641L8.57812 24.4688L6.32812 22.207ZM6.31641 27.9375L29.2969 50.918V56.9414L6.21094 44.2383L6.31641 27.9375ZM30.7031 56.9531V51.0469L53.6719 38.6719V44.5781L30.7031 56.9531ZM53.2031 37.3242L30.1172 49.7578L6.79688 26.4258L7.95703 25.8164L29.5078 47.3672C29.6367 47.4961 29.8125 47.5781 30 47.5781C30.1172 47.5781 30.2344 47.5547 30.3398 47.4961L51.7969 35.9062L53.2031 37.3242ZM51.5859 34.418L30.7031 45.6914V28.5469L53.6719 16.1836V33.3281L51.5859 34.418Z" fill="#1D3960"/>
</svg>
