<svg width="60" height="60" viewBox="0 0 60 60" fill="none" xmlns="http://www.w3.org/2000/svg">
<path d="M57.0623 44.416L35.2764 6.63031C35.1812 6.49848 34.624 6.17729 34.4643 6.16064H25.179C24.8412 6.16064 24.5299 6.34192 24.3633 6.63581L2.93445 44.4214C2.869 44.5682 2.87494 45.2141 2.94452 45.3626L7.70618 53.3808C7.87464 53.6655 8.18134 53.8395 8.51185 53.8395H51.3695C51.5281 53.8428 52.0746 53.5155 52.1706 53.389L57.0513 45.3709C57.2289 45.0788 57.2335 44.7126 57.0623 44.416ZM25.7247 8.03564H32.8411L16.2719 36.7621C15.9044 37.356 16.3837 38.191 17.0839 38.1683C17.0839 38.1684 33.4214 38.1684 33.4214 38.1684L36.9078 43.9463H5.35964L25.7247 8.03564ZM27.4241 36.2934L29.8415 32.2356L32.29 36.2934H27.4241ZM9.0456 51.9645L5.39745 45.8213H38.5686C38.9064 45.8213 39.2186 45.6391 39.3853 45.3443C39.551 45.0504 39.5464 44.6888 39.3715 44.3995L30.9296 30.409L34.4387 24.5188L49.772 51.9645H9.0456ZM51.4043 51.0424L35.2828 22.186C35.1189 21.8931 34.8122 21.71 34.4771 21.7054C34.1713 21.71 33.8307 21.8757 33.6586 22.1631L25.2412 36.2934H18.7072L34.4641 8.97526L55.1607 44.871L51.4043 51.0424Z" fill="#1D3960"/>
</svg>
