<svg width="24" height="25" viewBox="0 0 24 25" fill="none" xmlns="http://www.w3.org/2000/svg">
<path d="M19.2044 4.50197C17.6805 4.54453 14.2418 4.90635 11.6433 7.1566L11.6433 7.15661C11.5269 7.25741 11.4687 7.30781 11.4087 7.3367C11.3877 7.34681 11.3695 7.35415 11.3474 7.3614C11.2841 7.38213 11.2133 7.38582 11.0716 7.39319H11.0716L7.08323 7.60077C5.68679 7.67346 4.5918 8.82691 4.5918 10.2252C4.5918 11.6331 5.7012 12.7908 7.10775 12.8509L8.07482 12.8922L8.07487 12.8922C8.13672 12.8948 8.16765 12.8961 8.19727 12.901C8.28041 12.9146 8.35876 12.949 8.42504 13.0011C8.44865 13.0196 8.47055 13.0415 8.51435 13.0853L11.4115 15.9824C11.4553 16.0262 11.4772 16.0481 11.4957 16.0717C11.5477 16.138 11.5822 16.2164 11.5958 16.2995C11.6007 16.3291 11.602 16.3601 11.6046 16.422L11.6459 17.389C11.7059 18.7956 12.8637 19.905 14.2715 19.905C15.6699 19.905 16.8233 18.81 16.896 17.4136L17.1036 13.4252C17.111 13.2835 17.1147 13.2127 17.1354 13.1494C17.1426 13.1273 17.15 13.1091 17.1601 13.0881C17.189 13.0281 17.2394 12.9699 17.3402 12.8535L17.3402 12.8535C19.5904 10.255 19.9523 6.81628 19.9948 5.29233C20.0033 4.99024 20.0075 4.83919 19.9091 4.7022C19.8811 4.66321 19.8336 4.61567 19.7946 4.58768C19.6576 4.48931 19.5065 4.49353 19.2044 4.50197Z" stroke="white" stroke-width="1.5" stroke-linejoin="round"/>
<path d="M4.00001 19.7863C4.00033 20.0351 4.00049 20.1595 4.09585 20.2907C4.1211 20.3254 4.17154 20.3759 4.20628 20.4011C4.33746 20.4965 4.46186 20.4967 4.71067 20.497C5.55794 20.4981 7.02351 20.3381 8.01883 19.3427C8.06919 19.2924 8.11853 19.2397 8.16671 19.1851C8.82013 18.4441 8.53923 17.3549 7.84067 16.6563V16.6563C7.14211 15.9578 6.05288 15.6768 5.31191 16.3303C5.25728 16.3784 5.20459 16.4278 5.15423 16.4782C4.15892 17.4735 3.99891 18.939 4.00001 19.7863Z" stroke="white" stroke-width="1.5" stroke-linejoin="round"/>
<path d="M12.0788 12.4177C12.5665 12.9053 13.3571 12.9053 13.8447 12.4177V12.4177C14.3324 11.93 14.3324 11.1394 13.8447 10.6518V10.6518C13.3571 10.1641 12.5665 10.1641 12.0788 10.6518V10.6518C11.5912 11.1394 11.5912 11.93 12.0788 12.4177V12.4177Z" stroke="white" stroke-width="1.5" stroke-linejoin="round"/>
</svg>
