<svg width="24" height="25" viewBox="0 0 24 25" fill="none" xmlns="http://www.w3.org/2000/svg">
<path d="M12 5.5C15.2414 5.5 18.0852 7.85234 19.9031 9.82973C20.7101 10.7075 21.1136 11.1464 21.2498 12.0556C21.2831 12.2782 21.2831 12.7218 21.2498 12.9444C21.1136 13.8536 20.7101 14.2925 19.9031 15.1703C18.0852 17.1477 15.2414 19.5 12 19.5C8.75865 19.5 5.91481 17.1477 4.09687 15.1703C3.28988 14.2925 2.88639 13.8536 2.7502 12.9444C2.71686 12.7218 2.71686 12.2782 2.7502 12.0556C2.88639 11.1464 3.28988 10.7075 4.09687 9.82973C5.91482 7.85234 8.75865 5.5 12 5.5Z" stroke="white" stroke-width="1.5" stroke-linejoin="round"/>
<path d="M15 12.5C15 14.1569 13.6569 15.5 12 15.5C10.3431 15.5 9 14.1569 9 12.5C9 10.8431 10.3431 9.5 12 9.5C13.6569 9.5 15 10.8431 15 12.5Z" stroke="white" stroke-width="1.5" stroke-linejoin="round"/>
</svg>
