<svg width="20" height="20" viewBox="0 0 20 20" fill="none" xmlns="http://www.w3.org/2000/svg">
<path d="M2.18042 16.3466C1.77363 16.7534 1.77363 17.4129 2.18042 17.8197C2.58722 18.2265 3.24677 18.2265 3.65356 17.8197L2.18042 16.3466ZM17.8202 3.65307C18.227 3.24628 18.227 2.58673 17.8202 2.17993C17.4134 1.77314 16.7539 1.77314 16.3471 2.17993L17.8202 3.65307ZM3.65356 17.8197L9.90356 11.5697L8.43042 10.0966L2.18042 16.3466L3.65356 17.8197ZM11.5702 9.90307L17.8202 3.65307L16.3471 2.17993L10.0971 8.42993L11.5702 9.90307Z" fill="#1D3960"/>
<path d="M5.17028 1.875H3.55985C2.66214 1.875 2.21328 1.875 2.02561 2.11128C1.96708 2.18497 1.92595 2.27092 1.90528 2.36272C1.83901 2.6571 2.12059 3.00665 2.68375 3.70575L13.9615 17.7057C14.1088 17.8885 14.1824 17.9799 14.2794 18.0375C14.3114 18.0565 14.345 18.0726 14.3799 18.0856C14.4856 18.125 14.6029 18.125 14.8376 18.125H16.4421C17.3395 18.125 17.7883 18.125 17.9759 17.8888C18.0345 17.8151 18.0756 17.7292 18.0963 17.6374C18.1626 17.343 17.8812 16.9935 17.3184 16.2945L6.04656 2.29448C5.89932 2.11161 5.8257 2.02017 5.72869 1.96257C5.69668 1.94357 5.66303 1.92746 5.62815 1.91444C5.52245 1.875 5.40506 1.875 5.17028 1.875Z" fill="#1D3960"/>
</svg>
